G04 #@! TF.FileFunction,Legend,Top*
%FSLAX46Y46*%
G04 Gerber Fmt 4.6, Leading zero omitted, Abs format (unit mm)*
G04 Created by KiCad (PCBNEW 4.0.2+dfsg1-stable) date Пн 23 янв 2017 07:27:42*
%MOMM*%
G01*
G04 APERTURE LIST*
%ADD10C,0.100000*%
%ADD11C,0.150000*%
%ADD12C,0.304800*%
%ADD13C,0.010000*%
G04 APERTURE END LIST*
D10*
D11*
X179200000Y-90400000D02*
X140800000Y-90400000D01*
X179200000Y-130200000D02*
X179200000Y-90400000D01*
X140800000Y-130200000D02*
X179200000Y-130200000D01*
X140800000Y-90400000D02*
X140800000Y-130200000D01*
X161050000Y-120675000D02*
X160050000Y-120675000D01*
X160050000Y-119325000D02*
X161050000Y-119325000D01*
X145300000Y-105900000D02*
X145300000Y-105200000D01*
X143800000Y-107800000D02*
X143300000Y-107800000D01*
X143800000Y-109202080D02*
X143800000Y-107800000D01*
X147200000Y-107798960D02*
X147200000Y-109201040D01*
X145300000Y-111100000D02*
X145700000Y-111100000D01*
X145300000Y-105900000D02*
X145700000Y-105900000D01*
X175499160Y-100549760D02*
X175450900Y-100549760D01*
X172700180Y-101250800D02*
X172700180Y-100549760D01*
X172700180Y-100549760D02*
X172949100Y-100549760D01*
X175499160Y-100549760D02*
X175699820Y-100549760D01*
X175699820Y-100549760D02*
X175699820Y-101250800D01*
X151289600Y-104667900D02*
X151289600Y-105192900D01*
X158539600Y-104667900D02*
X158539600Y-105192900D01*
X158539600Y-111917900D02*
X158539600Y-111392900D01*
X151289600Y-111917900D02*
X151289600Y-111392900D01*
X151289600Y-104667900D02*
X151814600Y-104667900D01*
X151289600Y-111917900D02*
X151814600Y-111917900D01*
X158539600Y-111917900D02*
X158014600Y-111917900D01*
X158539600Y-104667900D02*
X158014600Y-104667900D01*
X151289600Y-105192900D02*
X149914600Y-105192900D01*
X141122400Y-118160800D02*
X141122400Y-121615200D01*
X144881600Y-118160800D02*
X144881600Y-121615200D01*
X148230000Y-92444000D02*
X153310000Y-92444000D01*
X153310000Y-92444000D02*
X153310000Y-97016000D01*
X153310000Y-97016000D02*
X148230000Y-97016000D01*
X148230000Y-97016000D02*
X148230000Y-92444000D01*
X148230000Y-93968000D02*
X148738000Y-93968000D01*
X148738000Y-93968000D02*
X148738000Y-95238000D01*
X148738000Y-95238000D02*
X148230000Y-95238000D01*
X164300000Y-108925000D02*
X165300000Y-108925000D01*
X165300000Y-110275000D02*
X164300000Y-110275000D01*
X160869000Y-118356000D02*
X160869000Y-117356000D01*
X162219000Y-117356000D02*
X162219000Y-118356000D01*
X166965000Y-112260000D02*
X166965000Y-111260000D01*
X168315000Y-111260000D02*
X168315000Y-112260000D01*
X165187000Y-104132000D02*
X165187000Y-103132000D01*
X166537000Y-103132000D02*
X166537000Y-104132000D01*
X165187000Y-101338000D02*
X165187000Y-100338000D01*
X166537000Y-100338000D02*
X166537000Y-101338000D01*
X171617000Y-107958000D02*
X171617000Y-108958000D01*
X170267000Y-108958000D02*
X170267000Y-107958000D01*
X150630000Y-116419000D02*
X151630000Y-116419000D01*
X151630000Y-117769000D02*
X150630000Y-117769000D01*
X175025000Y-104400000D02*
X174025000Y-104400000D01*
X174025000Y-103050000D02*
X175025000Y-103050000D01*
X161885000Y-101338000D02*
X161885000Y-100338000D01*
X163235000Y-100338000D02*
X163235000Y-101338000D01*
X165924000Y-127697000D02*
X162749000Y-127697000D01*
X162749000Y-127697000D02*
X162749000Y-129475000D01*
X162749000Y-129475000D02*
X165924000Y-129475000D01*
X165924000Y-123125000D02*
X162749000Y-123125000D01*
X162749000Y-123125000D02*
X162749000Y-124903000D01*
X162749000Y-124903000D02*
X165924000Y-124903000D01*
X172020000Y-129729000D02*
X165924000Y-129729000D01*
X165924000Y-129729000D02*
X165924000Y-122871000D01*
X165924000Y-122871000D02*
X173798000Y-122871000D01*
X173925000Y-122871000D02*
X173925000Y-129729000D01*
X173798000Y-129729000D02*
X172020000Y-129729000D01*
X167949760Y-107300840D02*
X167949760Y-107349100D01*
X168650800Y-110099820D02*
X167949760Y-110099820D01*
X167949760Y-110099820D02*
X167949760Y-109850900D01*
X167949760Y-107300840D02*
X167949760Y-107100180D01*
X167949760Y-107100180D02*
X168650800Y-107100180D01*
X149830840Y-120284240D02*
X149879100Y-120284240D01*
X152629820Y-119583200D02*
X152629820Y-120284240D01*
X152629820Y-120284240D02*
X152380900Y-120284240D01*
X149830840Y-120284240D02*
X149630180Y-120284240D01*
X149630180Y-120284240D02*
X149630180Y-119583200D01*
X162800000Y-106725000D02*
X164000000Y-106725000D01*
X164000000Y-108475000D02*
X162800000Y-108475000D01*
X149375000Y-114200000D02*
X149375000Y-115400000D01*
X147625000Y-115400000D02*
X147625000Y-114200000D01*
X148200000Y-103475000D02*
X147000000Y-103475000D01*
X147000000Y-101725000D02*
X148200000Y-101725000D01*
X147575000Y-112700000D02*
X147575000Y-113900000D01*
X145825000Y-113900000D02*
X145825000Y-112700000D01*
X145475000Y-102900000D02*
X145475000Y-104100000D01*
X143725000Y-104100000D02*
X143725000Y-102900000D01*
X154025000Y-114750000D02*
X154025000Y-115750000D01*
X152675000Y-115750000D02*
X152675000Y-114750000D01*
X168743000Y-112260000D02*
X168743000Y-111260000D01*
X170093000Y-111260000D02*
X170093000Y-112260000D01*
X163663000Y-101338000D02*
X163663000Y-100338000D01*
X165013000Y-100338000D02*
X165013000Y-101338000D01*
X174538640Y-111800640D02*
X179537360Y-111800640D01*
X179537360Y-111800640D02*
X179537360Y-116799360D01*
X179537360Y-116799360D02*
X174538640Y-116799360D01*
X174538640Y-116799360D02*
X174538640Y-111800640D01*
X157300640Y-125000640D02*
X162299360Y-125000640D01*
X162299360Y-125000640D02*
X162299360Y-129999360D01*
X162299360Y-129999360D02*
X157300640Y-129999360D01*
X157300640Y-129999360D02*
X157300640Y-125000640D01*
X174200640Y-123700640D02*
X179199360Y-123700640D01*
X179199360Y-123700640D02*
X179199360Y-128699360D01*
X179199360Y-128699360D02*
X174200640Y-128699360D01*
X174200640Y-128699360D02*
X174200640Y-123700640D01*
X174284640Y-116372640D02*
X179283360Y-116372640D01*
X179283360Y-116372640D02*
X179283360Y-121371360D01*
X179283360Y-121371360D02*
X174284640Y-121371360D01*
X174284640Y-121371360D02*
X174284640Y-116372640D01*
X153340000Y-130046000D02*
X156540000Y-130046000D01*
X153339800Y-123245880D02*
X156540200Y-123245880D01*
X153340000Y-130246000D02*
X156540000Y-130246000D01*
X156545280Y-125549660D02*
X156545280Y-123263660D01*
X153334720Y-123263660D02*
X153334720Y-125549660D01*
X153340000Y-127946000D02*
X153340000Y-130246000D01*
X156540000Y-130246000D02*
X156540000Y-127946000D01*
X176000000Y-106300000D02*
X179200000Y-106300000D01*
X175999800Y-99499880D02*
X179200200Y-99499880D01*
X176000000Y-106500000D02*
X179200000Y-106500000D01*
X179205280Y-101803660D02*
X179205280Y-99517660D01*
X175994720Y-99517660D02*
X175994720Y-101803660D01*
X176000000Y-104200000D02*
X176000000Y-106500000D01*
X179200000Y-106500000D02*
X179200000Y-104200000D01*
X176598580Y-90996440D02*
X172397420Y-90996440D01*
X176598580Y-90695780D02*
X172397420Y-90695780D01*
X176598580Y-99296220D02*
X172397420Y-99296220D01*
X172392340Y-96992440D02*
X172392340Y-99278440D01*
X176603660Y-99278440D02*
X176603660Y-96992440D01*
X176603660Y-92997020D02*
X176603660Y-90711020D01*
X172392340Y-90713560D02*
X172392340Y-92999560D01*
X152843560Y-128084580D02*
X152843560Y-123883420D01*
X153144220Y-128084580D02*
X153144220Y-123883420D01*
X144543780Y-128084580D02*
X144543780Y-123883420D01*
X146847560Y-123878340D02*
X144561560Y-123878340D01*
X144561560Y-128089660D02*
X146847560Y-128089660D01*
X150842980Y-128089660D02*
X153128980Y-128089660D01*
X153126440Y-123878340D02*
X150840440Y-123878340D01*
X168300400Y-100888800D02*
X168300400Y-104343200D01*
X172059600Y-100888800D02*
X172059600Y-104343200D01*
X177495200Y-107340400D02*
X174040800Y-107340400D01*
X177495200Y-111099600D02*
X174040800Y-111099600D01*
X164000000Y-113875000D02*
X162000000Y-113875000D01*
X162000000Y-110925000D02*
X164000000Y-110925000D01*
X167326000Y-113745000D02*
X172526000Y-113745000D01*
X172526000Y-117395000D02*
X167326000Y-117395000D01*
X146879600Y-96127200D02*
X146879600Y-92672800D01*
X143120400Y-96127200D02*
X143120400Y-92672800D01*
X155107000Y-92972000D02*
X155107000Y-93972000D01*
X153757000Y-93972000D02*
X153757000Y-92972000D01*
D12*
X166458900Y-98638360D02*
X167561260Y-98638360D01*
X167561260Y-98638360D02*
X167561260Y-97137220D01*
X167561260Y-97137220D02*
X166458900Y-97137220D01*
X157558740Y-97134680D02*
X158661100Y-97134680D01*
X157558740Y-98635820D02*
X157558740Y-97134680D01*
X158661100Y-98635820D02*
X157558740Y-98635820D01*
X158661100Y-93134180D02*
X157558740Y-93134180D01*
X157558740Y-93134180D02*
X157558740Y-91633040D01*
X157558740Y-91633040D02*
X158661100Y-91633040D01*
X166458900Y-93134180D02*
X167561260Y-93134180D01*
X167561260Y-93134180D02*
X167561260Y-91633040D01*
X167561260Y-91633040D02*
X166458900Y-91633040D01*
X166458900Y-89232740D02*
X158661100Y-89232740D01*
X158661100Y-89232740D02*
X158661100Y-99235260D01*
X158661100Y-99235260D02*
X166458900Y-99235260D01*
X166458900Y-99235260D02*
X166458900Y-89232740D01*
D11*
X141825000Y-106800000D02*
X141825000Y-105800000D01*
X143175000Y-105800000D02*
X143175000Y-106800000D01*
X145000000Y-113475000D02*
X144000000Y-113475000D01*
X144000000Y-112125000D02*
X145000000Y-112125000D01*
X148975000Y-108600000D02*
X148975000Y-109600000D01*
X147625000Y-109600000D02*
X147625000Y-108600000D01*
X159300840Y-123200240D02*
X159349100Y-123200240D01*
X162099820Y-122499200D02*
X162099820Y-123200240D01*
X162099820Y-123200240D02*
X161850900Y-123200240D01*
X159300840Y-123200240D02*
X159100180Y-123200240D01*
X159100180Y-123200240D02*
X159100180Y-122499200D01*
X165880000Y-121365000D02*
X163880000Y-121365000D01*
X163880000Y-119215000D02*
X165880000Y-119215000D01*
D10*
X165156680Y-95605600D02*
G75*
G03X165156680Y-95605600I-399580J0D01*
G01*
X160759940Y-95605600D02*
G75*
G03X160759940Y-95605600I-399580J0D01*
G01*
D11*
X159907143Y-118552381D02*
X159573809Y-118076190D01*
X159335714Y-118552381D02*
X159335714Y-117552381D01*
X159716667Y-117552381D01*
X159811905Y-117600000D01*
X159859524Y-117647619D01*
X159907143Y-117742857D01*
X159907143Y-117885714D01*
X159859524Y-117980952D01*
X159811905Y-118028571D01*
X159716667Y-118076190D01*
X159335714Y-118076190D01*
X160288095Y-117647619D02*
X160335714Y-117600000D01*
X160430952Y-117552381D01*
X160669048Y-117552381D01*
X160764286Y-117600000D01*
X160811905Y-117647619D01*
X160859524Y-117742857D01*
X160859524Y-117838095D01*
X160811905Y-117980952D01*
X160240476Y-118552381D01*
X160859524Y-118552381D01*
X161335714Y-118552381D02*
X161526190Y-118552381D01*
X161621429Y-118504762D01*
X161669048Y-118457143D01*
X161764286Y-118314286D01*
X161811905Y-118123810D01*
X161811905Y-117742857D01*
X161764286Y-117647619D01*
X161716667Y-117600000D01*
X161621429Y-117552381D01*
X161430952Y-117552381D01*
X161335714Y-117600000D01*
X161288095Y-117647619D01*
X161240476Y-117742857D01*
X161240476Y-117980952D01*
X161288095Y-118076190D01*
X161335714Y-118123810D01*
X161430952Y-118171429D01*
X161621429Y-118171429D01*
X161716667Y-118123810D01*
X161764286Y-118076190D01*
X161811905Y-117980952D01*
X146376190Y-110676191D02*
X146852381Y-110676191D01*
X145852381Y-111009524D02*
X146376190Y-110676191D01*
X145852381Y-110342857D01*
X146852381Y-109485714D02*
X146852381Y-110057143D01*
X146852381Y-109771429D02*
X145852381Y-109771429D01*
X145995238Y-109866667D01*
X146090476Y-109961905D01*
X146138095Y-110057143D01*
D13*
X174152381Y-99223810D02*
X174104762Y-99200000D01*
X174057143Y-99152381D01*
X173985714Y-99080952D01*
X173938095Y-99057143D01*
X173890476Y-99057143D01*
X173914286Y-99176190D02*
X173866667Y-99152381D01*
X173819048Y-99104762D01*
X173795238Y-99009524D01*
X173795238Y-98842857D01*
X173819048Y-98747619D01*
X173866667Y-98700000D01*
X173914286Y-98676190D01*
X174009524Y-98676190D01*
X174057143Y-98700000D01*
X174104762Y-98747619D01*
X174128571Y-98842857D01*
X174128571Y-99009524D01*
X174104762Y-99104762D01*
X174057143Y-99152381D01*
X174009524Y-99176190D01*
X173914286Y-99176190D01*
X174604762Y-99176190D02*
X174319048Y-99176190D01*
X174461905Y-99176190D02*
X174461905Y-98676190D01*
X174414286Y-98747619D01*
X174366667Y-98795238D01*
X174319048Y-98819048D01*
X154533648Y-102019090D02*
X154533648Y-102423852D01*
X154557457Y-102471471D01*
X154581267Y-102495281D01*
X154628886Y-102519090D01*
X154724124Y-102519090D01*
X154771743Y-102495281D01*
X154795552Y-102471471D01*
X154819362Y-102423852D01*
X154819362Y-102019090D01*
X155033648Y-102066710D02*
X155057458Y-102042900D01*
X155105077Y-102019090D01*
X155224124Y-102019090D01*
X155271743Y-102042900D01*
X155295553Y-102066710D01*
X155319362Y-102114329D01*
X155319362Y-102161948D01*
X155295553Y-102233376D01*
X155009839Y-102519090D01*
X155319362Y-102519090D01*
X142178572Y-121278571D02*
X142154762Y-121302381D01*
X142083334Y-121326190D01*
X142035715Y-121326190D01*
X141964286Y-121302381D01*
X141916667Y-121254762D01*
X141892858Y-121207143D01*
X141869048Y-121111905D01*
X141869048Y-121040476D01*
X141892858Y-120945238D01*
X141916667Y-120897619D01*
X141964286Y-120850000D01*
X142035715Y-120826190D01*
X142083334Y-120826190D01*
X142154762Y-120850000D01*
X142178572Y-120873810D01*
X142654762Y-121326190D02*
X142369048Y-121326190D01*
X142511905Y-121326190D02*
X142511905Y-120826190D01*
X142464286Y-120897619D01*
X142416667Y-120945238D01*
X142369048Y-120969048D01*
X143083333Y-120826190D02*
X142988095Y-120826190D01*
X142940476Y-120850000D01*
X142916667Y-120873810D01*
X142869048Y-120945238D01*
X142845238Y-121040476D01*
X142845238Y-121230952D01*
X142869048Y-121278571D01*
X142892857Y-121302381D01*
X142940476Y-121326190D01*
X143035714Y-121326190D01*
X143083333Y-121302381D01*
X143107143Y-121278571D01*
X143130952Y-121230952D01*
X143130952Y-121111905D01*
X143107143Y-121064286D01*
X143083333Y-121040476D01*
X143035714Y-121016667D01*
X142940476Y-121016667D01*
X142892857Y-121040476D01*
X142869048Y-121064286D01*
X142845238Y-121111905D01*
X150389048Y-93186190D02*
X150389048Y-93590952D01*
X150412857Y-93638571D01*
X150436667Y-93662381D01*
X150484286Y-93686190D01*
X150579524Y-93686190D01*
X150627143Y-93662381D01*
X150650952Y-93638571D01*
X150674762Y-93590952D01*
X150674762Y-93186190D01*
X151174762Y-93686190D02*
X150889048Y-93686190D01*
X151031905Y-93686190D02*
X151031905Y-93186190D01*
X150984286Y-93257619D01*
X150936667Y-93305238D01*
X150889048Y-93329048D01*
X164478572Y-111726190D02*
X164311905Y-111488095D01*
X164192858Y-111726190D02*
X164192858Y-111226190D01*
X164383334Y-111226190D01*
X164430953Y-111250000D01*
X164454762Y-111273810D01*
X164478572Y-111321429D01*
X164478572Y-111392857D01*
X164454762Y-111440476D01*
X164430953Y-111464286D01*
X164383334Y-111488095D01*
X164192858Y-111488095D01*
X164669048Y-111273810D02*
X164692858Y-111250000D01*
X164740477Y-111226190D01*
X164859524Y-111226190D01*
X164907143Y-111250000D01*
X164930953Y-111273810D01*
X164954762Y-111321429D01*
X164954762Y-111369048D01*
X164930953Y-111440476D01*
X164645239Y-111726190D01*
X164954762Y-111726190D01*
X165145238Y-111273810D02*
X165169048Y-111250000D01*
X165216667Y-111226190D01*
X165335714Y-111226190D01*
X165383333Y-111250000D01*
X165407143Y-111273810D01*
X165430952Y-111321429D01*
X165430952Y-111369048D01*
X165407143Y-111440476D01*
X165121429Y-111726190D01*
X165430952Y-111726190D01*
X160726190Y-119321428D02*
X160488095Y-119488095D01*
X160726190Y-119607142D02*
X160226190Y-119607142D01*
X160226190Y-119416666D01*
X160250000Y-119369047D01*
X160273810Y-119345238D01*
X160321429Y-119321428D01*
X160392857Y-119321428D01*
X160440476Y-119345238D01*
X160464286Y-119369047D01*
X160488095Y-119416666D01*
X160488095Y-119607142D01*
X160273810Y-119130952D02*
X160250000Y-119107142D01*
X160226190Y-119059523D01*
X160226190Y-118940476D01*
X160250000Y-118892857D01*
X160273810Y-118869047D01*
X160321429Y-118845238D01*
X160369048Y-118845238D01*
X160440476Y-118869047D01*
X160726190Y-119154761D01*
X160726190Y-118845238D01*
X160226190Y-118535714D02*
X160226190Y-118488095D01*
X160250000Y-118440476D01*
X160273810Y-118416667D01*
X160321429Y-118392857D01*
X160416667Y-118369048D01*
X160535714Y-118369048D01*
X160630952Y-118392857D01*
X160678571Y-118416667D01*
X160702381Y-118440476D01*
X160726190Y-118488095D01*
X160726190Y-118535714D01*
X160702381Y-118583333D01*
X160678571Y-118607143D01*
X160630952Y-118630952D01*
X160535714Y-118654762D01*
X160416667Y-118654762D01*
X160321429Y-118630952D01*
X160273810Y-118607143D01*
X160250000Y-118583333D01*
X160226190Y-118535714D01*
X168726190Y-112121428D02*
X168488095Y-112288095D01*
X168726190Y-112407142D02*
X168226190Y-112407142D01*
X168226190Y-112216666D01*
X168250000Y-112169047D01*
X168273810Y-112145238D01*
X168321429Y-112121428D01*
X168392857Y-112121428D01*
X168440476Y-112145238D01*
X168464286Y-112169047D01*
X168488095Y-112216666D01*
X168488095Y-112407142D01*
X168726190Y-111645238D02*
X168726190Y-111930952D01*
X168726190Y-111788095D02*
X168226190Y-111788095D01*
X168297619Y-111835714D01*
X168345238Y-111883333D01*
X168369048Y-111930952D01*
X168226190Y-111192857D02*
X168226190Y-111430952D01*
X168464286Y-111454762D01*
X168440476Y-111430952D01*
X168416667Y-111383333D01*
X168416667Y-111264286D01*
X168440476Y-111216667D01*
X168464286Y-111192857D01*
X168511905Y-111169048D01*
X168630952Y-111169048D01*
X168678571Y-111192857D01*
X168702381Y-111216667D01*
X168726190Y-111264286D01*
X168726190Y-111383333D01*
X168702381Y-111430952D01*
X168678571Y-111454762D01*
X165126190Y-104121428D02*
X164888095Y-104288095D01*
X165126190Y-104407142D02*
X164626190Y-104407142D01*
X164626190Y-104216666D01*
X164650000Y-104169047D01*
X164673810Y-104145238D01*
X164721429Y-104121428D01*
X164792857Y-104121428D01*
X164840476Y-104145238D01*
X164864286Y-104169047D01*
X164888095Y-104216666D01*
X164888095Y-104407142D01*
X165126190Y-103645238D02*
X165126190Y-103930952D01*
X165126190Y-103788095D02*
X164626190Y-103788095D01*
X164697619Y-103835714D01*
X164745238Y-103883333D01*
X164769048Y-103930952D01*
X164792857Y-103216667D02*
X165126190Y-103216667D01*
X164602381Y-103335714D02*
X164959524Y-103454762D01*
X164959524Y-103145238D01*
X167988190Y-101159428D02*
X167750095Y-101326095D01*
X167988190Y-101445142D02*
X167488190Y-101445142D01*
X167488190Y-101254666D01*
X167512000Y-101207047D01*
X167535810Y-101183238D01*
X167583429Y-101159428D01*
X167654857Y-101159428D01*
X167702476Y-101183238D01*
X167726286Y-101207047D01*
X167750095Y-101254666D01*
X167750095Y-101445142D01*
X167988190Y-100683238D02*
X167988190Y-100968952D01*
X167988190Y-100826095D02*
X167488190Y-100826095D01*
X167559619Y-100873714D01*
X167607238Y-100921333D01*
X167631048Y-100968952D01*
X167488190Y-100516571D02*
X167488190Y-100207048D01*
X167678667Y-100373714D01*
X167678667Y-100302286D01*
X167702476Y-100254667D01*
X167726286Y-100230857D01*
X167773905Y-100207048D01*
X167892952Y-100207048D01*
X167940571Y-100230857D01*
X167964381Y-100254667D01*
X167988190Y-100302286D01*
X167988190Y-100445143D01*
X167964381Y-100492762D01*
X167940571Y-100516571D01*
X169268190Y-108779428D02*
X169030095Y-108946095D01*
X169268190Y-109065142D02*
X168768190Y-109065142D01*
X168768190Y-108874666D01*
X168792000Y-108827047D01*
X168815810Y-108803238D01*
X168863429Y-108779428D01*
X168934857Y-108779428D01*
X168982476Y-108803238D01*
X169006286Y-108827047D01*
X169030095Y-108874666D01*
X169030095Y-109065142D01*
X169268190Y-108303238D02*
X169268190Y-108588952D01*
X169268190Y-108446095D02*
X168768190Y-108446095D01*
X168839619Y-108493714D01*
X168887238Y-108541333D01*
X168911048Y-108588952D01*
X168815810Y-108112762D02*
X168792000Y-108088952D01*
X168768190Y-108041333D01*
X168768190Y-107922286D01*
X168792000Y-107874667D01*
X168815810Y-107850857D01*
X168863429Y-107827048D01*
X168911048Y-107827048D01*
X168982476Y-107850857D01*
X169268190Y-108136571D01*
X169268190Y-107827048D01*
X151078572Y-116726190D02*
X150911905Y-116488095D01*
X150792858Y-116726190D02*
X150792858Y-116226190D01*
X150983334Y-116226190D01*
X151030953Y-116250000D01*
X151054762Y-116273810D01*
X151078572Y-116321429D01*
X151078572Y-116392857D01*
X151054762Y-116440476D01*
X151030953Y-116464286D01*
X150983334Y-116488095D01*
X150792858Y-116488095D01*
X151554762Y-116726190D02*
X151269048Y-116726190D01*
X151411905Y-116726190D02*
X151411905Y-116226190D01*
X151364286Y-116297619D01*
X151316667Y-116345238D01*
X151269048Y-116369048D01*
X151864286Y-116226190D02*
X151911905Y-116226190D01*
X151959524Y-116250000D01*
X151983333Y-116273810D01*
X152007143Y-116321429D01*
X152030952Y-116416667D01*
X152030952Y-116535714D01*
X152007143Y-116630952D01*
X151983333Y-116678571D01*
X151959524Y-116702381D01*
X151911905Y-116726190D01*
X151864286Y-116726190D01*
X151816667Y-116702381D01*
X151792857Y-116678571D01*
X151769048Y-116630952D01*
X151745238Y-116535714D01*
X151745238Y-116416667D01*
X151769048Y-116321429D01*
X151792857Y-116273810D01*
X151816667Y-116250000D01*
X151864286Y-116226190D01*
X174441667Y-102051190D02*
X174275000Y-101813095D01*
X174155953Y-102051190D02*
X174155953Y-101551190D01*
X174346429Y-101551190D01*
X174394048Y-101575000D01*
X174417857Y-101598810D01*
X174441667Y-101646429D01*
X174441667Y-101717857D01*
X174417857Y-101765476D01*
X174394048Y-101789286D01*
X174346429Y-101813095D01*
X174155953Y-101813095D01*
X174679762Y-102051190D02*
X174775000Y-102051190D01*
X174822619Y-102027381D01*
X174846429Y-102003571D01*
X174894048Y-101932143D01*
X174917857Y-101836905D01*
X174917857Y-101646429D01*
X174894048Y-101598810D01*
X174870238Y-101575000D01*
X174822619Y-101551190D01*
X174727381Y-101551190D01*
X174679762Y-101575000D01*
X174655953Y-101598810D01*
X174632143Y-101646429D01*
X174632143Y-101765476D01*
X174655953Y-101813095D01*
X174679762Y-101836905D01*
X174727381Y-101860714D01*
X174822619Y-101860714D01*
X174870238Y-101836905D01*
X174894048Y-101813095D01*
X174917857Y-101765476D01*
X164686190Y-100921333D02*
X164448095Y-101088000D01*
X164686190Y-101207047D02*
X164186190Y-101207047D01*
X164186190Y-101016571D01*
X164210000Y-100968952D01*
X164233810Y-100945143D01*
X164281429Y-100921333D01*
X164352857Y-100921333D01*
X164400476Y-100945143D01*
X164424286Y-100968952D01*
X164448095Y-101016571D01*
X164448095Y-101207047D01*
X164400476Y-100635619D02*
X164376667Y-100683238D01*
X164352857Y-100707047D01*
X164305238Y-100730857D01*
X164281429Y-100730857D01*
X164233810Y-100707047D01*
X164210000Y-100683238D01*
X164186190Y-100635619D01*
X164186190Y-100540381D01*
X164210000Y-100492762D01*
X164233810Y-100468952D01*
X164281429Y-100445143D01*
X164305238Y-100445143D01*
X164352857Y-100468952D01*
X164376667Y-100492762D01*
X164400476Y-100540381D01*
X164400476Y-100635619D01*
X164424286Y-100683238D01*
X164448095Y-100707047D01*
X164495714Y-100730857D01*
X164590952Y-100730857D01*
X164638571Y-100707047D01*
X164662381Y-100683238D01*
X164686190Y-100635619D01*
X164686190Y-100540381D01*
X164662381Y-100492762D01*
X164638571Y-100468952D01*
X164590952Y-100445143D01*
X164495714Y-100445143D01*
X164448095Y-100468952D01*
X164424286Y-100492762D01*
X164400476Y-100540381D01*
X175087810Y-126347619D02*
X175064000Y-126395238D01*
X175016381Y-126442857D01*
X174944952Y-126514286D01*
X174921143Y-126561905D01*
X174921143Y-126609524D01*
X175040190Y-126585714D02*
X175016381Y-126633333D01*
X174968762Y-126680952D01*
X174873524Y-126704762D01*
X174706857Y-126704762D01*
X174611619Y-126680952D01*
X174564000Y-126633333D01*
X174540190Y-126585714D01*
X174540190Y-126490476D01*
X174564000Y-126442857D01*
X174611619Y-126395238D01*
X174706857Y-126371429D01*
X174873524Y-126371429D01*
X174968762Y-126395238D01*
X175016381Y-126442857D01*
X175040190Y-126490476D01*
X175040190Y-126585714D01*
X174706857Y-125942857D02*
X175040190Y-125942857D01*
X174516381Y-126061904D02*
X174873524Y-126180952D01*
X174873524Y-125871428D01*
X166623810Y-108647619D02*
X166600000Y-108695238D01*
X166552381Y-108742857D01*
X166480952Y-108814286D01*
X166457143Y-108861905D01*
X166457143Y-108909524D01*
X166576190Y-108885714D02*
X166552381Y-108933333D01*
X166504762Y-108980952D01*
X166409524Y-109004762D01*
X166242857Y-109004762D01*
X166147619Y-108980952D01*
X166100000Y-108933333D01*
X166076190Y-108885714D01*
X166076190Y-108790476D01*
X166100000Y-108742857D01*
X166147619Y-108695238D01*
X166242857Y-108671429D01*
X166409524Y-108671429D01*
X166504762Y-108695238D01*
X166552381Y-108742857D01*
X166576190Y-108790476D01*
X166576190Y-108885714D01*
X166076190Y-108504761D02*
X166076190Y-108195238D01*
X166266667Y-108361904D01*
X166266667Y-108290476D01*
X166290476Y-108242857D01*
X166314286Y-108219047D01*
X166361905Y-108195238D01*
X166480952Y-108195238D01*
X166528571Y-108219047D01*
X166552381Y-108242857D01*
X166576190Y-108290476D01*
X166576190Y-108433333D01*
X166552381Y-108480952D01*
X166528571Y-108504761D01*
X149852381Y-122073810D02*
X149804762Y-122050000D01*
X149757143Y-122002381D01*
X149685714Y-121930952D01*
X149638095Y-121907143D01*
X149590476Y-121907143D01*
X149614286Y-122026190D02*
X149566667Y-122002381D01*
X149519048Y-121954762D01*
X149495238Y-121859524D01*
X149495238Y-121692857D01*
X149519048Y-121597619D01*
X149566667Y-121550000D01*
X149614286Y-121526190D01*
X149709524Y-121526190D01*
X149757143Y-121550000D01*
X149804762Y-121597619D01*
X149828571Y-121692857D01*
X149828571Y-121859524D01*
X149804762Y-121954762D01*
X149757143Y-122002381D01*
X149709524Y-122026190D01*
X149614286Y-122026190D01*
X150019048Y-121573810D02*
X150042858Y-121550000D01*
X150090477Y-121526190D01*
X150209524Y-121526190D01*
X150257143Y-121550000D01*
X150280953Y-121573810D01*
X150304762Y-121621429D01*
X150304762Y-121669048D01*
X150280953Y-121740476D01*
X149995239Y-122026190D01*
X150304762Y-122026190D01*
X163078572Y-109878571D02*
X163054762Y-109902381D01*
X162983334Y-109926190D01*
X162935715Y-109926190D01*
X162864286Y-109902381D01*
X162816667Y-109854762D01*
X162792858Y-109807143D01*
X162769048Y-109711905D01*
X162769048Y-109640476D01*
X162792858Y-109545238D01*
X162816667Y-109497619D01*
X162864286Y-109450000D01*
X162935715Y-109426190D01*
X162983334Y-109426190D01*
X163054762Y-109450000D01*
X163078572Y-109473810D01*
X163269048Y-109473810D02*
X163292858Y-109450000D01*
X163340477Y-109426190D01*
X163459524Y-109426190D01*
X163507143Y-109450000D01*
X163530953Y-109473810D01*
X163554762Y-109521429D01*
X163554762Y-109569048D01*
X163530953Y-109640476D01*
X163245239Y-109926190D01*
X163554762Y-109926190D01*
X163864286Y-109426190D02*
X163911905Y-109426190D01*
X163959524Y-109450000D01*
X163983333Y-109473810D01*
X164007143Y-109521429D01*
X164030952Y-109616667D01*
X164030952Y-109735714D01*
X164007143Y-109830952D01*
X163983333Y-109878571D01*
X163959524Y-109902381D01*
X163911905Y-109926190D01*
X163864286Y-109926190D01*
X163816667Y-109902381D01*
X163792857Y-109878571D01*
X163769048Y-109830952D01*
X163745238Y-109735714D01*
X163745238Y-109616667D01*
X163769048Y-109521429D01*
X163792857Y-109473810D01*
X163816667Y-109450000D01*
X163864286Y-109426190D01*
X150878571Y-114621428D02*
X150902381Y-114645238D01*
X150926190Y-114716666D01*
X150926190Y-114764285D01*
X150902381Y-114835714D01*
X150854762Y-114883333D01*
X150807143Y-114907142D01*
X150711905Y-114930952D01*
X150640476Y-114930952D01*
X150545238Y-114907142D01*
X150497619Y-114883333D01*
X150450000Y-114835714D01*
X150426190Y-114764285D01*
X150426190Y-114716666D01*
X150450000Y-114645238D01*
X150473810Y-114621428D01*
X150926190Y-114145238D02*
X150926190Y-114430952D01*
X150926190Y-114288095D02*
X150426190Y-114288095D01*
X150497619Y-114335714D01*
X150545238Y-114383333D01*
X150569048Y-114430952D01*
X150426190Y-113978571D02*
X150426190Y-113645238D01*
X150926190Y-113859524D01*
X147516667Y-100678571D02*
X147492857Y-100702381D01*
X147421429Y-100726190D01*
X147373810Y-100726190D01*
X147302381Y-100702381D01*
X147254762Y-100654762D01*
X147230953Y-100607143D01*
X147207143Y-100511905D01*
X147207143Y-100440476D01*
X147230953Y-100345238D01*
X147254762Y-100297619D01*
X147302381Y-100250000D01*
X147373810Y-100226190D01*
X147421429Y-100226190D01*
X147492857Y-100250000D01*
X147516667Y-100273810D01*
X147969048Y-100226190D02*
X147730953Y-100226190D01*
X147707143Y-100464286D01*
X147730953Y-100440476D01*
X147778572Y-100416667D01*
X147897619Y-100416667D01*
X147945238Y-100440476D01*
X147969048Y-100464286D01*
X147992857Y-100511905D01*
X147992857Y-100630952D01*
X147969048Y-100678571D01*
X147945238Y-100702381D01*
X147897619Y-100726190D01*
X147778572Y-100726190D01*
X147730953Y-100702381D01*
X147707143Y-100678571D01*
X143824571Y-113687333D02*
X143848381Y-113711143D01*
X143872190Y-113782571D01*
X143872190Y-113830190D01*
X143848381Y-113901619D01*
X143800762Y-113949238D01*
X143753143Y-113973047D01*
X143657905Y-113996857D01*
X143586476Y-113996857D01*
X143491238Y-113973047D01*
X143443619Y-113949238D01*
X143396000Y-113901619D01*
X143372190Y-113830190D01*
X143372190Y-113782571D01*
X143396000Y-113711143D01*
X143419810Y-113687333D01*
X143419810Y-113496857D02*
X143396000Y-113473047D01*
X143372190Y-113425428D01*
X143372190Y-113306381D01*
X143396000Y-113258762D01*
X143419810Y-113234952D01*
X143467429Y-113211143D01*
X143515048Y-113211143D01*
X143586476Y-113234952D01*
X143872190Y-113520666D01*
X143872190Y-113211143D01*
X142678571Y-103583333D02*
X142702381Y-103607143D01*
X142726190Y-103678571D01*
X142726190Y-103726190D01*
X142702381Y-103797619D01*
X142654762Y-103845238D01*
X142607143Y-103869047D01*
X142511905Y-103892857D01*
X142440476Y-103892857D01*
X142345238Y-103869047D01*
X142297619Y-103845238D01*
X142250000Y-103797619D01*
X142226190Y-103726190D01*
X142226190Y-103678571D01*
X142250000Y-103607143D01*
X142273810Y-103583333D01*
X142726190Y-103107143D02*
X142726190Y-103392857D01*
X142726190Y-103250000D02*
X142226190Y-103250000D01*
X142297619Y-103297619D01*
X142345238Y-103345238D01*
X142369048Y-103392857D01*
X151726190Y-114583333D02*
X151488095Y-114750000D01*
X151726190Y-114869047D02*
X151226190Y-114869047D01*
X151226190Y-114678571D01*
X151250000Y-114630952D01*
X151273810Y-114607143D01*
X151321429Y-114583333D01*
X151392857Y-114583333D01*
X151440476Y-114607143D01*
X151464286Y-114630952D01*
X151488095Y-114678571D01*
X151488095Y-114869047D01*
X151392857Y-114154762D02*
X151726190Y-114154762D01*
X151202381Y-114273809D02*
X151559524Y-114392857D01*
X151559524Y-114083333D01*
X170626190Y-111583333D02*
X170388095Y-111750000D01*
X170626190Y-111869047D02*
X170126190Y-111869047D01*
X170126190Y-111678571D01*
X170150000Y-111630952D01*
X170173810Y-111607143D01*
X170221429Y-111583333D01*
X170292857Y-111583333D01*
X170340476Y-111607143D01*
X170364286Y-111630952D01*
X170388095Y-111678571D01*
X170388095Y-111869047D01*
X170126190Y-111154762D02*
X170126190Y-111250000D01*
X170150000Y-111297619D01*
X170173810Y-111321428D01*
X170245238Y-111369047D01*
X170340476Y-111392857D01*
X170530952Y-111392857D01*
X170578571Y-111369047D01*
X170602381Y-111345238D01*
X170626190Y-111297619D01*
X170626190Y-111202381D01*
X170602381Y-111154762D01*
X170578571Y-111130952D01*
X170530952Y-111107143D01*
X170411905Y-111107143D01*
X170364286Y-111130952D01*
X170340476Y-111154762D01*
X170316667Y-111202381D01*
X170316667Y-111297619D01*
X170340476Y-111345238D01*
X170364286Y-111369047D01*
X170411905Y-111392857D01*
X166464190Y-100921333D02*
X166226095Y-101088000D01*
X166464190Y-101207047D02*
X165964190Y-101207047D01*
X165964190Y-101016571D01*
X165988000Y-100968952D01*
X166011810Y-100945143D01*
X166059429Y-100921333D01*
X166130857Y-100921333D01*
X166178476Y-100945143D01*
X166202286Y-100968952D01*
X166226095Y-101016571D01*
X166226095Y-101207047D01*
X165964190Y-100754666D02*
X165964190Y-100421333D01*
X166464190Y-100635619D01*
X154062953Y-98770190D02*
X154062953Y-98270190D01*
X154253429Y-98270190D01*
X154301048Y-98294000D01*
X154324857Y-98317810D01*
X154348667Y-98365429D01*
X154348667Y-98436857D01*
X154324857Y-98484476D01*
X154301048Y-98508286D01*
X154253429Y-98532095D01*
X154062953Y-98532095D01*
X154824857Y-98770190D02*
X154539143Y-98770190D01*
X154682000Y-98770190D02*
X154682000Y-98270190D01*
X154634381Y-98341619D01*
X154586762Y-98389238D01*
X154539143Y-98413048D01*
X150430953Y-101326190D02*
X150430953Y-100826190D01*
X150621429Y-100826190D01*
X150669048Y-100850000D01*
X150692857Y-100873810D01*
X150716667Y-100921429D01*
X150716667Y-100992857D01*
X150692857Y-101040476D01*
X150669048Y-101064286D01*
X150621429Y-101088095D01*
X150430953Y-101088095D01*
X150907143Y-100873810D02*
X150930953Y-100850000D01*
X150978572Y-100826190D01*
X151097619Y-100826190D01*
X151145238Y-100850000D01*
X151169048Y-100873810D01*
X151192857Y-100921429D01*
X151192857Y-100969048D01*
X151169048Y-101040476D01*
X150883334Y-101326190D01*
X151192857Y-101326190D01*
X158530953Y-102376190D02*
X158530953Y-101876190D01*
X158721429Y-101876190D01*
X158769048Y-101900000D01*
X158792857Y-101923810D01*
X158816667Y-101971429D01*
X158816667Y-102042857D01*
X158792857Y-102090476D01*
X158769048Y-102114286D01*
X158721429Y-102138095D01*
X158530953Y-102138095D01*
X158983334Y-101876190D02*
X159316667Y-101876190D01*
X159102381Y-102376190D01*
X153046953Y-102072190D02*
X153046953Y-101572190D01*
X153237429Y-101572190D01*
X153285048Y-101596000D01*
X153308857Y-101619810D01*
X153332667Y-101667429D01*
X153332667Y-101738857D01*
X153308857Y-101786476D01*
X153285048Y-101810286D01*
X153237429Y-101834095D01*
X153046953Y-101834095D01*
X153618381Y-101786476D02*
X153570762Y-101762667D01*
X153546953Y-101738857D01*
X153523143Y-101691238D01*
X153523143Y-101667429D01*
X153546953Y-101619810D01*
X153570762Y-101596000D01*
X153618381Y-101572190D01*
X153713619Y-101572190D01*
X153761238Y-101596000D01*
X153785048Y-101619810D01*
X153808857Y-101667429D01*
X153808857Y-101691238D01*
X153785048Y-101738857D01*
X153761238Y-101762667D01*
X153713619Y-101786476D01*
X153618381Y-101786476D01*
X153570762Y-101810286D01*
X153546953Y-101834095D01*
X153523143Y-101881714D01*
X153523143Y-101976952D01*
X153546953Y-102024571D01*
X153570762Y-102048381D01*
X153618381Y-102072190D01*
X153713619Y-102072190D01*
X153761238Y-102048381D01*
X153785048Y-102024571D01*
X153808857Y-101976952D01*
X153808857Y-101881714D01*
X153785048Y-101834095D01*
X153761238Y-101810286D01*
X153713619Y-101786476D01*
X176430858Y-111026070D02*
X176430858Y-110526070D01*
X176621334Y-110526070D01*
X176668953Y-110549880D01*
X176692762Y-110573690D01*
X176716572Y-110621309D01*
X176716572Y-110692737D01*
X176692762Y-110740356D01*
X176668953Y-110764166D01*
X176621334Y-110787975D01*
X176430858Y-110787975D01*
X177192762Y-111026070D02*
X176907048Y-111026070D01*
X177049905Y-111026070D02*
X177049905Y-110526070D01*
X177002286Y-110597499D01*
X176954667Y-110645118D01*
X176907048Y-110668928D01*
X177502286Y-110526070D02*
X177549905Y-110526070D01*
X177597524Y-110549880D01*
X177621333Y-110573690D01*
X177645143Y-110621309D01*
X177668952Y-110716547D01*
X177668952Y-110835594D01*
X177645143Y-110930832D01*
X177621333Y-110978451D01*
X177597524Y-111002261D01*
X177549905Y-111026070D01*
X177502286Y-111026070D01*
X177454667Y-111002261D01*
X177430857Y-110978451D01*
X177407048Y-110930832D01*
X177383238Y-110835594D01*
X177383238Y-110716547D01*
X177407048Y-110621309D01*
X177430857Y-110573690D01*
X177454667Y-110549880D01*
X177502286Y-110526070D01*
X156744858Y-127276190D02*
X156744858Y-126776190D01*
X156935334Y-126776190D01*
X156982953Y-126800000D01*
X157006762Y-126823810D01*
X157030572Y-126871429D01*
X157030572Y-126942857D01*
X157006762Y-126990476D01*
X156982953Y-127014286D01*
X156935334Y-127038095D01*
X156744858Y-127038095D01*
X157506762Y-127276190D02*
X157221048Y-127276190D01*
X157363905Y-127276190D02*
X157363905Y-126776190D01*
X157316286Y-126847619D01*
X157268667Y-126895238D01*
X157221048Y-126919048D01*
X157982952Y-127276190D02*
X157697238Y-127276190D01*
X157840095Y-127276190D02*
X157840095Y-126776190D01*
X157792476Y-126847619D01*
X157744857Y-126895238D01*
X157697238Y-126919048D01*
X142392858Y-128026190D02*
X142392858Y-127526190D01*
X142583334Y-127526190D01*
X142630953Y-127550000D01*
X142654762Y-127573810D01*
X142678572Y-127621429D01*
X142678572Y-127692857D01*
X142654762Y-127740476D01*
X142630953Y-127764286D01*
X142583334Y-127788095D01*
X142392858Y-127788095D01*
X143154762Y-128026190D02*
X142869048Y-128026190D01*
X143011905Y-128026190D02*
X143011905Y-127526190D01*
X142964286Y-127597619D01*
X142916667Y-127645238D01*
X142869048Y-127669048D01*
X143345238Y-127573810D02*
X143369048Y-127550000D01*
X143416667Y-127526190D01*
X143535714Y-127526190D01*
X143583333Y-127550000D01*
X143607143Y-127573810D01*
X143630952Y-127621429D01*
X143630952Y-127669048D01*
X143607143Y-127740476D01*
X143321429Y-128026190D01*
X143630952Y-128026190D01*
X176092858Y-122926070D02*
X176092858Y-122426070D01*
X176283334Y-122426070D01*
X176330953Y-122449880D01*
X176354762Y-122473690D01*
X176378572Y-122521309D01*
X176378572Y-122592737D01*
X176354762Y-122640356D01*
X176330953Y-122664166D01*
X176283334Y-122687975D01*
X176092858Y-122687975D01*
X176854762Y-122926070D02*
X176569048Y-122926070D01*
X176711905Y-122926070D02*
X176711905Y-122426070D01*
X176664286Y-122497499D01*
X176616667Y-122545118D01*
X176569048Y-122568928D01*
X177021429Y-122426070D02*
X177330952Y-122426070D01*
X177164286Y-122616547D01*
X177235714Y-122616547D01*
X177283333Y-122640356D01*
X177307143Y-122664166D01*
X177330952Y-122711785D01*
X177330952Y-122830832D01*
X177307143Y-122878451D01*
X177283333Y-122902261D01*
X177235714Y-122926070D01*
X177092857Y-122926070D01*
X177045238Y-122902261D01*
X177021429Y-122878451D01*
X142226190Y-107407142D02*
X141726190Y-107407142D01*
X141726190Y-107216666D01*
X141750000Y-107169047D01*
X141773810Y-107145238D01*
X141821429Y-107121428D01*
X141892857Y-107121428D01*
X141940476Y-107145238D01*
X141964286Y-107169047D01*
X141988095Y-107216666D01*
X141988095Y-107407142D01*
X142226190Y-106645238D02*
X142226190Y-106930952D01*
X142226190Y-106788095D02*
X141726190Y-106788095D01*
X141797619Y-106835714D01*
X141845238Y-106883333D01*
X141869048Y-106930952D01*
X141892857Y-106216667D02*
X142226190Y-106216667D01*
X141702381Y-106335714D02*
X142059524Y-106454762D01*
X142059524Y-106145238D01*
X176176858Y-115598070D02*
X176176858Y-115098070D01*
X176367334Y-115098070D01*
X176414953Y-115121880D01*
X176438762Y-115145690D01*
X176462572Y-115193309D01*
X176462572Y-115264737D01*
X176438762Y-115312356D01*
X176414953Y-115336166D01*
X176367334Y-115359975D01*
X176176858Y-115359975D01*
X176938762Y-115598070D02*
X176653048Y-115598070D01*
X176795905Y-115598070D02*
X176795905Y-115098070D01*
X176748286Y-115169499D01*
X176700667Y-115217118D01*
X176653048Y-115240928D01*
X177391143Y-115098070D02*
X177153048Y-115098070D01*
X177129238Y-115336166D01*
X177153048Y-115312356D01*
X177200667Y-115288547D01*
X177319714Y-115288547D01*
X177367333Y-115312356D01*
X177391143Y-115336166D01*
X177414952Y-115383785D01*
X177414952Y-115502832D01*
X177391143Y-115550451D01*
X177367333Y-115574261D01*
X177319714Y-115598070D01*
X177200667Y-115598070D01*
X177153048Y-115574261D01*
X177129238Y-115550451D01*
X154466190Y-127115047D02*
X153966190Y-127115047D01*
X153966190Y-126996000D01*
X153990000Y-126924571D01*
X154037619Y-126876952D01*
X154085238Y-126853143D01*
X154180476Y-126829333D01*
X154251905Y-126829333D01*
X154347143Y-126853143D01*
X154394762Y-126876952D01*
X154442381Y-126924571D01*
X154466190Y-126996000D01*
X154466190Y-127115047D01*
X154466190Y-126353143D02*
X154466190Y-126638857D01*
X154466190Y-126496000D02*
X153966190Y-126496000D01*
X154037619Y-126543619D01*
X154085238Y-126591238D01*
X154109048Y-126638857D01*
X177126190Y-103369047D02*
X176626190Y-103369047D01*
X176626190Y-103250000D01*
X176650000Y-103178571D01*
X176697619Y-103130952D01*
X176745238Y-103107143D01*
X176840476Y-103083333D01*
X176911905Y-103083333D01*
X177007143Y-103107143D01*
X177054762Y-103130952D01*
X177102381Y-103178571D01*
X177126190Y-103250000D01*
X177126190Y-103369047D01*
X176673810Y-102892857D02*
X176650000Y-102869047D01*
X176626190Y-102821428D01*
X176626190Y-102702381D01*
X176650000Y-102654762D01*
X176673810Y-102630952D01*
X176721429Y-102607143D01*
X176769048Y-102607143D01*
X176840476Y-102630952D01*
X177126190Y-102916666D01*
X177126190Y-102607143D01*
X174414667Y-94422090D02*
X174176572Y-94422090D01*
X174176572Y-93922090D01*
X174557524Y-93969710D02*
X174581334Y-93945900D01*
X174628953Y-93922090D01*
X174748000Y-93922090D01*
X174795619Y-93945900D01*
X174819429Y-93969710D01*
X174843238Y-94017329D01*
X174843238Y-94064948D01*
X174819429Y-94136376D01*
X174533715Y-94422090D01*
X174843238Y-94422090D01*
X172232474Y-90586536D02*
X172232474Y-90205584D01*
X172422950Y-90396060D02*
X172041998Y-90396060D01*
X149870290Y-126067333D02*
X149870290Y-126305428D01*
X149370290Y-126305428D01*
X149370290Y-125948285D02*
X149370290Y-125638762D01*
X149560767Y-125805428D01*
X149560767Y-125734000D01*
X149584576Y-125686381D01*
X149608386Y-125662571D01*
X149656005Y-125638762D01*
X149775052Y-125638762D01*
X149822671Y-125662571D01*
X149846481Y-125686381D01*
X149870290Y-125734000D01*
X149870290Y-125876857D01*
X149846481Y-125924476D01*
X149822671Y-125948285D01*
X153253464Y-123718474D02*
X153634416Y-123718474D01*
X153443940Y-123908950D02*
X153443940Y-123527998D01*
X173533571Y-102937428D02*
X173557381Y-102961238D01*
X173581190Y-103032666D01*
X173581190Y-103080285D01*
X173557381Y-103151714D01*
X173509762Y-103199333D01*
X173462143Y-103223142D01*
X173366905Y-103246952D01*
X173295476Y-103246952D01*
X173200238Y-103223142D01*
X173152619Y-103199333D01*
X173105000Y-103151714D01*
X173081190Y-103080285D01*
X173081190Y-103032666D01*
X173105000Y-102961238D01*
X173128810Y-102937428D01*
X173581190Y-102461238D02*
X173581190Y-102746952D01*
X173581190Y-102604095D02*
X173081190Y-102604095D01*
X173152619Y-102651714D01*
X173200238Y-102699333D01*
X173224048Y-102746952D01*
X173247857Y-102032667D02*
X173581190Y-102032667D01*
X173057381Y-102151714D02*
X173414524Y-102270762D01*
X173414524Y-101961238D01*
X175446572Y-112573571D02*
X175422762Y-112597381D01*
X175351334Y-112621190D01*
X175303715Y-112621190D01*
X175232286Y-112597381D01*
X175184667Y-112549762D01*
X175160858Y-112502143D01*
X175137048Y-112406905D01*
X175137048Y-112335476D01*
X175160858Y-112240238D01*
X175184667Y-112192619D01*
X175232286Y-112145000D01*
X175303715Y-112121190D01*
X175351334Y-112121190D01*
X175422762Y-112145000D01*
X175446572Y-112168810D01*
X175922762Y-112621190D02*
X175637048Y-112621190D01*
X175779905Y-112621190D02*
X175779905Y-112121190D01*
X175732286Y-112192619D01*
X175684667Y-112240238D01*
X175637048Y-112264048D01*
X176375143Y-112121190D02*
X176137048Y-112121190D01*
X176113238Y-112359286D01*
X176137048Y-112335476D01*
X176184667Y-112311667D01*
X176303714Y-112311667D01*
X176351333Y-112335476D01*
X176375143Y-112359286D01*
X176398952Y-112406905D01*
X176398952Y-112525952D01*
X176375143Y-112573571D01*
X176351333Y-112597381D01*
X176303714Y-112621190D01*
X176184667Y-112621190D01*
X176137048Y-112597381D01*
X176113238Y-112573571D01*
X162678572Y-109878571D02*
X162654762Y-109902381D01*
X162583334Y-109926190D01*
X162535715Y-109926190D01*
X162464286Y-109902381D01*
X162416667Y-109854762D01*
X162392858Y-109807143D01*
X162369048Y-109711905D01*
X162369048Y-109640476D01*
X162392858Y-109545238D01*
X162416667Y-109497619D01*
X162464286Y-109450000D01*
X162535715Y-109426190D01*
X162583334Y-109426190D01*
X162654762Y-109450000D01*
X162678572Y-109473810D01*
X163154762Y-109926190D02*
X162869048Y-109926190D01*
X163011905Y-109926190D02*
X163011905Y-109426190D01*
X162964286Y-109497619D01*
X162916667Y-109545238D01*
X162869048Y-109569048D01*
X163464286Y-109426190D02*
X163511905Y-109426190D01*
X163559524Y-109450000D01*
X163583333Y-109473810D01*
X163607143Y-109521429D01*
X163630952Y-109616667D01*
X163630952Y-109735714D01*
X163607143Y-109830952D01*
X163583333Y-109878571D01*
X163559524Y-109902381D01*
X163511905Y-109926190D01*
X163464286Y-109926190D01*
X163416667Y-109902381D01*
X163392857Y-109878571D01*
X163369048Y-109830952D01*
X163345238Y-109735714D01*
X163345238Y-109616667D01*
X163369048Y-109521429D01*
X163392857Y-109473810D01*
X163416667Y-109450000D01*
X163464286Y-109426190D01*
X169478572Y-116726190D02*
X169311905Y-116488095D01*
X169192858Y-116726190D02*
X169192858Y-116226190D01*
X169383334Y-116226190D01*
X169430953Y-116250000D01*
X169454762Y-116273810D01*
X169478572Y-116321429D01*
X169478572Y-116392857D01*
X169454762Y-116440476D01*
X169430953Y-116464286D01*
X169383334Y-116488095D01*
X169192858Y-116488095D01*
X169954762Y-116726190D02*
X169669048Y-116726190D01*
X169811905Y-116726190D02*
X169811905Y-116226190D01*
X169764286Y-116297619D01*
X169716667Y-116345238D01*
X169669048Y-116369048D01*
X170121429Y-116226190D02*
X170454762Y-116226190D01*
X170240476Y-116726190D01*
X142003571Y-94483333D02*
X142027381Y-94507143D01*
X142051190Y-94578571D01*
X142051190Y-94626190D01*
X142027381Y-94697619D01*
X141979762Y-94745238D01*
X141932143Y-94769047D01*
X141836905Y-94792857D01*
X141765476Y-94792857D01*
X141670238Y-94769047D01*
X141622619Y-94745238D01*
X141575000Y-94697619D01*
X141551190Y-94626190D01*
X141551190Y-94578571D01*
X141575000Y-94507143D01*
X141598810Y-94483333D01*
X141765476Y-94197619D02*
X141741667Y-94245238D01*
X141717857Y-94269047D01*
X141670238Y-94292857D01*
X141646429Y-94292857D01*
X141598810Y-94269047D01*
X141575000Y-94245238D01*
X141551190Y-94197619D01*
X141551190Y-94102381D01*
X141575000Y-94054762D01*
X141598810Y-94030952D01*
X141646429Y-94007143D01*
X141670238Y-94007143D01*
X141717857Y-94030952D01*
X141741667Y-94054762D01*
X141765476Y-94102381D01*
X141765476Y-94197619D01*
X141789286Y-94245238D01*
X141813095Y-94269047D01*
X141860714Y-94292857D01*
X141955952Y-94292857D01*
X142003571Y-94269047D01*
X142027381Y-94245238D01*
X142051190Y-94197619D01*
X142051190Y-94102381D01*
X142027381Y-94054762D01*
X142003571Y-94030952D01*
X141955952Y-94007143D01*
X141860714Y-94007143D01*
X141813095Y-94030952D01*
X141789286Y-94054762D01*
X141765476Y-94102381D01*
X160630953Y-103726190D02*
X160630953Y-103226190D01*
X160821429Y-103226190D01*
X160869048Y-103250000D01*
X160892857Y-103273810D01*
X160916667Y-103321429D01*
X160916667Y-103392857D01*
X160892857Y-103440476D01*
X160869048Y-103464286D01*
X160821429Y-103488095D01*
X160630953Y-103488095D01*
X161083334Y-103226190D02*
X161392857Y-103226190D01*
X161226191Y-103416667D01*
X161297619Y-103416667D01*
X161345238Y-103440476D01*
X161369048Y-103464286D01*
X161392857Y-103511905D01*
X161392857Y-103630952D01*
X161369048Y-103678571D01*
X161345238Y-103702381D01*
X161297619Y-103726190D01*
X161154762Y-103726190D01*
X161107143Y-103702381D01*
X161083334Y-103678571D01*
X152758190Y-93793428D02*
X152520095Y-93960095D01*
X152758190Y-94079142D02*
X152258190Y-94079142D01*
X152258190Y-93888666D01*
X152282000Y-93841047D01*
X152305810Y-93817238D01*
X152353429Y-93793428D01*
X152424857Y-93793428D01*
X152472476Y-93817238D01*
X152496286Y-93841047D01*
X152520095Y-93888666D01*
X152520095Y-94079142D01*
X152305810Y-93602952D02*
X152282000Y-93579142D01*
X152258190Y-93531523D01*
X152258190Y-93412476D01*
X152282000Y-93364857D01*
X152305810Y-93341047D01*
X152353429Y-93317238D01*
X152401048Y-93317238D01*
X152472476Y-93341047D01*
X152758190Y-93626761D01*
X152758190Y-93317238D01*
X152258190Y-92864857D02*
X152258190Y-93102952D01*
X152496286Y-93126762D01*
X152472476Y-93102952D01*
X152448667Y-93055333D01*
X152448667Y-92936286D01*
X152472476Y-92888667D01*
X152496286Y-92864857D01*
X152543905Y-92841048D01*
X152662952Y-92841048D01*
X152710571Y-92864857D01*
X152734381Y-92888667D01*
X152758190Y-92936286D01*
X152758190Y-93055333D01*
X152734381Y-93102952D01*
X152710571Y-93126762D01*
X162190953Y-88359110D02*
X162190953Y-87859110D01*
X162381429Y-87859110D01*
X162429048Y-87882920D01*
X162452857Y-87906730D01*
X162476667Y-87954349D01*
X162476667Y-88025777D01*
X162452857Y-88073396D01*
X162429048Y-88097206D01*
X162381429Y-88121015D01*
X162190953Y-88121015D01*
X162714762Y-88359110D02*
X162810000Y-88359110D01*
X162857619Y-88335301D01*
X162881429Y-88311491D01*
X162929048Y-88240063D01*
X162952857Y-88144825D01*
X162952857Y-87954349D01*
X162929048Y-87906730D01*
X162905238Y-87882920D01*
X162857619Y-87859110D01*
X162762381Y-87859110D01*
X162714762Y-87882920D01*
X162690953Y-87906730D01*
X162667143Y-87954349D01*
X162667143Y-88073396D01*
X162690953Y-88121015D01*
X162714762Y-88144825D01*
X162762381Y-88168634D01*
X162857619Y-88168634D01*
X162905238Y-88144825D01*
X162929048Y-88121015D01*
X162952857Y-88073396D01*
X161929048Y-99860610D02*
X161929048Y-100265372D01*
X161952857Y-100312991D01*
X161976667Y-100336801D01*
X162024286Y-100360610D01*
X162119524Y-100360610D01*
X162167143Y-100336801D01*
X162190952Y-100312991D01*
X162214762Y-100265372D01*
X162214762Y-99860610D01*
X162429048Y-100336801D02*
X162500477Y-100360610D01*
X162619524Y-100360610D01*
X162667143Y-100336801D01*
X162690953Y-100312991D01*
X162714762Y-100265372D01*
X162714762Y-100217753D01*
X162690953Y-100170134D01*
X162667143Y-100146325D01*
X162619524Y-100122515D01*
X162524286Y-100098706D01*
X162476667Y-100074896D01*
X162452858Y-100051087D01*
X162429048Y-100003468D01*
X162429048Y-99955849D01*
X162452858Y-99908230D01*
X162476667Y-99884420D01*
X162524286Y-99860610D01*
X162643334Y-99860610D01*
X162714762Y-99884420D01*
X163095714Y-100098706D02*
X163167143Y-100122515D01*
X163190952Y-100146325D01*
X163214762Y-100193944D01*
X163214762Y-100265372D01*
X163190952Y-100312991D01*
X163167143Y-100336801D01*
X163119524Y-100360610D01*
X162929048Y-100360610D01*
X162929048Y-99860610D01*
X163095714Y-99860610D01*
X163143333Y-99884420D01*
X163167143Y-99908230D01*
X163190952Y-99955849D01*
X163190952Y-100003468D01*
X163167143Y-100051087D01*
X163143333Y-100074896D01*
X163095714Y-100098706D01*
X162929048Y-100098706D01*
D11*
X142461905Y-101352381D02*
X142461905Y-100352381D01*
X142842858Y-100352381D01*
X142938096Y-100400000D01*
X142985715Y-100447619D01*
X143033334Y-100542857D01*
X143033334Y-100685714D01*
X142985715Y-100780952D01*
X142938096Y-100828571D01*
X142842858Y-100876190D01*
X142461905Y-100876190D01*
X143938096Y-100352381D02*
X143461905Y-100352381D01*
X143414286Y-100828571D01*
X143461905Y-100780952D01*
X143557143Y-100733333D01*
X143795239Y-100733333D01*
X143890477Y-100780952D01*
X143938096Y-100828571D01*
X143985715Y-100923810D01*
X143985715Y-101161905D01*
X143938096Y-101257143D01*
X143890477Y-101304762D01*
X143795239Y-101352381D01*
X143557143Y-101352381D01*
X143461905Y-101304762D01*
X143414286Y-101257143D01*
D13*
X143252381Y-106642857D02*
X142776190Y-106976191D01*
X143252381Y-107214286D02*
X142252381Y-107214286D01*
X142252381Y-106833333D01*
X142300000Y-106738095D01*
X142347619Y-106690476D01*
X142442857Y-106642857D01*
X142585714Y-106642857D01*
X142680952Y-106690476D01*
X142728571Y-106738095D01*
X142776190Y-106833333D01*
X142776190Y-107214286D01*
X142347619Y-106261905D02*
X142300000Y-106214286D01*
X142252381Y-106119048D01*
X142252381Y-105880952D01*
X142300000Y-105785714D01*
X142347619Y-105738095D01*
X142442857Y-105690476D01*
X142538095Y-105690476D01*
X142680952Y-105738095D01*
X143252381Y-106309524D01*
X143252381Y-105690476D01*
X142252381Y-104833333D02*
X142252381Y-105023810D01*
X142300000Y-105119048D01*
X142347619Y-105166667D01*
X142490476Y-105261905D01*
X142680952Y-105309524D01*
X143061905Y-105309524D01*
X143157143Y-105261905D01*
X143204762Y-105214286D01*
X143252381Y-105119048D01*
X143252381Y-104928571D01*
X143204762Y-104833333D01*
X143157143Y-104785714D01*
X143061905Y-104738095D01*
X142823810Y-104738095D01*
X142728571Y-104785714D01*
X142680952Y-104833333D01*
X142633333Y-104928571D01*
X142633333Y-105119048D01*
X142680952Y-105214286D01*
X142728571Y-105261905D01*
X142823810Y-105309524D01*
X143657143Y-112752381D02*
X143323809Y-112276190D01*
X143085714Y-112752381D02*
X143085714Y-111752381D01*
X143466667Y-111752381D01*
X143561905Y-111800000D01*
X143609524Y-111847619D01*
X143657143Y-111942857D01*
X143657143Y-112085714D01*
X143609524Y-112180952D01*
X143561905Y-112228571D01*
X143466667Y-112276190D01*
X143085714Y-112276190D01*
X144038095Y-111847619D02*
X144085714Y-111800000D01*
X144180952Y-111752381D01*
X144419048Y-111752381D01*
X144514286Y-111800000D01*
X144561905Y-111847619D01*
X144609524Y-111942857D01*
X144609524Y-112038095D01*
X144561905Y-112180952D01*
X143990476Y-112752381D01*
X144609524Y-112752381D01*
X144942857Y-111752381D02*
X145609524Y-111752381D01*
X145180952Y-112752381D01*
X148952381Y-109442857D02*
X148476190Y-109776191D01*
X148952381Y-110014286D02*
X147952381Y-110014286D01*
X147952381Y-109633333D01*
X148000000Y-109538095D01*
X148047619Y-109490476D01*
X148142857Y-109442857D01*
X148285714Y-109442857D01*
X148380952Y-109490476D01*
X148428571Y-109538095D01*
X148476190Y-109633333D01*
X148476190Y-110014286D01*
X148047619Y-109061905D02*
X148000000Y-109014286D01*
X147952381Y-108919048D01*
X147952381Y-108680952D01*
X148000000Y-108585714D01*
X148047619Y-108538095D01*
X148142857Y-108490476D01*
X148238095Y-108490476D01*
X148380952Y-108538095D01*
X148952381Y-109109524D01*
X148952381Y-108490476D01*
X148380952Y-107919048D02*
X148333333Y-108014286D01*
X148285714Y-108061905D01*
X148190476Y-108109524D01*
X148142857Y-108109524D01*
X148047619Y-108061905D01*
X148000000Y-108014286D01*
X147952381Y-107919048D01*
X147952381Y-107728571D01*
X148000000Y-107633333D01*
X148047619Y-107585714D01*
X148142857Y-107538095D01*
X148190476Y-107538095D01*
X148285714Y-107585714D01*
X148333333Y-107633333D01*
X148380952Y-107728571D01*
X148380952Y-107919048D01*
X148428571Y-108014286D01*
X148476190Y-108061905D01*
X148571429Y-108109524D01*
X148761905Y-108109524D01*
X148857143Y-108061905D01*
X148904762Y-108014286D01*
X148952381Y-107919048D01*
X148952381Y-107728571D01*
X148904762Y-107633333D01*
X148857143Y-107585714D01*
X148761905Y-107538095D01*
X148571429Y-107538095D01*
X148476190Y-107585714D01*
X148428571Y-107633333D01*
X148380952Y-107728571D01*
D11*
X160504762Y-125347619D02*
X160409524Y-125300000D01*
X160314286Y-125204762D01*
X160171429Y-125061905D01*
X160076190Y-125014286D01*
X159980952Y-125014286D01*
X160028571Y-125252381D02*
X159933333Y-125204762D01*
X159838095Y-125109524D01*
X159790476Y-124919048D01*
X159790476Y-124585714D01*
X159838095Y-124395238D01*
X159933333Y-124300000D01*
X160028571Y-124252381D01*
X160219048Y-124252381D01*
X160314286Y-124300000D01*
X160409524Y-124395238D01*
X160457143Y-124585714D01*
X160457143Y-124919048D01*
X160409524Y-125109524D01*
X160314286Y-125204762D01*
X160219048Y-125252381D01*
X160028571Y-125252381D01*
X161361905Y-124252381D02*
X160885714Y-124252381D01*
X160838095Y-124728571D01*
X160885714Y-124680952D01*
X160980952Y-124633333D01*
X161219048Y-124633333D01*
X161314286Y-124680952D01*
X161361905Y-124728571D01*
X161409524Y-124823810D01*
X161409524Y-125061905D01*
X161361905Y-125157143D01*
X161314286Y-125204762D01*
X161219048Y-125252381D01*
X160980952Y-125252381D01*
X160885714Y-125204762D01*
X160838095Y-125157143D01*
X164237143Y-118442381D02*
X163903809Y-117966190D01*
X163665714Y-118442381D02*
X163665714Y-117442381D01*
X164046667Y-117442381D01*
X164141905Y-117490000D01*
X164189524Y-117537619D01*
X164237143Y-117632857D01*
X164237143Y-117775714D01*
X164189524Y-117870952D01*
X164141905Y-117918571D01*
X164046667Y-117966190D01*
X163665714Y-117966190D01*
X164618095Y-117537619D02*
X164665714Y-117490000D01*
X164760952Y-117442381D01*
X164999048Y-117442381D01*
X165094286Y-117490000D01*
X165141905Y-117537619D01*
X165189524Y-117632857D01*
X165189524Y-117728095D01*
X165141905Y-117870952D01*
X164570476Y-118442381D01*
X165189524Y-118442381D01*
X166141905Y-118442381D02*
X165570476Y-118442381D01*
X165856190Y-118442381D02*
X165856190Y-117442381D01*
X165760952Y-117585238D01*
X165665714Y-117680476D01*
X165570476Y-117728095D01*
M02*
