M48
;DRILL file {KiCad 4.0.2+dfsg1-stable} date Пт 27 янв 2017 14:33:53
;FORMAT={-:-/ absolute / metric / decimal}
FMAT,2
METRIC,TZ
T1C0.400
T2C0.899
%
G90
G05
M71
T1
X141.6Y-93.2
X145.2Y-108.4
X146.65Y-97.8
X146.939Y-100.838
X147.701Y-117.221
X147.8Y-91.7
X148.2Y-111.4
X148.75Y-96.
X149.098Y-100.076
X149.2Y-112.2
X150.65Y-104.3
X151.45Y-94.3
X152.Y-110.5
X152.146Y-115.443
X152.55Y-109.6
X152.7Y-93.4
X152.9Y-105.75
X153.162Y-110.49
X153.289Y-117.221
X154.218Y-111.126
X154.432Y-91.44
X154.65Y-116.45
X155.067Y-98.171
X155.194Y-105.664
X155.194Y-106.807
X156.Y-102.45
X156.05Y-99.6
X156.2Y-111.1
X156.65Y-114.65
X157.97Y-124.28
X158.Y-107.05
X158.05Y-108.05
X158.5Y-113.1
X158.75Y-112.1
X158.97Y-119.95
X159.258Y-103.886
X160.4Y-98.05
X160.4Y-117.1
X161.29Y-96.266
X161.4Y-115.25
X162.15Y-120.
X162.4Y-110.25
X163.576Y-96.012
X163.75Y-109.9
X163.85Y-113.45
X164.2Y-114.8
X164.592Y-103.378
X165.227Y-114.808
X166.5Y-110.2
X167.386Y-101.6
X167.386Y-106.172
X167.45Y-119.3
X168.91Y-113.284
X169.291Y-114.554
X170.434Y-114.554
X170.815Y-92.329
X171.069Y-110.617
X171.45Y-113.284
X173.482Y-105.156
X173.736Y-112.649
T2
X160.36Y-95.606
X164.757Y-95.606
T0
M30
