G04 #@! TF.FileFunction,Copper,L2,Bot,Signal*
%FSLAX46Y46*%
G04 Gerber Fmt 4.6, Leading zero omitted, Abs format (unit mm)*
G04 Created by KiCad (PCBNEW 4.0.2+dfsg1-stable) date Пн 23 янв 2017 07:27:42*
%MOMM*%
G01*
G04 APERTURE LIST*
%ADD10C,0.100000*%
%ADD11C,0.150000*%
%ADD12R,4.064000X4.064000*%
%ADD13R,1.300000X0.700000*%
%ADD14R,0.500000X0.900000*%
%ADD15R,0.700000X1.300000*%
%ADD16R,0.900000X0.500000*%
%ADD17C,0.800000*%
%ADD18C,0.400000*%
%ADD19C,0.200000*%
G04 APERTURE END LIST*
D10*
D11*
X179200000Y-90400000D02*
X140800000Y-90400000D01*
X179200000Y-130200000D02*
X179200000Y-90400000D01*
X140800000Y-130200000D02*
X179200000Y-130200000D01*
X140800000Y-90400000D02*
X140800000Y-130200000D01*
D12*
X143764000Y-96012000D03*
D13*
X162400000Y-113150000D03*
X162400000Y-111250000D03*
D12*
X164084000Y-106680000D03*
D14*
X165550000Y-112200000D03*
X164050000Y-112200000D03*
X158000000Y-117602000D03*
X159500000Y-117602000D03*
X165330000Y-117260000D03*
X163830000Y-117260000D03*
X163310000Y-94742000D03*
X161810000Y-94742000D03*
D13*
X147750000Y-97550000D03*
X147750000Y-95650000D03*
D15*
X149450000Y-95980000D03*
X151350000Y-95980000D03*
X158303000Y-100876100D03*
X156403000Y-100876100D03*
X156600000Y-117650000D03*
X154700000Y-117650000D03*
X150850000Y-101800000D03*
X152750000Y-101800000D03*
D13*
X154940000Y-110170000D03*
X154940000Y-108270000D03*
X158550000Y-114250000D03*
X158550000Y-116150000D03*
D15*
X148250000Y-93400000D03*
X150150000Y-93400000D03*
D13*
X152850000Y-108600000D03*
X152850000Y-106700000D03*
D14*
X169152000Y-104140000D03*
X167652000Y-104140000D03*
D12*
X143800000Y-117600000D03*
X176800000Y-117800000D03*
X176800000Y-96200000D03*
D16*
X156750000Y-108550000D03*
X156750000Y-107050000D03*
D14*
X161800000Y-92340000D03*
X163300000Y-92340000D03*
D16*
X162600000Y-114450000D03*
X162600000Y-115950000D03*
D17*
X157970000Y-124280000D03*
X167450000Y-119300000D03*
X155067000Y-98171000D03*
X151450000Y-94300000D03*
X171450000Y-113284000D03*
X152146000Y-115443000D03*
X146939000Y-100838000D03*
X166500000Y-110200000D03*
X156200000Y-111100000D03*
X158750000Y-112100000D03*
X163850000Y-113450000D03*
X152900000Y-105750000D03*
X161290000Y-96266000D03*
X160400000Y-98050000D03*
X141600000Y-93200000D03*
X152700000Y-93400000D03*
X147800000Y-91700000D03*
X147701000Y-117221000D03*
X153289000Y-117221000D03*
X165227000Y-114808000D03*
X173736000Y-112649000D03*
X158970000Y-119950000D03*
X150650000Y-104300000D03*
X149098000Y-100076000D03*
X154218156Y-111125956D03*
X158500000Y-113100000D03*
X152550000Y-109600000D03*
X146650000Y-97800000D03*
X170815000Y-92329000D03*
X154650000Y-116450000D03*
X162400000Y-110250000D03*
X156050000Y-99600000D03*
X163576000Y-96012000D03*
X152000000Y-110500000D03*
X153162000Y-110490000D03*
X155194000Y-106807000D03*
X158050000Y-108050000D03*
X156000000Y-102450000D03*
X173482000Y-105156000D03*
X148750000Y-96000000D03*
X155194000Y-105664000D03*
X164200000Y-114800000D03*
X168910000Y-113284000D03*
X158000000Y-107050000D03*
X161400000Y-115250000D03*
X169291000Y-114554000D03*
X167386000Y-101600000D03*
X148200000Y-111400000D03*
X159258000Y-103886000D03*
X164592000Y-103378000D03*
X170434000Y-114554000D03*
X171069000Y-110617000D03*
X167386000Y-106172000D03*
X156650000Y-114650000D03*
X160400000Y-117100000D03*
X163750000Y-109900000D03*
X154432000Y-91440000D03*
X149200000Y-112200000D03*
X145200000Y-108400000D03*
X162150000Y-120000000D03*
D18*
X158000000Y-117602000D02*
X158000000Y-124250000D01*
X158000000Y-124250000D02*
X157970000Y-124280000D01*
X152750000Y-101800000D02*
X152750000Y-100488000D01*
X152750000Y-100488000D02*
X155067000Y-98171000D01*
X155067000Y-98171000D02*
X155188000Y-98050000D01*
X160400000Y-98050000D02*
X155188000Y-98050000D01*
X151450000Y-94300000D02*
X151450000Y-95880000D01*
X151450000Y-95880000D02*
X151350000Y-95980000D01*
X150150000Y-93400000D02*
X150550000Y-93400000D01*
X150550000Y-93400000D02*
X151450000Y-94300000D01*
X152750000Y-101800000D02*
X152727000Y-101800000D01*
X152727000Y-101800000D02*
X150227002Y-99300002D01*
X158300000Y-98050000D02*
X158300000Y-100873100D01*
X158300000Y-100873100D02*
X158303000Y-100876100D01*
X153000000Y-102050000D02*
X152750000Y-101800000D01*
X150150000Y-93400000D02*
X150150000Y-93800000D01*
D19*
X152750000Y-101800000D02*
X152781000Y-101854000D01*
X152781000Y-101854000D02*
X150241000Y-99314000D01*
X160400000Y-98050000D02*
X158300000Y-98050000D01*
X158300000Y-100873100D02*
X158303000Y-100876100D01*
X152750000Y-101800000D02*
X152750000Y-100488000D01*
X150150000Y-93800000D02*
X150150000Y-93850000D01*
X152750000Y-101950000D02*
X152750000Y-101800000D01*
D18*
X167450000Y-119300000D02*
X167720000Y-119300000D01*
X171450000Y-113284000D02*
X171450000Y-116332000D01*
X171450000Y-116332000D02*
X168482000Y-119300000D01*
X168482000Y-119300000D02*
X167720000Y-119300000D01*
X158550000Y-116150000D02*
X156900000Y-116150000D01*
X155525000Y-114775000D02*
X155525000Y-111775000D01*
X156900000Y-116150000D02*
X155525000Y-114775000D01*
X152146000Y-115443000D02*
X152146000Y-115154000D01*
X152146000Y-115154000D02*
X154050000Y-113250000D01*
X154050000Y-113250000D02*
X155525000Y-111775000D01*
X156700000Y-117000000D02*
X156700000Y-116949000D01*
X156700000Y-116949000D02*
X155194000Y-115443000D01*
X155194000Y-115443000D02*
X152146000Y-115443000D01*
X158000000Y-117602000D02*
X157302000Y-117602000D01*
X157302000Y-117602000D02*
X156700000Y-117000000D01*
D19*
X156700000Y-117000000D02*
X156718000Y-116967000D01*
X156718000Y-116967000D02*
X155194000Y-115443000D01*
X155194000Y-115443000D02*
X152146000Y-115443000D01*
D18*
X150227002Y-99300002D02*
X149900000Y-99300002D01*
D19*
X146939000Y-100838000D02*
X146939000Y-100761000D01*
X149900000Y-99300000D02*
X149900000Y-99300002D01*
X149900000Y-99300002D02*
X149900000Y-99314000D01*
X148400000Y-99300000D02*
X149900000Y-99300000D01*
X146939000Y-100761000D02*
X148400000Y-99300000D01*
X150241000Y-99314000D02*
X149900000Y-99314000D01*
D18*
X163850000Y-113450000D02*
X166200000Y-113450000D01*
X166200000Y-113450000D02*
X166500000Y-113150000D01*
X166500000Y-113150000D02*
X166500000Y-110200000D01*
X166500000Y-113150000D02*
X166500000Y-110200000D01*
X163850000Y-113450000D02*
X162700000Y-113450000D01*
X162700000Y-113450000D02*
X162400000Y-113150000D01*
X162600000Y-114450000D02*
X162600000Y-113350000D01*
X162600000Y-113350000D02*
X162400000Y-113150000D01*
X164050000Y-112200000D02*
X164050000Y-113250000D01*
X164050000Y-113250000D02*
X163850000Y-113450000D01*
X152900000Y-107050000D02*
X153720000Y-107050000D01*
X153720000Y-107050000D02*
X154940000Y-108270000D01*
X152900000Y-105750000D02*
X152900000Y-106950000D01*
X152900000Y-106950000D02*
X153000000Y-107050000D01*
X155525000Y-111775000D02*
X156200000Y-111100000D01*
X158750000Y-112100000D02*
X160500000Y-112100000D01*
X160500000Y-112100000D02*
X161550000Y-113150000D01*
X161550000Y-113150000D02*
X162400000Y-113150000D01*
X153000000Y-105850000D02*
X153000000Y-102050000D01*
X152750000Y-105600000D02*
X153000000Y-105850000D01*
X153720000Y-107050000D02*
X154940000Y-108270000D01*
D19*
X162600000Y-113350000D02*
X162400000Y-113150000D01*
X161550000Y-113150000D02*
X162400000Y-113150000D01*
X160500000Y-112100000D02*
X161550000Y-113150000D01*
X155400000Y-108250000D02*
X155380000Y-108270000D01*
X155380000Y-108270000D02*
X154940000Y-108270000D01*
X152900000Y-105750000D02*
X153000000Y-105850000D01*
X153720000Y-107050000D02*
X154940000Y-108270000D01*
D18*
X161810000Y-95746000D02*
X161810000Y-94742000D01*
X161290000Y-96266000D02*
X161810000Y-95746000D01*
X147800000Y-91700000D02*
X145700000Y-91700000D01*
X144200000Y-93200000D02*
X141600000Y-93200000D01*
X145700000Y-91700000D02*
X144200000Y-93200000D01*
X152700000Y-93400000D02*
X151000000Y-91700000D01*
X151000000Y-91700000D02*
X147800000Y-91700000D01*
X147800000Y-91700000D02*
X148300000Y-92200000D01*
X148300000Y-92200000D02*
X148300000Y-93350000D01*
X148300000Y-93350000D02*
X148250000Y-93400000D01*
X147800000Y-91700000D02*
X147850000Y-91650000D01*
X147701000Y-117221000D02*
X153289000Y-117221000D01*
D19*
X147759000Y-91753000D02*
X147800000Y-91700000D01*
D18*
X173736000Y-112649000D02*
X173609000Y-112649000D01*
X173228000Y-112268000D02*
X168910000Y-112268000D01*
X173609000Y-112649000D02*
X173228000Y-112268000D01*
X165227000Y-114808000D02*
X165862000Y-114808000D01*
X168402000Y-112268000D02*
X168910000Y-112268000D01*
X165862000Y-114808000D02*
X168402000Y-112268000D01*
X158500000Y-113100000D02*
X159440000Y-113100000D01*
D19*
X159370000Y-119950000D02*
X158970000Y-119950000D01*
D18*
X161390000Y-117930000D02*
X159370000Y-119950000D01*
X161390000Y-116710000D02*
X161390000Y-117930000D01*
X160430000Y-115750000D02*
X161390000Y-116710000D01*
X160430000Y-114090000D02*
X160430000Y-115750000D01*
X159440000Y-113100000D02*
X160430000Y-114090000D01*
X151600000Y-104300000D02*
X150650000Y-104300000D01*
X152850000Y-108600000D02*
X153370000Y-108600000D01*
X151600000Y-104850000D02*
X151600000Y-107350000D01*
X151600000Y-107350000D02*
X152850000Y-108600000D01*
X150850000Y-101800000D02*
X151600000Y-102550000D01*
X151600000Y-102550000D02*
X151600000Y-104300000D01*
X151600000Y-104300000D02*
X151600000Y-104850000D01*
X149098000Y-100076000D02*
X149126000Y-100076000D01*
X149126000Y-100076000D02*
X150850000Y-101800000D01*
D19*
X150850000Y-101800000D02*
X150876000Y-101854000D01*
X150876000Y-101854000D02*
X149098000Y-100076000D01*
X151600000Y-104850000D02*
X151600000Y-102550000D01*
D18*
X153370000Y-108600000D02*
X154940000Y-110170000D01*
X152850000Y-108600000D02*
X152850000Y-109300000D01*
X152850000Y-109300000D02*
X152550000Y-109600000D01*
X158500000Y-113100000D02*
X158250000Y-113100000D01*
X157700000Y-112550000D02*
X157700000Y-111200000D01*
X158250000Y-113100000D02*
X157700000Y-112550000D01*
X158550000Y-114250000D02*
X158550000Y-113150000D01*
X158550000Y-113150000D02*
X158500000Y-113100000D01*
X154940000Y-110170000D02*
X156670000Y-110170000D01*
X156670000Y-110170000D02*
X157700000Y-111200000D01*
X154200000Y-111150000D02*
X154218156Y-111125956D01*
X154218156Y-111125956D02*
X154940000Y-110170000D01*
D19*
X154940000Y-110170000D02*
X155130000Y-110170000D01*
X155130000Y-110170000D02*
X156750000Y-108550000D01*
X157700000Y-111200000D02*
X156670000Y-110170000D01*
X154200000Y-111150000D02*
X154330000Y-111020000D01*
X154330000Y-111020000D02*
X154940000Y-110170000D01*
D18*
X146650000Y-97800000D02*
X147500000Y-97800000D01*
X147500000Y-97800000D02*
X147750000Y-97550000D01*
D19*
X146650000Y-97800000D02*
X146750000Y-97700000D01*
D18*
X163300000Y-92340000D02*
X170804000Y-92340000D01*
X170804000Y-92340000D02*
X170815000Y-92329000D01*
D19*
X163438000Y-92340000D02*
X163300000Y-92340000D01*
X154650000Y-116450000D02*
X154800000Y-116600000D01*
X154800000Y-116600000D02*
X154800000Y-117000000D01*
X162400000Y-110250000D02*
X162400000Y-111250000D01*
X156403000Y-99953000D02*
X156403000Y-100876100D01*
X156050000Y-99600000D02*
X156403000Y-99953000D01*
X163576000Y-96012000D02*
X163576000Y-95008000D01*
X163576000Y-95008000D02*
X163310000Y-94742000D01*
X163576000Y-96012000D02*
X163386000Y-95822000D01*
X163386000Y-95822000D02*
X163386000Y-95816000D01*
X152000000Y-110500000D02*
X152000000Y-110600000D01*
X142000000Y-107600000D02*
X142000000Y-100100000D01*
X147500000Y-113100000D02*
X142000000Y-107600000D01*
X149500000Y-113100000D02*
X147500000Y-113100000D01*
X152000000Y-110600000D02*
X149500000Y-113100000D01*
X142000000Y-100100000D02*
X142000000Y-97776000D01*
X142000000Y-97776000D02*
X143764000Y-96012000D01*
X143764000Y-96012000D02*
X143764000Y-97155000D01*
X153162000Y-110490000D02*
X146050000Y-117602000D01*
X146050000Y-117602000D02*
X143764000Y-117602000D01*
X143764000Y-117602000D02*
X143800000Y-117600000D01*
X158000000Y-106299000D02*
X155702000Y-106299000D01*
X155702000Y-106299000D02*
X155194000Y-106807000D01*
X164084000Y-106680000D02*
X163703000Y-106299000D01*
X163703000Y-106299000D02*
X158000000Y-106299000D01*
X177038000Y-113238000D02*
X177038000Y-117856000D01*
X175450000Y-111650000D02*
X177038000Y-113238000D01*
X170250000Y-111650000D02*
X175450000Y-111650000D01*
X167750000Y-109150000D02*
X170250000Y-111650000D01*
X159150000Y-109150000D02*
X167750000Y-109150000D01*
X158050000Y-108050000D02*
X159150000Y-109150000D01*
X169892000Y-102650000D02*
X177292000Y-95250000D01*
X156200000Y-102650000D02*
X169892000Y-102650000D01*
X156000000Y-102450000D02*
X156200000Y-102650000D01*
X169152000Y-104140000D02*
X172466000Y-104140000D01*
X172466000Y-104140000D02*
X173482000Y-105156000D01*
X148750000Y-96000000D02*
X149430000Y-96000000D01*
X149430000Y-96000000D02*
X149450000Y-95980000D01*
X147920000Y-95960000D02*
X148710000Y-95960000D01*
X148710000Y-95960000D02*
X148750000Y-96000000D01*
X167652000Y-104140000D02*
X160782000Y-104140000D01*
X160782000Y-104140000D02*
X160020000Y-104902000D01*
X155448000Y-105410000D02*
X155194000Y-105664000D01*
X159512000Y-105410000D02*
X155448000Y-105410000D01*
X160020000Y-104902000D02*
X159512000Y-105410000D01*
X165862000Y-115600000D02*
X166594000Y-115600000D01*
X164200000Y-114800000D02*
X165000000Y-115600000D01*
X165000000Y-115600000D02*
X165862000Y-115600000D01*
X166594000Y-115600000D02*
X168910000Y-113284000D01*
X158000000Y-107050000D02*
X156750000Y-107050000D01*
X158000000Y-107050000D02*
X158050000Y-107050000D01*
X162100000Y-115950000D02*
X162600000Y-115950000D01*
X161400000Y-115250000D02*
X162100000Y-115950000D01*
X169291000Y-114554000D02*
X167513000Y-116332000D01*
X167513000Y-116332000D02*
X163830000Y-116332000D01*
X163830000Y-116332000D02*
X163449000Y-115951000D01*
X163449000Y-115951000D02*
X162560000Y-115951000D01*
X162560000Y-115951000D02*
X162600000Y-115950000D01*
X148200000Y-111400000D02*
X148200000Y-108900000D01*
X148200000Y-108900000D02*
X145700000Y-106400000D01*
X145700000Y-105664000D02*
X145700000Y-106400000D01*
X152900000Y-98800000D02*
X155702000Y-95998000D01*
X147200000Y-98800000D02*
X152900000Y-98800000D01*
X145700000Y-100300000D02*
X147200000Y-98800000D01*
X145700000Y-105664000D02*
X145700000Y-100300000D01*
X157988000Y-93726000D02*
X155702000Y-96012000D01*
X155702000Y-96012000D02*
X155702000Y-95998000D01*
X166370000Y-93726000D02*
X157988000Y-93726000D01*
X167386000Y-94742000D02*
X166370000Y-93726000D01*
X167386000Y-101600000D02*
X167386000Y-94742000D01*
X168140000Y-116840000D02*
X165750000Y-116840000D01*
X165750000Y-116840000D02*
X165330000Y-117260000D01*
X159258000Y-103886000D02*
X159766000Y-103378000D01*
X159766000Y-103378000D02*
X164592000Y-103378000D01*
X168148000Y-116840000D02*
X168140000Y-116840000D01*
X170434000Y-114554000D02*
X168148000Y-116840000D01*
X167386000Y-106934000D02*
X171069000Y-110617000D01*
X167386000Y-106172000D02*
X167386000Y-106934000D01*
X159800000Y-117302000D02*
X159700000Y-117302000D01*
X159800000Y-115500000D02*
X159800000Y-117302000D01*
X159600000Y-115300000D02*
X159800000Y-115500000D01*
X157300000Y-115300000D02*
X159600000Y-115300000D01*
X156650000Y-114650000D02*
X157300000Y-115300000D01*
X159700000Y-117302000D02*
X159700000Y-117402000D01*
X159700000Y-117402000D02*
X159500000Y-117602000D01*
X160400000Y-117100000D02*
X160002000Y-117100000D01*
X160002000Y-117100000D02*
X159500000Y-117602000D01*
X165550000Y-112200000D02*
X165550000Y-112050000D01*
X165550000Y-112050000D02*
X163750000Y-110250000D01*
X163750000Y-110250000D02*
X163750000Y-109900000D01*
X161800000Y-92340000D02*
X155332000Y-92340000D01*
X155332000Y-92340000D02*
X154432000Y-91440000D01*
X149200000Y-112200000D02*
X147700000Y-112200000D01*
X147700000Y-112200000D02*
X145200000Y-109700000D01*
X145200000Y-109700000D02*
X145200000Y-108400000D01*
X163830000Y-117260000D02*
X163780000Y-117260000D01*
X163780000Y-117260000D02*
X162150000Y-118890000D01*
X162150000Y-118890000D02*
X162150000Y-120000000D01*
M02*
