G04 #@! TF.FileFunction,Soldermask,Bot*
%FSLAX46Y46*%
G04 Gerber Fmt 4.6, Leading zero omitted, Abs format (unit mm)*
G04 Created by KiCad (PCBNEW 4.0.2+dfsg1-stable) date Пн 23 янв 2017 07:27:42*
%MOMM*%
G01*
G04 APERTURE LIST*
%ADD10C,0.100000*%
%ADD11C,0.150000*%
%ADD12R,4.264000X4.264000*%
%ADD13R,1.500000X0.900000*%
%ADD14R,0.700000X1.100000*%
%ADD15R,0.900000X1.500000*%
%ADD16R,1.100000X0.700000*%
%ADD17C,1.099160*%
G04 APERTURE END LIST*
D10*
D11*
X179200000Y-90400000D02*
X140800000Y-90400000D01*
X179200000Y-130200000D02*
X179200000Y-90400000D01*
X140800000Y-130200000D02*
X179200000Y-130200000D01*
X140800000Y-90400000D02*
X140800000Y-130200000D01*
D12*
X143764000Y-96012000D03*
D13*
X162400000Y-113150000D03*
X162400000Y-111250000D03*
D12*
X164084000Y-106680000D03*
D14*
X165550000Y-112200000D03*
X164050000Y-112200000D03*
X158000000Y-117602000D03*
X159500000Y-117602000D03*
X165330000Y-117260000D03*
X163830000Y-117260000D03*
X163310000Y-94742000D03*
X161810000Y-94742000D03*
D13*
X147750000Y-97550000D03*
X147750000Y-95650000D03*
D15*
X149450000Y-95980000D03*
X151350000Y-95980000D03*
X158303000Y-100876100D03*
X156403000Y-100876100D03*
X156600000Y-117650000D03*
X154700000Y-117650000D03*
X150850000Y-101800000D03*
X152750000Y-101800000D03*
D13*
X154940000Y-110170000D03*
X154940000Y-108270000D03*
X158550000Y-114250000D03*
X158550000Y-116150000D03*
D15*
X148250000Y-93400000D03*
X150150000Y-93400000D03*
D13*
X152850000Y-108600000D03*
X152850000Y-106700000D03*
D14*
X169152000Y-104140000D03*
X167652000Y-104140000D03*
D12*
X143800000Y-117600000D03*
X176800000Y-117800000D03*
X176800000Y-96200000D03*
D16*
X156750000Y-108550000D03*
X156750000Y-107050000D03*
D14*
X161800000Y-92340000D03*
X163300000Y-92340000D03*
D17*
X164757100Y-95605600D03*
X160360360Y-95605600D03*
D16*
X162600000Y-114450000D03*
X162600000Y-115950000D03*
M02*
