G04 #@! TF.FileFunction,Copper,L2,Bot,Signal*
%FSLAX45Y45*%
G04 Gerber Fmt 4.5, Leading zero omitted, Abs format (unit mm)*
G04 Created by KiCad (PCBNEW (2015-12-04 BZR 6347, Git 4c88040)-product) date 15.04.2016 21:14:43*
%MOMM*%
G01*
G04 APERTURE LIST*
%ADD10C,0.100000*%
%ADD11C,0.150000*%
%ADD12R,4.064000X4.064000*%
%ADD13R,1.300000X0.700000*%
%ADD14R,0.500000X0.900000*%
%ADD15R,0.900000X0.500000*%
%ADD16R,0.700000X1.300000*%
%ADD17C,0.800000*%
%ADD18C,0.400000*%
%ADD19C,0.200000*%
G04 APERTURE END LIST*
D10*
D11*
X17920000Y-9040000D02*
X14080000Y-9040000D01*
X17920000Y-13020000D02*
X17920000Y-9040000D01*
X14080000Y-13020000D02*
X17920000Y-13020000D01*
X14080000Y-9040000D02*
X14080000Y-13020000D01*
D12*
X14376400Y-9601200D03*
D13*
X16240000Y-11315000D03*
X16240000Y-11125000D03*
D12*
X16408400Y-10668000D03*
D14*
X16555000Y-11220000D03*
X16405000Y-11220000D03*
X16415000Y-11930000D03*
X16565000Y-11930000D03*
X15800000Y-11760200D03*
X15950000Y-11760200D03*
D15*
X16195000Y-11710000D03*
X16195000Y-11860000D03*
D14*
X16331000Y-9474200D03*
X16181000Y-9474200D03*
D15*
X16260000Y-11445000D03*
X16260000Y-11595000D03*
D13*
X14775000Y-9755000D03*
X14775000Y-9565000D03*
D16*
X14945000Y-9598000D03*
X15135000Y-9598000D03*
X15830300Y-10087610D03*
X15640300Y-10087610D03*
X15660000Y-11765000D03*
X15470000Y-11765000D03*
X15085000Y-10180000D03*
X15275000Y-10180000D03*
D13*
X15494000Y-11017000D03*
X15494000Y-10827000D03*
X15855000Y-11425000D03*
X15855000Y-11615000D03*
D16*
X14825000Y-9340000D03*
X15015000Y-9340000D03*
D13*
X15285000Y-10860000D03*
X15285000Y-10670000D03*
D14*
X16915200Y-10414000D03*
X16765200Y-10414000D03*
D12*
X14380000Y-11760000D03*
X17680000Y-11780000D03*
X17680000Y-9620000D03*
D15*
X15675000Y-10855000D03*
X15675000Y-10705000D03*
D14*
X16180000Y-9234000D03*
X16330000Y-9234000D03*
D17*
X15506700Y-9817100D03*
X15145000Y-9430000D03*
X17145000Y-11328400D03*
X16772000Y-11930000D03*
X15214600Y-11544300D03*
X15730000Y-11935000D03*
X14693900Y-10083800D03*
X16650000Y-11020000D03*
X15620000Y-11110000D03*
X15875000Y-11210000D03*
X16385000Y-11345000D03*
X15290000Y-10575000D03*
X16129000Y-9626600D03*
X16040000Y-9805000D03*
X14160000Y-9320000D03*
X15270000Y-9340000D03*
X14780000Y-9170000D03*
X14770100Y-11722100D03*
X15328900Y-11722100D03*
X16522700Y-11480800D03*
X17373600Y-11264900D03*
X15065000Y-10430000D03*
X14909800Y-10007600D03*
X15421816Y-11112596D03*
X15850000Y-11310000D03*
X15255000Y-10960000D03*
X14665000Y-9780000D03*
X17081500Y-9232900D03*
X15465000Y-11645000D03*
X16240000Y-11025000D03*
X15605000Y-9960000D03*
X16357600Y-9601200D03*
X16155000Y-12470000D03*
X16155000Y-12020000D03*
X15200000Y-11050000D03*
X15316200Y-11049000D03*
X15519400Y-10680700D03*
X15805000Y-10805000D03*
X15600000Y-10245000D03*
X17348200Y-10515600D03*
X16415000Y-11785000D03*
X14875000Y-9600000D03*
X15519400Y-10566400D03*
X16420000Y-11480000D03*
X16891000Y-11328400D03*
X15800000Y-10705000D03*
X16080000Y-11520000D03*
X16929100Y-11455400D03*
X16738600Y-10160000D03*
X14820000Y-11140000D03*
X16738600Y-10617200D03*
X17106900Y-11061700D03*
X17043400Y-11455400D03*
X16459200Y-10337800D03*
X15925800Y-10388600D03*
X15665000Y-11465000D03*
X16040000Y-11710000D03*
X16375000Y-10990000D03*
X15443200Y-9144000D03*
X14920000Y-11220000D03*
X14520000Y-10840000D03*
D18*
X15275000Y-10180000D02*
X15275000Y-10048800D01*
X15275000Y-10048800D02*
X15506700Y-9817100D01*
X15506700Y-9817100D02*
X15518800Y-9805000D01*
X16040000Y-9805000D02*
X15518800Y-9805000D01*
X15145000Y-9430000D02*
X15145000Y-9588000D01*
X15145000Y-9588000D02*
X15135000Y-9598000D01*
X15015000Y-9340000D02*
X15055000Y-9340000D01*
X15055000Y-9340000D02*
X15145000Y-9430000D01*
X15275000Y-10180000D02*
X15272700Y-10180000D01*
X15272700Y-10180000D02*
X15022700Y-9930000D01*
X15830000Y-9805000D02*
X15830000Y-10087310D01*
X15830000Y-10087310D02*
X15830300Y-10087610D01*
X15300000Y-10205000D02*
X15275000Y-10180000D01*
X15015000Y-9340000D02*
X15015000Y-9380000D01*
D19*
X15275000Y-10180000D02*
X15278100Y-10185400D01*
X15278100Y-10185400D02*
X15024100Y-9931400D01*
X16040000Y-9805000D02*
X15830000Y-9805000D01*
X15830000Y-10087310D02*
X15830300Y-10087610D01*
X15275000Y-10180000D02*
X15275000Y-10048800D01*
X15015000Y-9380000D02*
X15015000Y-9385000D01*
X15275000Y-10195000D02*
X15275000Y-10180000D01*
D18*
X16848200Y-11930000D02*
X16772000Y-11930000D01*
X17145000Y-11633200D02*
X16848200Y-11930000D01*
X17145000Y-11328400D02*
X17145000Y-11633200D01*
X16611600Y-11930000D02*
X16772000Y-11930000D01*
X16611600Y-11930000D02*
X16565000Y-11930000D01*
X15855000Y-11615000D02*
X15690000Y-11615000D01*
X15552500Y-11477500D02*
X15552500Y-11177500D01*
X15690000Y-11615000D02*
X15552500Y-11477500D01*
X15214600Y-11544300D02*
X15214600Y-11515400D01*
X15214600Y-11515400D02*
X15405000Y-11325000D01*
X15405000Y-11325000D02*
X15552500Y-11177500D01*
X15670000Y-11700000D02*
X15670000Y-11694900D01*
X15670000Y-11694900D02*
X15519400Y-11544300D01*
X15519400Y-11544300D02*
X15214600Y-11544300D01*
X15800000Y-11760200D02*
X15730200Y-11760200D01*
X15730200Y-11760200D02*
X15670000Y-11700000D01*
X15730000Y-11935000D02*
X15800000Y-11865000D01*
X15800000Y-11865000D02*
X15800000Y-11760200D01*
D19*
X15670000Y-11700000D02*
X15671800Y-11696700D01*
X15671800Y-11696700D02*
X15519400Y-11544300D01*
X15519400Y-11544300D02*
X15214600Y-11544300D01*
X15800000Y-11760200D02*
X15800000Y-11865000D01*
D18*
X15022700Y-9930000D02*
X14990000Y-9930000D01*
D19*
X14693900Y-10083800D02*
X14693900Y-10076100D01*
X14990000Y-9930000D02*
X14990000Y-9930000D01*
X14990000Y-9930000D02*
X14990000Y-9931400D01*
X14840000Y-9930000D02*
X14990000Y-9930000D01*
X14693900Y-10076100D02*
X14840000Y-9930000D01*
X15024100Y-9931400D02*
X14990000Y-9931400D01*
D18*
X16385000Y-11345000D02*
X16620000Y-11345000D01*
X16620000Y-11345000D02*
X16650000Y-11315000D01*
X16650000Y-11315000D02*
X16650000Y-11020000D01*
X16650000Y-11315000D02*
X16650000Y-11020000D01*
X16385000Y-11345000D02*
X16270000Y-11345000D01*
X16270000Y-11345000D02*
X16240000Y-11315000D01*
X16260000Y-11445000D02*
X16260000Y-11335000D01*
X16260000Y-11335000D02*
X16240000Y-11315000D01*
X16405000Y-11220000D02*
X16405000Y-11325000D01*
X16405000Y-11325000D02*
X16385000Y-11345000D01*
X15290000Y-10705000D02*
X15372000Y-10705000D01*
X15372000Y-10705000D02*
X15494000Y-10827000D01*
X15290000Y-10575000D02*
X15290000Y-10695000D01*
X15290000Y-10695000D02*
X15300000Y-10705000D01*
X15552500Y-11177500D02*
X15620000Y-11110000D01*
X15875000Y-11210000D02*
X16050000Y-11210000D01*
X16050000Y-11210000D02*
X16155000Y-11315000D01*
X16155000Y-11315000D02*
X16240000Y-11315000D01*
X15300000Y-10585000D02*
X15300000Y-10205000D01*
X15275000Y-10560000D02*
X15300000Y-10585000D01*
X15372000Y-10705000D02*
X15494000Y-10827000D01*
D19*
X16260000Y-11335000D02*
X16240000Y-11315000D01*
X16155000Y-11315000D02*
X16240000Y-11315000D01*
X16050000Y-11210000D02*
X16155000Y-11315000D01*
X15540000Y-10825000D02*
X15538000Y-10827000D01*
X15538000Y-10827000D02*
X15494000Y-10827000D01*
X15290000Y-10575000D02*
X15300000Y-10585000D01*
X15372000Y-10705000D02*
X15494000Y-10827000D01*
D18*
X16181000Y-9574600D02*
X16181000Y-9474200D01*
X16129000Y-9626600D02*
X16181000Y-9574600D01*
X14780000Y-9170000D02*
X14570000Y-9170000D01*
X14420000Y-9320000D02*
X14160000Y-9320000D01*
X14570000Y-9170000D02*
X14420000Y-9320000D01*
X15270000Y-9340000D02*
X15100000Y-9170000D01*
X15100000Y-9170000D02*
X14780000Y-9170000D01*
X14780000Y-9170000D02*
X14830000Y-9220000D01*
X14830000Y-9220000D02*
X14830000Y-9335000D01*
X14830000Y-9335000D02*
X14825000Y-9340000D01*
X14780000Y-9170000D02*
X14785000Y-9165000D01*
X14770100Y-11722100D02*
X15328900Y-11722100D01*
D19*
X14775900Y-9175300D02*
X14780000Y-9170000D01*
D18*
X17373600Y-11264900D02*
X17360900Y-11264900D01*
X17322800Y-11226800D02*
X16891000Y-11226800D01*
X17360900Y-11264900D02*
X17322800Y-11226800D01*
X16522700Y-11480800D02*
X16586200Y-11480800D01*
X16840200Y-11226800D02*
X16891000Y-11226800D01*
X16586200Y-11480800D02*
X16840200Y-11226800D01*
X15160000Y-10430000D02*
X15065000Y-10430000D01*
X15285000Y-10860000D02*
X15337000Y-10860000D01*
X15160000Y-10485000D02*
X15160000Y-10735000D01*
X15160000Y-10735000D02*
X15285000Y-10860000D01*
X15085000Y-10180000D02*
X15160000Y-10255000D01*
X15160000Y-10255000D02*
X15160000Y-10430000D01*
X15160000Y-10430000D02*
X15160000Y-10485000D01*
X14909800Y-10007600D02*
X14912600Y-10007600D01*
X14912600Y-10007600D02*
X15085000Y-10180000D01*
D19*
X15085000Y-10180000D02*
X15087600Y-10185400D01*
X15087600Y-10185400D02*
X14909800Y-10007600D01*
X15160000Y-10485000D02*
X15160000Y-10255000D01*
D18*
X15337000Y-10860000D02*
X15494000Y-11017000D01*
X15285000Y-10860000D02*
X15285000Y-10930000D01*
X15285000Y-10930000D02*
X15255000Y-10960000D01*
X15850000Y-11310000D02*
X15825000Y-11310000D01*
X15770000Y-11255000D02*
X15770000Y-11120000D01*
X15825000Y-11310000D02*
X15770000Y-11255000D01*
X15855000Y-11425000D02*
X15855000Y-11315000D01*
X15855000Y-11315000D02*
X15850000Y-11310000D01*
X15494000Y-11017000D02*
X15667000Y-11017000D01*
X15667000Y-11017000D02*
X15770000Y-11120000D01*
X15420000Y-11115000D02*
X15421816Y-11112596D01*
X15421816Y-11112596D02*
X15494000Y-11017000D01*
D19*
X15494000Y-11017000D02*
X15513000Y-11017000D01*
X15513000Y-11017000D02*
X15675000Y-10855000D01*
X15770000Y-11120000D02*
X15667000Y-11017000D01*
X15420000Y-11115000D02*
X15433000Y-11102000D01*
X15433000Y-11102000D02*
X15494000Y-11017000D01*
D18*
X14665000Y-9780000D02*
X14750000Y-9780000D01*
X14750000Y-9780000D02*
X14775000Y-9755000D01*
D19*
X14665000Y-9780000D02*
X14675000Y-9770000D01*
D18*
X16330000Y-9234000D02*
X17080400Y-9234000D01*
X17080400Y-9234000D02*
X17081500Y-9232900D01*
D19*
X16343800Y-9234000D02*
X16330000Y-9234000D01*
X15465000Y-11645000D02*
X15480000Y-11660000D01*
X15480000Y-11660000D02*
X15480000Y-11700000D01*
X16240000Y-11025000D02*
X16240000Y-11125000D01*
X15640300Y-9995300D02*
X15640300Y-10087610D01*
X15605000Y-9960000D02*
X15640300Y-9995300D01*
X16357600Y-9601200D02*
X16357600Y-9500800D01*
X16357600Y-9500800D02*
X16331000Y-9474200D01*
X16357600Y-9601200D02*
X16338600Y-9582200D01*
X16338600Y-9582200D02*
X16338600Y-9581600D01*
X16155000Y-12020000D02*
X16155000Y-12470000D01*
X15200000Y-11050000D02*
X15200000Y-11060000D01*
X14200000Y-10760000D02*
X14200000Y-10010000D01*
X14750000Y-11310000D02*
X14200000Y-10760000D01*
X14950000Y-11310000D02*
X14750000Y-11310000D01*
X15200000Y-11060000D02*
X14950000Y-11310000D01*
X14200000Y-10010000D02*
X14200000Y-9777600D01*
X14200000Y-9777600D02*
X14376400Y-9601200D01*
X14376400Y-9601200D02*
X14376400Y-9715500D01*
X15316200Y-11049000D02*
X14605000Y-11760200D01*
X14605000Y-11760200D02*
X14376400Y-11760200D01*
X14376400Y-11760200D02*
X14380000Y-11760000D01*
X15800000Y-10629900D02*
X15570200Y-10629900D01*
X15570200Y-10629900D02*
X15519400Y-10680700D01*
X16408400Y-10668000D02*
X16370300Y-10629900D01*
X16370300Y-10629900D02*
X15800000Y-10629900D01*
X17703800Y-11323800D02*
X17703800Y-11785600D01*
X17545000Y-11165000D02*
X17703800Y-11323800D01*
X17025000Y-11165000D02*
X17545000Y-11165000D01*
X16775000Y-10915000D02*
X17025000Y-11165000D01*
X15915000Y-10915000D02*
X16775000Y-10915000D01*
X15805000Y-10805000D02*
X15915000Y-10915000D01*
X16989200Y-10265000D02*
X17729200Y-9525000D01*
X15620000Y-10265000D02*
X16989200Y-10265000D01*
X15600000Y-10245000D02*
X15620000Y-10265000D01*
X16915200Y-10414000D02*
X17246600Y-10414000D01*
X17246600Y-10414000D02*
X17348200Y-10515600D01*
X16415000Y-11785000D02*
X16415000Y-11930000D01*
X16415000Y-11960000D02*
X16421100Y-11963400D01*
X16421100Y-11963400D02*
X16319500Y-11861800D01*
X16319500Y-11861800D02*
X16192500Y-11861800D01*
X16192500Y-11861800D02*
X16195000Y-11860000D01*
X14875000Y-9600000D02*
X14943000Y-9600000D01*
X14943000Y-9600000D02*
X14945000Y-9598000D01*
X14792000Y-9596000D02*
X14871000Y-9596000D01*
X14871000Y-9596000D02*
X14875000Y-9600000D01*
X16765200Y-10414000D02*
X16078200Y-10414000D01*
X16078200Y-10414000D02*
X16002000Y-10490200D01*
X15544800Y-10541000D02*
X15519400Y-10566400D01*
X15951200Y-10541000D02*
X15544800Y-10541000D01*
X16002000Y-10490200D02*
X15951200Y-10541000D01*
X16586200Y-11560000D02*
X16659400Y-11560000D01*
X16420000Y-11480000D02*
X16500000Y-11560000D01*
X16500000Y-11560000D02*
X16586200Y-11560000D01*
X16659400Y-11560000D02*
X16891000Y-11328400D01*
X15800000Y-10705000D02*
X15675000Y-10705000D01*
X15800000Y-10705000D02*
X15805000Y-10705000D01*
X16260000Y-11595000D02*
X16155000Y-11595000D01*
X16155000Y-11595000D02*
X16080000Y-11520000D01*
X16929100Y-11455400D02*
X16751300Y-11633200D01*
X16751300Y-11633200D02*
X16383000Y-11633200D01*
X16383000Y-11633200D02*
X16344900Y-11595100D01*
X16344900Y-11595100D02*
X16256000Y-11595100D01*
X16256000Y-11595100D02*
X16260000Y-11595000D01*
X14820000Y-11140000D02*
X14820000Y-10890000D01*
X14820000Y-10890000D02*
X14570000Y-10640000D01*
X14570000Y-10566400D02*
X14570000Y-10640000D01*
X15290000Y-9880000D02*
X15570200Y-9599800D01*
X14720000Y-9880000D02*
X15290000Y-9880000D01*
X14570000Y-10030000D02*
X14720000Y-9880000D01*
X14570000Y-10566400D02*
X14570000Y-10030000D01*
X15798800Y-9372600D02*
X15570200Y-9601200D01*
X15570200Y-9601200D02*
X15570200Y-9599800D01*
X16637000Y-9372600D02*
X15798800Y-9372600D01*
X16738600Y-9474200D02*
X16637000Y-9372600D01*
X16738600Y-10160000D02*
X16738600Y-9474200D01*
X16294100Y-11709400D02*
X16192500Y-11709400D01*
X16738600Y-10617200D02*
X16738600Y-10693400D01*
X16738600Y-10693400D02*
X17106900Y-11061700D01*
X17043400Y-11455400D02*
X16814800Y-11684000D01*
X16814800Y-11684000D02*
X16319500Y-11684000D01*
X16319500Y-11684000D02*
X16294100Y-11709400D01*
X15976600Y-10337800D02*
X16459200Y-10337800D01*
X15925800Y-10388600D02*
X15976600Y-10337800D01*
X16192500Y-11709400D02*
X16195000Y-11710000D01*
X15980000Y-11730200D02*
X15970000Y-11730200D01*
X15980000Y-11550000D02*
X15980000Y-11730200D01*
X15960000Y-11530000D02*
X15980000Y-11550000D01*
X15730000Y-11530000D02*
X15960000Y-11530000D01*
X15665000Y-11465000D02*
X15730000Y-11530000D01*
X15970000Y-11730200D02*
X15970000Y-11740200D01*
X15970000Y-11740200D02*
X15950000Y-11760200D01*
X16040000Y-11710000D02*
X16000200Y-11710000D01*
X16000200Y-11710000D02*
X15950000Y-11760200D01*
X16555000Y-11220000D02*
X16555000Y-11205000D01*
X16555000Y-11205000D02*
X16375000Y-11025000D01*
X16375000Y-11025000D02*
X16375000Y-10990000D01*
X16180000Y-9234000D02*
X15533200Y-9234000D01*
X15533200Y-9234000D02*
X15443200Y-9144000D01*
X14920000Y-11220000D02*
X14770000Y-11220000D01*
X14770000Y-11220000D02*
X14520000Y-10970000D01*
X14520000Y-10970000D02*
X14520000Y-10840000D01*
M02*
