G04 #@! TF.FileFunction,Soldermask,Bot*
%FSLAX45Y45*%
G04 Gerber Fmt 4.5, Leading zero omitted, Abs format (unit mm)*
G04 Created by KiCad (PCBNEW (2015-12-04 BZR 6347, Git 4c88040)-product) date 15.04.2016 21:14:43*
%MOMM*%
G01*
G04 APERTURE LIST*
%ADD10C,0.100000*%
%ADD11C,0.150000*%
%ADD12R,4.264000X4.264000*%
%ADD13R,1.500000X0.900000*%
%ADD14R,0.700000X1.100000*%
%ADD15R,1.100000X0.700000*%
%ADD16R,0.900000X1.500000*%
%ADD17C,1.099160*%
G04 APERTURE END LIST*
D10*
D11*
X17920000Y-9040000D02*
X14080000Y-9040000D01*
X17920000Y-13020000D02*
X17920000Y-9040000D01*
X14080000Y-13020000D02*
X17920000Y-13020000D01*
X14080000Y-9040000D02*
X14080000Y-13020000D01*
D12*
X14376400Y-9601200D03*
D13*
X16240000Y-11315000D03*
X16240000Y-11125000D03*
D12*
X16408400Y-10668000D03*
D14*
X16555000Y-11220000D03*
X16405000Y-11220000D03*
X16415000Y-11930000D03*
X16565000Y-11930000D03*
X15800000Y-11760200D03*
X15950000Y-11760200D03*
D15*
X16195000Y-11710000D03*
X16195000Y-11860000D03*
D14*
X16331000Y-9474200D03*
X16181000Y-9474200D03*
D13*
X14775000Y-9755000D03*
X14775000Y-9565000D03*
D16*
X14945000Y-9598000D03*
X15135000Y-9598000D03*
X15830300Y-10087610D03*
X15640300Y-10087610D03*
X15660000Y-11765000D03*
X15470000Y-11765000D03*
X15085000Y-10180000D03*
X15275000Y-10180000D03*
D13*
X15494000Y-11017000D03*
X15494000Y-10827000D03*
X15855000Y-11425000D03*
X15855000Y-11615000D03*
D16*
X14825000Y-9340000D03*
X15015000Y-9340000D03*
D13*
X15285000Y-10860000D03*
X15285000Y-10670000D03*
D14*
X16915200Y-10414000D03*
X16765200Y-10414000D03*
D12*
X14380000Y-11760000D03*
X17680000Y-11780000D03*
X17680000Y-9620000D03*
D15*
X15675000Y-10855000D03*
X15675000Y-10705000D03*
D14*
X16180000Y-9234000D03*
X16330000Y-9234000D03*
D17*
X16475710Y-9560560D03*
X16036036Y-9560560D03*
M02*
