G04 #@! TF.FileFunction,Legend,Bot*
%FSLAX45Y45*%
G04 Gerber Fmt 4.5, Leading zero omitted, Abs format (unit mm)*
G04 Created by KiCad (PCBNEW (2015-12-04 BZR 6347, Git 4c88040)-product) date 15.04.2016 21:14:43*
%MOMM*%
G01*
G04 APERTURE LIST*
%ADD10C,0.100000*%
%ADD11C,0.150000*%
%ADD12C,0.010000*%
G04 APERTURE END LIST*
D10*
D11*
X17920000Y-9040000D02*
X14080000Y-9040000D01*
X17920000Y-13020000D02*
X17920000Y-9040000D01*
X14080000Y-13020000D02*
X17920000Y-13020000D01*
X14080000Y-9040000D02*
X14080000Y-13020000D01*
X14126464Y-9851136D02*
X14626336Y-9851136D01*
X14626336Y-9851136D02*
X14626336Y-9351264D01*
X14626336Y-9351264D02*
X14126464Y-9351264D01*
X14126464Y-9351264D02*
X14126464Y-9851136D01*
X16152500Y-11160000D02*
X16152500Y-11280000D01*
X16327500Y-11280000D02*
X16327500Y-11160000D01*
X16158464Y-10917936D02*
X16658336Y-10917936D01*
X16658336Y-10917936D02*
X16658336Y-10418064D01*
X16658336Y-10418064D02*
X16158464Y-10418064D01*
X16158464Y-10418064D02*
X16158464Y-10917936D01*
X16430000Y-11287500D02*
X16530000Y-11287500D01*
X16530000Y-11152500D02*
X16430000Y-11152500D01*
X16540000Y-11862500D02*
X16440000Y-11862500D01*
X16440000Y-11997500D02*
X16540000Y-11997500D01*
X15925000Y-11692700D02*
X15825000Y-11692700D01*
X15825000Y-11827700D02*
X15925000Y-11827700D01*
X16262500Y-11835000D02*
X16262500Y-11735000D01*
X16127500Y-11735000D02*
X16127500Y-11835000D01*
X16206000Y-9541700D02*
X16306000Y-9541700D01*
X16306000Y-9406700D02*
X16206000Y-9406700D01*
X16327500Y-11570000D02*
X16327500Y-11470000D01*
X16192500Y-11470000D02*
X16192500Y-11570000D01*
X14687500Y-9600000D02*
X14687500Y-9720000D01*
X14862500Y-9720000D02*
X14862500Y-9600000D01*
X15100000Y-9510500D02*
X14980000Y-9510500D01*
X14980000Y-9685500D02*
X15100000Y-9685500D01*
X15675300Y-10175110D02*
X15795300Y-10175110D01*
X15795300Y-10000110D02*
X15675300Y-10000110D01*
X15505000Y-11852500D02*
X15625000Y-11852500D01*
X15625000Y-11677500D02*
X15505000Y-11677500D01*
X15240000Y-10092500D02*
X15120000Y-10092500D01*
X15120000Y-10267500D02*
X15240000Y-10267500D01*
X15406500Y-10862000D02*
X15406500Y-10982000D01*
X15581500Y-10982000D02*
X15581500Y-10862000D01*
X15942500Y-11580000D02*
X15942500Y-11460000D01*
X15767500Y-11460000D02*
X15767500Y-11580000D01*
X14980000Y-9252500D02*
X14860000Y-9252500D01*
X14860000Y-9427500D02*
X14980000Y-9427500D01*
X15197500Y-10705000D02*
X15197500Y-10825000D01*
X15372500Y-10825000D02*
X15372500Y-10705000D01*
X16790200Y-10481500D02*
X16890200Y-10481500D01*
X16890200Y-10346500D02*
X16790200Y-10346500D01*
X14130064Y-12009936D02*
X14629936Y-12009936D01*
X14629936Y-12009936D02*
X14629936Y-11510064D01*
X14629936Y-11510064D02*
X14130064Y-11510064D01*
X14130064Y-11510064D02*
X14130064Y-12009936D01*
X17430064Y-12029936D02*
X17929936Y-12029936D01*
X17929936Y-12029936D02*
X17929936Y-11530064D01*
X17929936Y-11530064D02*
X17430064Y-11530064D01*
X17430064Y-11530064D02*
X17430064Y-12029936D01*
X17430064Y-9869936D02*
X17929936Y-9869936D01*
X17929936Y-9869936D02*
X17929936Y-9370064D01*
X17929936Y-9370064D02*
X17430064Y-9370064D01*
X17430064Y-9370064D02*
X17430064Y-9869936D01*
X15607500Y-10730000D02*
X15607500Y-10830000D01*
X15742500Y-10830000D02*
X15742500Y-10730000D01*
X16305000Y-9166500D02*
X16205000Y-9166500D01*
X16205000Y-9301500D02*
X16305000Y-9301500D01*
D10*
D12*
X14437114Y-9973831D02*
X14437114Y-9923831D01*
X14418067Y-9923831D01*
X14413305Y-9926212D01*
X14410924Y-9928593D01*
X14408543Y-9933355D01*
X14408543Y-9940498D01*
X14410924Y-9945260D01*
X14413305Y-9947641D01*
X14418067Y-9950022D01*
X14437114Y-9950022D01*
X14360924Y-9973831D02*
X14389495Y-9973831D01*
X14375209Y-9973831D02*
X14375209Y-9923831D01*
X14379971Y-9930974D01*
X14384733Y-9935736D01*
X14389495Y-9938117D01*
X14318067Y-9923831D02*
X14327590Y-9923831D01*
X14332352Y-9926212D01*
X14334733Y-9928593D01*
X14339495Y-9935736D01*
X14341876Y-9945260D01*
X14341876Y-9964307D01*
X14339495Y-9969069D01*
X14337114Y-9971450D01*
X14332352Y-9973831D01*
X14322829Y-9973831D01*
X14318067Y-9971450D01*
X14315686Y-9969069D01*
X14313305Y-9964307D01*
X14313305Y-9952403D01*
X14315686Y-9947641D01*
X14318067Y-9945260D01*
X14322829Y-9942879D01*
X14332352Y-9942879D01*
X14337114Y-9945260D01*
X14339495Y-9947641D01*
X14341876Y-9952403D01*
X16467857Y-11187857D02*
X16470238Y-11185476D01*
X16472619Y-11178333D01*
X16472619Y-11173572D01*
X16470238Y-11166429D01*
X16465476Y-11161667D01*
X16460714Y-11159286D01*
X16451190Y-11156905D01*
X16444048Y-11156905D01*
X16434524Y-11159286D01*
X16429762Y-11161667D01*
X16425000Y-11166429D01*
X16422619Y-11173572D01*
X16422619Y-11178333D01*
X16425000Y-11185476D01*
X16427381Y-11187857D01*
X16472619Y-11235476D02*
X16472619Y-11206905D01*
X16472619Y-11221190D02*
X16422619Y-11221190D01*
X16429762Y-11216429D01*
X16434524Y-11211667D01*
X16436905Y-11206905D01*
X16472619Y-11259286D02*
X16472619Y-11268809D01*
X16470238Y-11273571D01*
X16467857Y-11275952D01*
X16460714Y-11280714D01*
X16451190Y-11283095D01*
X16432143Y-11283095D01*
X16427381Y-11280714D01*
X16425000Y-11278333D01*
X16422619Y-11273571D01*
X16422619Y-11264048D01*
X16425000Y-11259286D01*
X16427381Y-11256905D01*
X16432143Y-11254524D01*
X16444048Y-11254524D01*
X16448809Y-11256905D01*
X16451190Y-11259286D01*
X16453571Y-11264048D01*
X16453571Y-11273571D01*
X16451190Y-11278333D01*
X16448809Y-11280714D01*
X16444048Y-11283095D01*
X16469114Y-11040631D02*
X16469114Y-10990631D01*
X16450067Y-10990631D01*
X16445305Y-10993012D01*
X16442924Y-10995393D01*
X16440543Y-11000155D01*
X16440543Y-11007298D01*
X16442924Y-11012060D01*
X16445305Y-11014441D01*
X16450067Y-11016822D01*
X16469114Y-11016822D01*
X16392924Y-11040631D02*
X16421495Y-11040631D01*
X16407209Y-11040631D02*
X16407209Y-10990631D01*
X16411971Y-10997774D01*
X16416733Y-11002536D01*
X16421495Y-11004917D01*
X16364352Y-11012060D02*
X16369114Y-11009679D01*
X16371495Y-11007298D01*
X16373876Y-11002536D01*
X16373876Y-11000155D01*
X16371495Y-10995393D01*
X16369114Y-10993012D01*
X16364352Y-10990631D01*
X16354829Y-10990631D01*
X16350067Y-10993012D01*
X16347686Y-10995393D01*
X16345305Y-11000155D01*
X16345305Y-11002536D01*
X16347686Y-11007298D01*
X16350067Y-11009679D01*
X16354829Y-11012060D01*
X16364352Y-11012060D01*
X16369114Y-11014441D01*
X16371495Y-11016822D01*
X16373876Y-11021583D01*
X16373876Y-11031107D01*
X16371495Y-11035869D01*
X16369114Y-11038250D01*
X16364352Y-11040631D01*
X16354829Y-11040631D01*
X16350067Y-11038250D01*
X16347686Y-11035869D01*
X16345305Y-11031107D01*
X16345305Y-11021583D01*
X16347686Y-11016822D01*
X16350067Y-11014441D01*
X16354829Y-11012060D01*
X16542143Y-11362619D02*
X16558809Y-11338809D01*
X16570714Y-11362619D02*
X16570714Y-11312619D01*
X16551667Y-11312619D01*
X16546905Y-11315000D01*
X16544524Y-11317381D01*
X16542143Y-11322143D01*
X16542143Y-11329286D01*
X16544524Y-11334048D01*
X16546905Y-11336429D01*
X16551667Y-11338809D01*
X16570714Y-11338809D01*
X16523095Y-11317381D02*
X16520714Y-11315000D01*
X16515952Y-11312619D01*
X16504048Y-11312619D01*
X16499286Y-11315000D01*
X16496905Y-11317381D01*
X16494524Y-11322143D01*
X16494524Y-11326905D01*
X16496905Y-11334048D01*
X16525476Y-11362619D01*
X16494524Y-11362619D01*
X16477857Y-11312619D02*
X16446905Y-11312619D01*
X16463571Y-11331667D01*
X16456429Y-11331667D01*
X16451667Y-11334048D01*
X16449286Y-11336429D01*
X16446905Y-11341190D01*
X16446905Y-11353095D01*
X16449286Y-11357857D01*
X16451667Y-11360238D01*
X16456429Y-11362619D01*
X16470714Y-11362619D01*
X16475476Y-11360238D01*
X16477857Y-11357857D01*
X16522143Y-12142619D02*
X16538809Y-12118809D01*
X16550714Y-12142619D02*
X16550714Y-12092619D01*
X16531667Y-12092619D01*
X16526905Y-12095000D01*
X16524524Y-12097381D01*
X16522143Y-12102143D01*
X16522143Y-12109286D01*
X16524524Y-12114048D01*
X16526905Y-12116429D01*
X16531667Y-12118809D01*
X16550714Y-12118809D01*
X16503095Y-12097381D02*
X16500714Y-12095000D01*
X16495952Y-12092619D01*
X16484048Y-12092619D01*
X16479286Y-12095000D01*
X16476905Y-12097381D01*
X16474524Y-12102143D01*
X16474524Y-12106905D01*
X16476905Y-12114048D01*
X16505476Y-12142619D01*
X16474524Y-12142619D01*
X16426905Y-12142619D02*
X16455476Y-12142619D01*
X16441190Y-12142619D02*
X16441190Y-12092619D01*
X16445952Y-12099762D01*
X16450714Y-12104524D01*
X16455476Y-12106905D01*
X15907143Y-11972819D02*
X15923809Y-11949009D01*
X15935714Y-11972819D02*
X15935714Y-11922819D01*
X15916667Y-11922819D01*
X15911905Y-11925200D01*
X15909524Y-11927581D01*
X15907143Y-11932343D01*
X15907143Y-11939486D01*
X15909524Y-11944248D01*
X15911905Y-11946629D01*
X15916667Y-11949009D01*
X15935714Y-11949009D01*
X15859524Y-11972819D02*
X15888095Y-11972819D01*
X15873809Y-11972819D02*
X15873809Y-11922819D01*
X15878571Y-11929962D01*
X15883333Y-11934724D01*
X15888095Y-11937105D01*
X15835714Y-11972819D02*
X15826190Y-11972819D01*
X15821429Y-11970438D01*
X15819048Y-11968057D01*
X15814286Y-11960914D01*
X15811905Y-11951390D01*
X15811905Y-11932343D01*
X15814286Y-11927581D01*
X15816667Y-11925200D01*
X15821429Y-11922819D01*
X15830952Y-11922819D01*
X15835714Y-11925200D01*
X15838095Y-11927581D01*
X15840476Y-11932343D01*
X15840476Y-11944248D01*
X15838095Y-11949009D01*
X15835714Y-11951390D01*
X15830952Y-11953771D01*
X15821429Y-11953771D01*
X15816667Y-11951390D01*
X15814286Y-11949009D01*
X15811905Y-11944248D01*
X16362619Y-11707857D02*
X16338809Y-11691190D01*
X16362619Y-11679286D02*
X16312619Y-11679286D01*
X16312619Y-11698333D01*
X16315000Y-11703095D01*
X16317381Y-11705476D01*
X16322143Y-11707857D01*
X16329286Y-11707857D01*
X16334048Y-11705476D01*
X16336429Y-11703095D01*
X16338809Y-11698333D01*
X16338809Y-11679286D01*
X16362619Y-11755476D02*
X16362619Y-11726905D01*
X16362619Y-11741190D02*
X16312619Y-11741190D01*
X16319762Y-11736429D01*
X16324524Y-11731667D01*
X16326905Y-11726905D01*
X16334048Y-11784048D02*
X16331667Y-11779286D01*
X16329286Y-11776905D01*
X16324524Y-11774524D01*
X16322143Y-11774524D01*
X16317381Y-11776905D01*
X16315000Y-11779286D01*
X16312619Y-11784048D01*
X16312619Y-11793571D01*
X16315000Y-11798333D01*
X16317381Y-11800714D01*
X16322143Y-11803095D01*
X16324524Y-11803095D01*
X16329286Y-11800714D01*
X16331667Y-11798333D01*
X16334048Y-11793571D01*
X16334048Y-11784048D01*
X16336429Y-11779286D01*
X16338809Y-11776905D01*
X16343571Y-11774524D01*
X16353095Y-11774524D01*
X16357857Y-11776905D01*
X16360238Y-11779286D01*
X16362619Y-11784048D01*
X16362619Y-11793571D01*
X16360238Y-11798333D01*
X16357857Y-11800714D01*
X16353095Y-11803095D01*
X16343571Y-11803095D01*
X16338809Y-11800714D01*
X16336429Y-11798333D01*
X16334048Y-11793571D01*
X16288143Y-9306819D02*
X16304809Y-9283010D01*
X16316714Y-9306819D02*
X16316714Y-9256819D01*
X16297667Y-9256819D01*
X16292905Y-9259200D01*
X16290524Y-9261581D01*
X16288143Y-9266343D01*
X16288143Y-9273486D01*
X16290524Y-9278248D01*
X16292905Y-9280629D01*
X16297667Y-9283010D01*
X16316714Y-9283010D01*
X16240524Y-9306819D02*
X16269095Y-9306819D01*
X16254809Y-9306819D02*
X16254809Y-9256819D01*
X16259571Y-9263962D01*
X16264333Y-9268724D01*
X16269095Y-9271105D01*
X16197667Y-9256819D02*
X16207190Y-9256819D01*
X16211952Y-9259200D01*
X16214333Y-9261581D01*
X16219095Y-9268724D01*
X16221476Y-9278248D01*
X16221476Y-9297295D01*
X16219095Y-9302057D01*
X16216714Y-9304438D01*
X16211952Y-9306819D01*
X16202429Y-9306819D01*
X16197667Y-9304438D01*
X16195286Y-9302057D01*
X16192905Y-9297295D01*
X16192905Y-9285391D01*
X16195286Y-9280629D01*
X16197667Y-9278248D01*
X16202429Y-9275867D01*
X16211952Y-9275867D01*
X16216714Y-9278248D01*
X16219095Y-9280629D01*
X16221476Y-9285391D01*
X16182619Y-11487857D02*
X16158809Y-11471190D01*
X16182619Y-11459286D02*
X16132619Y-11459286D01*
X16132619Y-11478333D01*
X16135000Y-11483095D01*
X16137381Y-11485476D01*
X16142143Y-11487857D01*
X16149286Y-11487857D01*
X16154048Y-11485476D01*
X16156429Y-11483095D01*
X16158809Y-11478333D01*
X16158809Y-11459286D01*
X16182619Y-11535476D02*
X16182619Y-11506905D01*
X16182619Y-11521190D02*
X16132619Y-11521190D01*
X16139762Y-11516429D01*
X16144524Y-11511667D01*
X16146905Y-11506905D01*
X16182619Y-11583095D02*
X16182619Y-11554524D01*
X16182619Y-11568809D02*
X16132619Y-11568809D01*
X16139762Y-11564048D01*
X16144524Y-11559286D01*
X16146905Y-11554524D01*
X15007619Y-9651667D02*
X14983809Y-9635000D01*
X15007619Y-9623095D02*
X14957619Y-9623095D01*
X14957619Y-9642143D01*
X14960000Y-9646905D01*
X14962381Y-9649286D01*
X14967143Y-9651667D01*
X14974286Y-9651667D01*
X14979048Y-9649286D01*
X14981429Y-9646905D01*
X14983809Y-9642143D01*
X14983809Y-9623095D01*
X14957619Y-9668333D02*
X14957619Y-9699286D01*
X14976667Y-9682619D01*
X14976667Y-9689762D01*
X14979048Y-9694524D01*
X14981429Y-9696905D01*
X14986190Y-9699286D01*
X14998095Y-9699286D01*
X15002857Y-9696905D01*
X15005238Y-9694524D01*
X15007619Y-9689762D01*
X15007619Y-9675476D01*
X15005238Y-9670714D01*
X15002857Y-9668333D01*
X15048333Y-9830619D02*
X15065000Y-9806810D01*
X15076905Y-9830619D02*
X15076905Y-9780619D01*
X15057857Y-9780619D01*
X15053095Y-9783000D01*
X15050714Y-9785381D01*
X15048333Y-9790143D01*
X15048333Y-9797286D01*
X15050714Y-9802048D01*
X15053095Y-9804429D01*
X15057857Y-9806810D01*
X15076905Y-9806810D01*
X15029286Y-9785381D02*
X15026905Y-9783000D01*
X15022143Y-9780619D01*
X15010238Y-9780619D01*
X15005476Y-9783000D01*
X15003095Y-9785381D01*
X15000714Y-9790143D01*
X15000714Y-9794905D01*
X15003095Y-9802048D01*
X15031667Y-9830619D01*
X15000714Y-9830619D01*
X15767443Y-9895467D02*
X15769824Y-9897848D01*
X15776967Y-9900229D01*
X15781728Y-9900229D01*
X15788871Y-9897848D01*
X15793633Y-9893086D01*
X15796014Y-9888324D01*
X15798395Y-9878801D01*
X15798395Y-9871658D01*
X15796014Y-9862134D01*
X15793633Y-9857372D01*
X15788871Y-9852610D01*
X15781728Y-9850229D01*
X15776967Y-9850229D01*
X15769824Y-9852610D01*
X15767443Y-9854991D01*
X15748395Y-9854991D02*
X15746014Y-9852610D01*
X15741252Y-9850229D01*
X15729348Y-9850229D01*
X15724586Y-9852610D01*
X15722205Y-9854991D01*
X15719824Y-9859753D01*
X15719824Y-9864515D01*
X15722205Y-9871658D01*
X15750776Y-9900229D01*
X15719824Y-9900229D01*
X15672205Y-9900229D02*
X15700776Y-9900229D01*
X15686490Y-9900229D02*
X15686490Y-9850229D01*
X15691252Y-9857372D01*
X15696014Y-9862134D01*
X15700776Y-9864515D01*
X15597143Y-11572857D02*
X15599524Y-11575238D01*
X15606667Y-11577619D01*
X15611428Y-11577619D01*
X15618571Y-11575238D01*
X15623333Y-11570476D01*
X15625714Y-11565714D01*
X15628095Y-11556190D01*
X15628095Y-11549048D01*
X15625714Y-11539524D01*
X15623333Y-11534762D01*
X15618571Y-11530000D01*
X15611428Y-11527619D01*
X15606667Y-11527619D01*
X15599524Y-11530000D01*
X15597143Y-11532381D01*
X15549524Y-11577619D02*
X15578095Y-11577619D01*
X15563809Y-11577619D02*
X15563809Y-11527619D01*
X15568571Y-11534762D01*
X15573333Y-11539524D01*
X15578095Y-11541905D01*
X15520952Y-11549048D02*
X15525714Y-11546667D01*
X15528095Y-11544286D01*
X15530476Y-11539524D01*
X15530476Y-11537143D01*
X15528095Y-11532381D01*
X15525714Y-11530000D01*
X15520952Y-11527619D01*
X15511429Y-11527619D01*
X15506667Y-11530000D01*
X15504286Y-11532381D01*
X15501905Y-11537143D01*
X15501905Y-11539524D01*
X15504286Y-11544286D01*
X15506667Y-11546667D01*
X15511429Y-11549048D01*
X15520952Y-11549048D01*
X15525714Y-11551429D01*
X15528095Y-11553809D01*
X15530476Y-11558571D01*
X15530476Y-11568095D01*
X15528095Y-11572857D01*
X15525714Y-11575238D01*
X15520952Y-11577619D01*
X15511429Y-11577619D01*
X15506667Y-11575238D01*
X15504286Y-11572857D01*
X15501905Y-11568095D01*
X15501905Y-11558571D01*
X15504286Y-11553809D01*
X15506667Y-11551429D01*
X15511429Y-11549048D01*
X15212143Y-10407857D02*
X15214524Y-10410238D01*
X15221667Y-10412619D01*
X15226428Y-10412619D01*
X15233571Y-10410238D01*
X15238333Y-10405476D01*
X15240714Y-10400714D01*
X15243095Y-10391191D01*
X15243095Y-10384048D01*
X15240714Y-10374524D01*
X15238333Y-10369762D01*
X15233571Y-10365000D01*
X15226428Y-10362619D01*
X15221667Y-10362619D01*
X15214524Y-10365000D01*
X15212143Y-10367381D01*
X15164524Y-10412619D02*
X15193095Y-10412619D01*
X15178809Y-10412619D02*
X15178809Y-10362619D01*
X15183571Y-10369762D01*
X15188333Y-10374524D01*
X15193095Y-10376905D01*
X15116905Y-10412619D02*
X15145476Y-10412619D01*
X15131190Y-10412619D02*
X15131190Y-10362619D01*
X15135952Y-10369762D01*
X15140714Y-10374524D01*
X15145476Y-10376905D01*
X15721857Y-10913667D02*
X15724238Y-10911286D01*
X15726619Y-10904143D01*
X15726619Y-10899381D01*
X15724238Y-10892238D01*
X15719476Y-10887476D01*
X15714714Y-10885095D01*
X15705190Y-10882714D01*
X15698048Y-10882714D01*
X15688524Y-10885095D01*
X15683762Y-10887476D01*
X15679000Y-10892238D01*
X15676619Y-10899381D01*
X15676619Y-10904143D01*
X15679000Y-10911286D01*
X15681381Y-10913667D01*
X15726619Y-10937476D02*
X15726619Y-10947000D01*
X15724238Y-10951762D01*
X15721857Y-10954143D01*
X15714714Y-10958905D01*
X15705190Y-10961286D01*
X15686143Y-10961286D01*
X15681381Y-10958905D01*
X15679000Y-10956524D01*
X15676619Y-10951762D01*
X15676619Y-10942238D01*
X15679000Y-10937476D01*
X15681381Y-10935095D01*
X15686143Y-10932714D01*
X15698048Y-10932714D01*
X15702809Y-10935095D01*
X15705190Y-10937476D01*
X15707571Y-10942238D01*
X15707571Y-10951762D01*
X15705190Y-10956524D01*
X15702809Y-10958905D01*
X15698048Y-10961286D01*
X15662857Y-11511667D02*
X15665238Y-11509286D01*
X15667619Y-11502143D01*
X15667619Y-11497381D01*
X15665238Y-11490238D01*
X15660476Y-11485476D01*
X15655714Y-11483095D01*
X15646190Y-11480714D01*
X15639048Y-11480714D01*
X15629524Y-11483095D01*
X15624762Y-11485476D01*
X15620000Y-11490238D01*
X15617619Y-11497381D01*
X15617619Y-11502143D01*
X15620000Y-11509286D01*
X15622381Y-11511667D01*
X15617619Y-11554524D02*
X15617619Y-11545000D01*
X15620000Y-11540238D01*
X15622381Y-11537857D01*
X15629524Y-11533095D01*
X15639048Y-11530714D01*
X15658095Y-11530714D01*
X15662857Y-11533095D01*
X15665238Y-11535476D01*
X15667619Y-11540238D01*
X15667619Y-11549762D01*
X15665238Y-11554524D01*
X15662857Y-11556905D01*
X15658095Y-11559286D01*
X15646190Y-11559286D01*
X15641429Y-11556905D01*
X15639048Y-11554524D01*
X15636667Y-11549762D01*
X15636667Y-11540238D01*
X15639048Y-11535476D01*
X15641429Y-11533095D01*
X15646190Y-11530714D01*
X14928333Y-9567857D02*
X14930714Y-9570238D01*
X14937857Y-9572619D01*
X14942619Y-9572619D01*
X14949762Y-9570238D01*
X14954524Y-9565476D01*
X14956905Y-9560714D01*
X14959286Y-9551191D01*
X14959286Y-9544048D01*
X14956905Y-9534524D01*
X14954524Y-9529762D01*
X14949762Y-9525000D01*
X14942619Y-9522619D01*
X14937857Y-9522619D01*
X14930714Y-9525000D01*
X14928333Y-9527381D01*
X14885476Y-9539286D02*
X14885476Y-9572619D01*
X14897381Y-9520238D02*
X14909286Y-9555952D01*
X14878333Y-9555952D01*
X15267857Y-10561667D02*
X15270238Y-10559286D01*
X15272619Y-10552143D01*
X15272619Y-10547381D01*
X15270238Y-10540238D01*
X15265476Y-10535476D01*
X15260714Y-10533095D01*
X15251190Y-10530714D01*
X15244048Y-10530714D01*
X15234524Y-10533095D01*
X15229762Y-10535476D01*
X15225000Y-10540238D01*
X15222619Y-10547381D01*
X15222619Y-10552143D01*
X15225000Y-10559286D01*
X15227381Y-10561667D01*
X15222619Y-10578333D02*
X15222619Y-10609286D01*
X15241667Y-10592619D01*
X15241667Y-10599762D01*
X15244048Y-10604524D01*
X15246429Y-10606905D01*
X15251190Y-10609286D01*
X15263095Y-10609286D01*
X15267857Y-10606905D01*
X15270238Y-10604524D01*
X15272619Y-10599762D01*
X15272619Y-10585476D01*
X15270238Y-10580714D01*
X15267857Y-10578333D01*
X16888333Y-10312619D02*
X16905000Y-10288810D01*
X16916905Y-10312619D02*
X16916905Y-10262619D01*
X16897857Y-10262619D01*
X16893095Y-10265000D01*
X16890714Y-10267381D01*
X16888333Y-10272143D01*
X16888333Y-10279286D01*
X16890714Y-10284048D01*
X16893095Y-10286429D01*
X16897857Y-10288810D01*
X16916905Y-10288810D01*
X16843095Y-10262619D02*
X16866905Y-10262619D01*
X16869286Y-10286429D01*
X16866905Y-10284048D01*
X16862143Y-10281667D01*
X16850238Y-10281667D01*
X16845476Y-10284048D01*
X16843095Y-10286429D01*
X16840714Y-10291191D01*
X16840714Y-10303095D01*
X16843095Y-10307857D01*
X16845476Y-10310238D01*
X16850238Y-10312619D01*
X16862143Y-10312619D01*
X16866905Y-10310238D01*
X16869286Y-10307857D01*
X14440714Y-12132631D02*
X14440714Y-12082631D01*
X14421667Y-12082631D01*
X14416905Y-12085012D01*
X14414524Y-12087393D01*
X14412143Y-12092155D01*
X14412143Y-12099298D01*
X14414524Y-12104060D01*
X14416905Y-12106441D01*
X14421667Y-12108821D01*
X14440714Y-12108821D01*
X14364524Y-12132631D02*
X14393095Y-12132631D01*
X14378809Y-12132631D02*
X14378809Y-12082631D01*
X14383571Y-12089774D01*
X14388333Y-12094536D01*
X14393095Y-12096917D01*
X14347857Y-12082631D02*
X14314524Y-12082631D01*
X14335952Y-12132631D01*
X17740714Y-12152631D02*
X17740714Y-12102631D01*
X17721667Y-12102631D01*
X17716905Y-12105012D01*
X17714524Y-12107393D01*
X17712143Y-12112155D01*
X17712143Y-12119298D01*
X17714524Y-12124060D01*
X17716905Y-12126441D01*
X17721667Y-12128821D01*
X17740714Y-12128821D01*
X17664524Y-12152631D02*
X17693095Y-12152631D01*
X17678810Y-12152631D02*
X17678810Y-12102631D01*
X17683571Y-12109774D01*
X17688333Y-12114536D01*
X17693095Y-12116917D01*
X17640714Y-12152631D02*
X17631191Y-12152631D01*
X17626429Y-12150250D01*
X17624048Y-12147869D01*
X17619286Y-12140726D01*
X17616905Y-12131202D01*
X17616905Y-12112155D01*
X17619286Y-12107393D01*
X17621667Y-12105012D01*
X17626429Y-12102631D01*
X17635952Y-12102631D01*
X17640714Y-12105012D01*
X17643095Y-12107393D01*
X17645476Y-12112155D01*
X17645476Y-12124060D01*
X17643095Y-12128821D01*
X17640714Y-12131202D01*
X17635952Y-12133583D01*
X17626429Y-12133583D01*
X17621667Y-12131202D01*
X17619286Y-12128821D01*
X17616905Y-12124060D01*
X17740714Y-9992631D02*
X17740714Y-9942631D01*
X17721667Y-9942631D01*
X17716905Y-9945012D01*
X17714524Y-9947393D01*
X17712143Y-9952155D01*
X17712143Y-9959298D01*
X17714524Y-9964060D01*
X17716905Y-9966441D01*
X17721667Y-9968822D01*
X17740714Y-9968822D01*
X17693095Y-9947393D02*
X17690714Y-9945012D01*
X17685952Y-9942631D01*
X17674048Y-9942631D01*
X17669286Y-9945012D01*
X17666905Y-9947393D01*
X17664524Y-9952155D01*
X17664524Y-9956917D01*
X17666905Y-9964060D01*
X17695476Y-9992631D01*
X17664524Y-9992631D01*
X17633571Y-9942631D02*
X17628810Y-9942631D01*
X17624048Y-9945012D01*
X17621667Y-9947393D01*
X17619286Y-9952155D01*
X17616905Y-9961679D01*
X17616905Y-9973583D01*
X17619286Y-9983107D01*
X17621667Y-9987869D01*
X17624048Y-9990250D01*
X17628810Y-9992631D01*
X17633571Y-9992631D01*
X17638333Y-9990250D01*
X17640714Y-9987869D01*
X17643095Y-9983107D01*
X17645476Y-9973583D01*
X17645476Y-9961679D01*
X17643095Y-9952155D01*
X17640714Y-9947393D01*
X17638333Y-9945012D01*
X17633571Y-9942631D01*
X15887619Y-10771667D02*
X15863809Y-10755000D01*
X15887619Y-10743095D02*
X15837619Y-10743095D01*
X15837619Y-10762143D01*
X15840000Y-10766905D01*
X15842381Y-10769286D01*
X15847143Y-10771667D01*
X15854286Y-10771667D01*
X15859048Y-10769286D01*
X15861429Y-10766905D01*
X15863809Y-10762143D01*
X15863809Y-10743095D01*
X15887619Y-10819286D02*
X15887619Y-10790714D01*
X15887619Y-10805000D02*
X15837619Y-10805000D01*
X15844762Y-10800238D01*
X15849524Y-10795476D01*
X15851905Y-10790714D01*
X16287143Y-9446619D02*
X16303809Y-9422810D01*
X16315714Y-9446619D02*
X16315714Y-9396619D01*
X16296667Y-9396619D01*
X16291905Y-9399000D01*
X16289524Y-9401381D01*
X16287143Y-9406143D01*
X16287143Y-9413286D01*
X16289524Y-9418048D01*
X16291905Y-9420429D01*
X16296667Y-9422810D01*
X16315714Y-9422810D01*
X16268095Y-9401381D02*
X16265714Y-9399000D01*
X16260952Y-9396619D01*
X16249048Y-9396619D01*
X16244286Y-9399000D01*
X16241905Y-9401381D01*
X16239524Y-9406143D01*
X16239524Y-9410905D01*
X16241905Y-9418048D01*
X16270476Y-9446619D01*
X16239524Y-9446619D01*
X16196667Y-9413286D02*
X16196667Y-9446619D01*
X16208571Y-9394238D02*
X16220476Y-9429952D01*
X16189524Y-9429952D01*
M02*
