G04 #@! TF.FileFunction,Copper,L1,Top,Signal*
%FSLAX46Y46*%
G04 Gerber Fmt 4.6, Leading zero omitted, Abs format (unit mm)*
G04 Created by KiCad (PCBNEW 4.0.2+dfsg1-stable) date Пн 23 янв 2017 07:27:42*
%MOMM*%
G01*
G04 APERTURE LIST*
%ADD10C,0.100000*%
%ADD11C,0.250000*%
%ADD12C,0.150000*%
%ADD13R,0.500000X0.900000*%
%ADD14R,1.300000X2.000000*%
%ADD15R,0.800100X0.800100*%
%ADD16R,1.300000X0.250000*%
%ADD17R,0.250000X1.300000*%
%ADD18R,3.500000X1.600000*%
%ADD19R,0.508000X1.143000*%
%ADD20R,0.900000X0.500000*%
%ADD21R,3.048000X1.651000*%
%ADD22R,6.096000X6.096000*%
%ADD23R,0.700000X1.300000*%
%ADD24R,1.300000X0.700000*%
%ADD25C,2.000000*%
%ADD26R,4.064000X4.064000*%
%ADD27R,2.000000X2.000000*%
%ADD28R,2.700020X1.800860*%
%ADD29R,2.999740X1.998980*%
%ADD30R,1.998980X2.999740*%
%ADD31R,1.600000X3.500000*%
%ADD32R,0.900000X2.500000*%
%ADD33R,1.000000X3.200000*%
%ADD34R,2.197100X2.197100*%
%ADD35R,0.497840X2.197100*%
%ADD36R,0.900000X1.700000*%
%ADD37C,0.800000*%
%ADD38C,0.200000*%
%ADD39C,0.400000*%
%ADD40C,1.200000*%
%ADD41C,0.254000*%
G04 APERTURE END LIST*
D10*
D11*
X176728572Y-121452381D02*
X177061905Y-122452381D01*
X177395239Y-121452381D01*
X177776191Y-122404762D02*
X177776191Y-122452381D01*
X177728572Y-122547619D01*
X177680953Y-122595238D01*
X178776191Y-122357143D02*
X178728572Y-122404762D01*
X178585715Y-122452381D01*
X178490477Y-122452381D01*
X178347619Y-122404762D01*
X178252381Y-122309524D01*
X178204762Y-122214286D01*
X178157143Y-122023810D01*
X178157143Y-121880952D01*
X178204762Y-121690476D01*
X178252381Y-121595238D01*
X178347619Y-121500000D01*
X178490477Y-121452381D01*
X178585715Y-121452381D01*
X178728572Y-121500000D01*
X178776191Y-121547619D01*
X175209524Y-129957143D02*
X175161905Y-130004762D01*
X175019048Y-130052381D01*
X174923810Y-130052381D01*
X174780952Y-130004762D01*
X174685714Y-129909524D01*
X174638095Y-129814286D01*
X174590476Y-129623810D01*
X174590476Y-129480952D01*
X174638095Y-129290476D01*
X174685714Y-129195238D01*
X174780952Y-129100000D01*
X174923810Y-129052381D01*
X175019048Y-129052381D01*
X175161905Y-129100000D01*
X175209524Y-129147619D01*
X158061905Y-122700000D02*
X157966667Y-122652381D01*
X157823810Y-122652381D01*
X157680952Y-122700000D01*
X157585714Y-122795238D01*
X157538095Y-122890476D01*
X157490476Y-123080952D01*
X157490476Y-123223810D01*
X157538095Y-123414286D01*
X157585714Y-123509524D01*
X157680952Y-123604762D01*
X157823810Y-123652381D01*
X157919048Y-123652381D01*
X158061905Y-123604762D01*
X158109524Y-123557143D01*
X158109524Y-123223810D01*
X157919048Y-123223810D01*
X141490477Y-127052381D02*
X141014286Y-127052381D01*
X141014286Y-126052381D01*
X141823810Y-126671429D02*
X142585715Y-126671429D01*
X144290477Y-115052381D02*
X143814286Y-115052381D01*
X143814286Y-114052381D01*
X144623810Y-114671429D02*
X145385715Y-114671429D01*
X145004763Y-115052381D02*
X145004763Y-114290476D01*
D12*
X179200000Y-90400000D02*
X140800000Y-90400000D01*
X179200000Y-130200000D02*
X179200000Y-90400000D01*
X140800000Y-130200000D02*
X179200000Y-130200000D01*
X140800000Y-90400000D02*
X140800000Y-130200000D01*
D13*
X159800000Y-120000000D03*
X161300000Y-120000000D03*
D14*
X144300000Y-106500000D03*
X144300000Y-110500000D03*
X146700000Y-110500000D03*
X146700000Y-106500000D03*
D15*
X173250000Y-102200760D03*
X175150000Y-102200760D03*
X174200000Y-100201780D03*
D16*
X150564600Y-105542900D03*
X150564600Y-106042900D03*
X150564600Y-106542900D03*
X150564600Y-107042900D03*
X150564600Y-107542900D03*
X150564600Y-108042900D03*
X150564600Y-108542900D03*
X150564600Y-109042900D03*
X150564600Y-109542900D03*
X150564600Y-110042900D03*
X150564600Y-110542900D03*
X150564600Y-111042900D03*
D17*
X152164600Y-112642900D03*
X152664600Y-112642900D03*
X153164600Y-112642900D03*
X153664600Y-112642900D03*
X154164600Y-112642900D03*
X154664600Y-112642900D03*
X155164600Y-112642900D03*
X155664600Y-112642900D03*
X156164600Y-112642900D03*
X156664600Y-112642900D03*
X157164600Y-112642900D03*
X157664600Y-112642900D03*
D16*
X159264600Y-111042900D03*
X159264600Y-110542900D03*
X159264600Y-110042900D03*
X159264600Y-109542900D03*
X159264600Y-109042900D03*
X159264600Y-108542900D03*
X159264600Y-108042900D03*
X159264600Y-107542900D03*
X159264600Y-107042900D03*
X159264600Y-106542900D03*
X159264600Y-106042900D03*
X159264600Y-105542900D03*
D17*
X157664600Y-103942900D03*
X157164600Y-103942900D03*
X156664600Y-103942900D03*
X156164600Y-103942900D03*
X155664600Y-103942900D03*
X155164600Y-103942900D03*
X154664600Y-103942900D03*
X154164600Y-103942900D03*
X153664600Y-103942900D03*
X153164600Y-103942900D03*
X152664600Y-103942900D03*
X152164600Y-103942900D03*
D18*
X143002000Y-117449600D03*
X143002000Y-122326400D03*
D19*
X148865000Y-91555000D03*
X150135000Y-91555000D03*
X151405000Y-91555000D03*
X152675000Y-91555000D03*
X152675000Y-97905000D03*
X151405000Y-97905000D03*
X150135000Y-97905000D03*
X148865000Y-97905000D03*
D13*
X165550000Y-109600000D03*
X164050000Y-109600000D03*
D20*
X161544000Y-117106000D03*
X161544000Y-118606000D03*
X167640000Y-111010000D03*
X167640000Y-112510000D03*
X165862000Y-102882000D03*
X165862000Y-104382000D03*
X165862000Y-100088000D03*
X165862000Y-101588000D03*
X170942000Y-109208000D03*
X170942000Y-107708000D03*
D13*
X151880000Y-117094000D03*
X150380000Y-117094000D03*
X173775000Y-103725000D03*
X175275000Y-103725000D03*
D20*
X162560000Y-100088000D03*
X162560000Y-101588000D03*
D21*
X164400000Y-124014000D03*
D22*
X170750000Y-126300000D03*
D21*
X164400000Y-128586000D03*
D15*
X169600760Y-109550000D03*
X169600760Y-107650000D03*
X167601780Y-108600000D03*
X152080000Y-118633240D03*
X150180000Y-118633240D03*
X151130000Y-120632220D03*
D23*
X164350000Y-107600000D03*
X162450000Y-107600000D03*
D24*
X148500000Y-115750000D03*
X148500000Y-113850000D03*
D23*
X146650000Y-102600000D03*
X148550000Y-102600000D03*
D24*
X146700000Y-114250000D03*
X146700000Y-112350000D03*
X144600000Y-104450000D03*
X144600000Y-102550000D03*
D20*
X153350000Y-116000000D03*
X153350000Y-114500000D03*
X169418000Y-111010000D03*
X169418000Y-112510000D03*
X164338000Y-100088000D03*
X164338000Y-101588000D03*
D25*
X154432000Y-98044000D03*
X150800000Y-100600000D03*
X158900000Y-101650000D03*
X153416000Y-101346000D03*
D26*
X177038000Y-114300000D03*
X159800000Y-127500000D03*
D27*
X142494000Y-125222000D03*
D26*
X176700000Y-126200000D03*
D27*
X142100000Y-115000000D03*
D26*
X176784000Y-118872000D03*
D28*
X154940000Y-129146300D03*
X154940000Y-124345700D03*
X177600000Y-105400300D03*
X177600000Y-100599700D03*
D29*
X174498000Y-91996260D03*
X174498000Y-97995740D03*
D30*
X151843740Y-125984000D03*
X145844260Y-125984000D03*
D18*
X170180000Y-100177600D03*
X170180000Y-105054400D03*
D31*
X178206400Y-109220000D03*
X173329600Y-109220000D03*
D32*
X161550000Y-112400000D03*
X164450000Y-112400000D03*
D33*
X173026000Y-115570000D03*
X166826000Y-115570000D03*
D18*
X145000000Y-96838400D03*
X145000000Y-91961600D03*
D25*
X161000000Y-103000000D03*
D20*
X154432000Y-94222000D03*
X154432000Y-92722000D03*
D34*
X158130240Y-97853500D03*
D35*
X164157660Y-98132900D03*
X163357560Y-98132900D03*
X162560000Y-98132900D03*
X161762440Y-98132900D03*
X160962340Y-98132900D03*
D34*
X166989760Y-97853500D03*
X166989760Y-92354400D03*
X158130240Y-92354400D03*
D25*
X143200000Y-100400000D03*
D20*
X142500000Y-105550000D03*
X142500000Y-107050000D03*
D13*
X143750000Y-112800000D03*
X145250000Y-112800000D03*
D20*
X148300000Y-109850000D03*
X148300000Y-108350000D03*
D15*
X161550000Y-121549240D03*
X159650000Y-121549240D03*
X160600000Y-123548220D03*
D36*
X163430000Y-120290000D03*
X166330000Y-120290000D03*
D37*
X157970000Y-124280000D03*
X167450000Y-119300000D03*
X155067000Y-98171000D03*
X151450000Y-94300000D03*
X171450000Y-113284000D03*
X152146000Y-115443000D03*
X146939000Y-100838000D03*
X166500000Y-110200000D03*
X156200000Y-111100000D03*
X158750000Y-112100000D03*
X163850000Y-113450000D03*
X152900000Y-105750000D03*
X161290000Y-96266000D03*
X160400000Y-98050000D03*
X141600000Y-93200000D03*
X152700000Y-93400000D03*
X147800000Y-91700000D03*
X147701000Y-117221000D03*
X153289000Y-117221000D03*
X165227000Y-114808000D03*
X173736000Y-112649000D03*
X158970000Y-119950000D03*
X150650000Y-104300000D03*
X149098000Y-100076000D03*
X154218156Y-111125956D03*
X158500000Y-113100000D03*
X152550000Y-109600000D03*
X146650000Y-97800000D03*
X170815000Y-92329000D03*
X154650000Y-116450000D03*
X162400000Y-110250000D03*
X156050000Y-99600000D03*
X163576000Y-96012000D03*
X152000000Y-110500000D03*
X153162000Y-110490000D03*
X155194000Y-106807000D03*
X158050000Y-108050000D03*
X156000000Y-102450000D03*
X173482000Y-105156000D03*
X148750000Y-96000000D03*
X155194000Y-105664000D03*
X164200000Y-114800000D03*
X168910000Y-113284000D03*
X158000000Y-107050000D03*
X161400000Y-115250000D03*
X169291000Y-114554000D03*
X167386000Y-101600000D03*
X148200000Y-111400000D03*
X159258000Y-103886000D03*
X164592000Y-103378000D03*
X170434000Y-114554000D03*
X171069000Y-110617000D03*
X167386000Y-106172000D03*
X156650000Y-114650000D03*
X160400000Y-117100000D03*
X163750000Y-109900000D03*
X154432000Y-91440000D03*
X149200000Y-112200000D03*
X145200000Y-108400000D03*
X162150000Y-120000000D03*
D38*
X144600000Y-104450000D02*
X144600000Y-106200000D01*
X144600000Y-106200000D02*
X144300000Y-106500000D01*
X150564600Y-107542900D02*
X149542900Y-107542900D01*
X147250000Y-104450000D02*
X144600000Y-104450000D01*
X148200000Y-105400000D02*
X147250000Y-104450000D01*
X148200000Y-106200000D02*
X148200000Y-105400000D01*
X149542900Y-107542900D02*
X148200000Y-106200000D01*
X144300000Y-105900000D02*
X144300000Y-106500000D01*
D39*
X166460000Y-120290000D02*
X167450000Y-119300000D01*
X157970000Y-124280000D02*
X159800000Y-126110000D01*
X159800000Y-126110000D02*
X159800000Y-127500000D01*
X164400000Y-128586000D02*
X166800000Y-126186000D01*
X166800000Y-119950000D02*
X166800000Y-126186000D01*
X166800000Y-119950000D02*
X167450000Y-119300000D01*
X159800000Y-127500000D02*
X163314000Y-127500000D01*
X163314000Y-127500000D02*
X164400000Y-128586000D01*
X146700000Y-114250000D02*
X145250000Y-112800000D01*
X154432000Y-94222000D02*
X154432000Y-94234000D01*
X154432000Y-94234000D02*
X153670000Y-94996000D01*
X153670000Y-94996000D02*
X152146000Y-94996000D01*
X152146000Y-94996000D02*
X151450000Y-94300000D01*
X155067000Y-98171000D02*
X154940000Y-98044000D01*
X154940000Y-98044000D02*
X154432000Y-98044000D01*
X151405000Y-97905000D02*
X151405000Y-96750000D01*
X151405000Y-96750000D02*
X151429000Y-96774000D01*
X153162000Y-96774000D02*
X154432000Y-98044000D01*
X151429000Y-96774000D02*
X153162000Y-96774000D01*
X150135000Y-91555000D02*
X150135000Y-92265000D01*
X146638400Y-93600000D02*
X145000000Y-91961600D01*
X148800000Y-93600000D02*
X146638400Y-93600000D01*
X150135000Y-92265000D02*
X148800000Y-93600000D01*
X151405000Y-91555000D02*
X150135000Y-91555000D01*
X151450000Y-94300000D02*
X151450000Y-91600000D01*
X151450000Y-91600000D02*
X151405000Y-91555000D01*
X151405000Y-97905000D02*
X151450000Y-97860000D01*
X151450000Y-97860000D02*
X151450000Y-94300000D01*
D38*
X151405000Y-94400000D02*
X151405000Y-94345000D01*
X151405000Y-94345000D02*
X151450000Y-94300000D01*
X151405000Y-97905000D02*
X151405000Y-94400000D01*
X151405000Y-94400000D02*
X151405000Y-95105000D01*
X151405000Y-94550000D02*
X151405000Y-95105000D01*
X151405000Y-91555000D02*
X151405000Y-94650000D01*
X151405000Y-94650000D02*
X151405000Y-94550000D01*
X151405000Y-94550000D02*
X151405000Y-96750000D01*
X151405000Y-96750000D02*
X151405000Y-97905000D01*
D39*
X173329600Y-109220000D02*
X173329600Y-111404400D01*
X173329600Y-111404400D02*
X171450000Y-113284000D01*
X166989760Y-92354400D02*
X158130240Y-92354400D01*
X166989760Y-97853500D02*
X166989760Y-92354400D01*
X165862000Y-104382000D02*
X166866000Y-104382000D01*
X167538400Y-105054400D02*
X170180000Y-105054400D01*
X166866000Y-104382000D02*
X167538400Y-105054400D01*
X173329600Y-109220000D02*
X173329600Y-108204000D01*
X173329600Y-108204000D02*
X170180000Y-105054400D01*
X173329600Y-109220000D02*
X173329600Y-107340400D01*
X175275000Y-105395000D02*
X175275000Y-103725000D01*
X173329600Y-107340400D02*
X175275000Y-105395000D01*
X169600760Y-107650000D02*
X170884000Y-107650000D01*
X170884000Y-107650000D02*
X170942000Y-107708000D01*
X170884000Y-107650000D02*
X170942000Y-107708000D01*
X150550000Y-115750000D02*
X150550000Y-116924000D01*
X150550000Y-116924000D02*
X150380000Y-117094000D01*
X148500000Y-115750000D02*
X150550000Y-115750000D01*
X150550000Y-115750000D02*
X151839000Y-115750000D01*
X151839000Y-115750000D02*
X152146000Y-115443000D01*
X150380000Y-117094000D02*
X150380000Y-118433240D01*
X150380000Y-118433240D02*
X150180000Y-118633240D01*
X148500000Y-115750000D02*
X148516000Y-115750000D01*
X175275000Y-103725000D02*
X175275000Y-103744000D01*
X175150000Y-102200760D02*
X175150000Y-103600000D01*
X175150000Y-103600000D02*
X175275000Y-103725000D01*
X170942000Y-107708000D02*
X170954000Y-107708000D01*
X170954000Y-107708000D02*
X172466000Y-109220000D01*
X172466000Y-109220000D02*
X173329600Y-109220000D01*
X170834000Y-107600000D02*
X170942000Y-107708000D01*
D38*
X175275000Y-103725000D02*
X175260000Y-103759000D01*
X173355000Y-109220000D02*
X173329600Y-109220000D01*
X175133000Y-102235000D02*
X175150000Y-102200760D01*
X148500000Y-115750000D02*
X148463000Y-115697000D01*
X148463000Y-115697000D02*
X148336000Y-115697000D01*
X173329600Y-109220000D02*
X172466000Y-109220000D01*
X172466000Y-109220000D02*
X170942000Y-107696000D01*
X170942000Y-107696000D02*
X170942000Y-107708000D01*
X148463000Y-115697000D02*
X148500000Y-115750000D01*
X150368000Y-117094000D02*
X150380000Y-117094000D01*
X169600760Y-107650000D02*
X169545000Y-107696000D01*
X175150000Y-102200760D02*
X175133000Y-102235000D01*
X175133000Y-102235000D02*
X175260000Y-102362000D01*
X175260000Y-102362000D02*
X175260000Y-103759000D01*
X175260000Y-103759000D02*
X175275000Y-103725000D01*
X150380000Y-117094000D02*
X150368000Y-117094000D01*
X150368000Y-117094000D02*
X150241000Y-117221000D01*
X150241000Y-117221000D02*
X150241000Y-118618000D01*
X150241000Y-118618000D02*
X150180000Y-118633240D01*
X170942000Y-107708000D02*
X170942000Y-107696000D01*
X169545000Y-107696000D02*
X169600760Y-107650000D01*
X146939000Y-100838000D02*
X146685000Y-101092000D01*
X146685000Y-101092000D02*
X146685000Y-102616000D01*
X146685000Y-102616000D02*
X146650000Y-102600000D01*
X146650000Y-102600000D02*
X146685000Y-102616000D01*
X146685000Y-102616000D02*
X145161000Y-102616000D01*
X145161000Y-102616000D02*
X145150000Y-102600000D01*
D39*
X166500000Y-110200000D02*
X166500000Y-108842000D01*
X166500000Y-108842000D02*
X165258000Y-107600000D01*
X164450000Y-112400000D02*
X164450000Y-112850000D01*
X164450000Y-112850000D02*
X163850000Y-113450000D01*
X152900000Y-106850000D02*
X153400000Y-106850000D01*
X157164600Y-110614600D02*
X157164600Y-111150000D01*
X153400000Y-106850000D02*
X157164600Y-110614600D01*
X156250000Y-111150000D02*
X157164600Y-111150000D01*
X156200000Y-111100000D02*
X156250000Y-111150000D01*
X164350000Y-107600000D02*
X165258000Y-107600000D01*
X152900000Y-105750000D02*
X152900000Y-106850000D01*
X152900000Y-106850000D02*
X152900000Y-107500000D01*
X151800000Y-108500000D02*
X151800000Y-108550000D01*
X151900000Y-108500000D02*
X151800000Y-108500000D01*
X152900000Y-107500000D02*
X151900000Y-108500000D01*
X152900000Y-105750000D02*
X152900000Y-105400000D01*
X152900000Y-105400000D02*
X152664600Y-105164600D01*
X157164600Y-111150000D02*
X157800000Y-111150000D01*
X157800000Y-111150000D02*
X158750000Y-112100000D01*
D38*
X164465000Y-107696000D02*
X164338000Y-107569000D01*
X164338000Y-107569000D02*
X164350000Y-107600000D01*
X164350000Y-107600000D02*
X164350000Y-107750000D01*
X164800000Y-112050000D02*
X164450000Y-112400000D01*
X157164600Y-111150000D02*
X157800000Y-111150000D01*
X157800000Y-111150000D02*
X158750000Y-112100000D01*
X157164600Y-112642900D02*
X157164600Y-111150000D01*
X150564600Y-109042900D02*
X151307100Y-109042900D01*
X151307100Y-109042900D02*
X151800000Y-108550000D01*
X152664600Y-103942900D02*
X152664600Y-105164600D01*
D39*
X160400000Y-98050000D02*
X160879440Y-98050000D01*
X160879440Y-98050000D02*
X160962340Y-98132900D01*
X160962340Y-98132900D02*
X160962340Y-96593660D01*
X160962340Y-96593660D02*
X161290000Y-96266000D01*
X160879440Y-98050000D02*
X160962340Y-98132900D01*
X160482900Y-98132900D02*
X160400000Y-98050000D01*
D38*
X160482900Y-98132900D02*
X160400000Y-98050000D01*
D39*
X158130240Y-97853500D02*
X158130240Y-92354400D01*
X160400000Y-98050000D02*
X158326740Y-98050000D01*
X158326740Y-98050000D02*
X158130240Y-97853500D01*
X146746000Y-114046000D02*
X146796000Y-114046000D01*
X146796000Y-114046000D02*
X148500000Y-115750000D01*
D38*
X148336000Y-115697000D02*
X146685000Y-114046000D01*
X146685000Y-114046000D02*
X146746000Y-114046000D01*
X146700000Y-110500000D02*
X146700000Y-108700000D01*
X149342900Y-108042900D02*
X150564600Y-108042900D01*
X148800000Y-107500000D02*
X149342900Y-108042900D01*
X147900000Y-107500000D02*
X148800000Y-107500000D01*
X146700000Y-108700000D02*
X147900000Y-107500000D01*
X146700000Y-110500000D02*
X146700000Y-109700000D01*
X146700000Y-112350000D02*
X146700000Y-110500000D01*
D39*
X141600000Y-93200000D02*
X141600000Y-93400000D01*
X141478000Y-115062000D02*
X141478000Y-102400000D01*
X141478000Y-102400000D02*
X141478000Y-93522000D01*
X141600000Y-93400000D02*
X141478000Y-93522000D01*
X149000000Y-124050000D02*
X149000000Y-122300000D01*
X149000000Y-122300000D02*
X147701000Y-121001000D01*
X154940000Y-129146300D02*
X149496300Y-129146300D01*
X149000000Y-128650000D02*
X149000000Y-126400000D01*
X149496300Y-129146300D02*
X149000000Y-128650000D01*
X152675000Y-91555000D02*
X152675000Y-93375000D01*
X152675000Y-93375000D02*
X152700000Y-93400000D01*
X147800000Y-91700000D02*
X148720000Y-91700000D01*
X148720000Y-91700000D02*
X148865000Y-91555000D01*
X147701000Y-117221000D02*
X147701000Y-121001000D01*
X149000000Y-124050000D02*
X149000000Y-126400000D01*
X143002000Y-117449600D02*
X143002000Y-117475000D01*
X141478000Y-115062000D02*
X141478000Y-115925600D01*
X141478000Y-115925600D02*
X143002000Y-117449600D01*
X152700000Y-91580000D02*
X152675000Y-91555000D01*
X153968000Y-117900000D02*
X153289000Y-117221000D01*
X157436000Y-117900000D02*
X153968000Y-117900000D01*
X159136000Y-116200000D02*
X157436000Y-117900000D01*
X141478000Y-115062000D02*
X142748000Y-116332000D01*
X142748000Y-116332000D02*
X145161000Y-116332000D01*
X145161000Y-116332000D02*
X146050000Y-117221000D01*
X146050000Y-117221000D02*
X147701000Y-117221000D01*
D38*
X146050000Y-117221000D02*
X147701000Y-117221000D01*
X145161000Y-116332000D02*
X146050000Y-117221000D01*
X142748000Y-116332000D02*
X145161000Y-116332000D01*
X143002000Y-117449600D02*
X143002000Y-117475000D01*
X143002000Y-117475000D02*
X141478000Y-115951000D01*
X141478000Y-115951000D02*
X141478000Y-115062000D01*
D39*
X161036000Y-116200000D02*
X164900000Y-116200000D01*
X164900000Y-116200000D02*
X165227000Y-115873000D01*
X165227000Y-115873000D02*
X165227000Y-114808000D01*
X173736000Y-112649000D02*
X173863000Y-112649000D01*
X173863000Y-112649000D02*
X175514000Y-114300000D01*
X175514000Y-114300000D02*
X177038000Y-114300000D01*
X173736000Y-112649000D02*
X175387000Y-112649000D01*
X175387000Y-112649000D02*
X177038000Y-114300000D01*
X165550000Y-109600000D02*
X165550000Y-114485000D01*
X165550000Y-114485000D02*
X165227000Y-114808000D01*
D40*
X177600000Y-105400300D02*
X177600000Y-108613600D01*
X177600000Y-108613600D02*
X178206400Y-109220000D01*
X177038000Y-114300000D02*
X177038000Y-110388400D01*
X177038000Y-110388400D02*
X178206400Y-109220000D01*
X177038000Y-114300000D02*
X177038000Y-115688000D01*
X177038000Y-115688000D02*
X177850000Y-116500000D01*
X177850000Y-116500000D02*
X177850000Y-116750000D01*
X176784000Y-114554000D02*
X177038000Y-114300000D01*
D39*
X161036000Y-116200000D02*
X159136000Y-116200000D01*
X165227000Y-114808000D02*
X165227000Y-115873000D01*
D38*
X175387000Y-112649000D02*
X177038000Y-114300000D01*
X165608000Y-109728000D02*
X165608000Y-109601000D01*
X165608000Y-109601000D02*
X165550000Y-109600000D01*
X165608000Y-109982000D02*
X165608000Y-109601000D01*
X165608000Y-109601000D02*
X165550000Y-109600000D01*
X165550000Y-109600000D02*
X165608000Y-109601000D01*
X177673000Y-109728000D02*
X178181000Y-109220000D01*
X178181000Y-109220000D02*
X178206400Y-109220000D01*
X178206400Y-109220000D02*
X178181000Y-109220000D01*
X178181000Y-109220000D02*
X177038000Y-110363000D01*
X177038000Y-110363000D02*
X177038000Y-114300000D01*
X178206400Y-109220000D02*
X178181000Y-109220000D01*
X178181000Y-109220000D02*
X177546000Y-108585000D01*
X177546000Y-108585000D02*
X177546000Y-105410000D01*
X177546000Y-105410000D02*
X177600000Y-105400300D01*
X177038000Y-114300000D02*
X176784000Y-114554000D01*
D40*
X176784000Y-118872000D02*
X176784000Y-117684000D01*
X176784000Y-117684000D02*
X175750000Y-116650000D01*
X175750000Y-116650000D02*
X175750000Y-116450000D01*
X176784000Y-118872000D02*
X176784000Y-114554000D01*
D39*
X159020000Y-120000000D02*
X159800000Y-120000000D01*
D38*
X158970000Y-119950000D02*
X159020000Y-120000000D01*
D39*
X159800000Y-120000000D02*
X159800000Y-121399240D01*
D38*
X159800000Y-121399240D02*
X159650000Y-121549240D01*
X148300000Y-109850000D02*
X148450000Y-109850000D01*
X148450000Y-109850000D02*
X148757100Y-109542900D01*
X148757100Y-109542900D02*
X150564600Y-109542900D01*
X150650000Y-105200000D02*
X150650000Y-105457500D01*
X150650000Y-105457500D02*
X150564600Y-105542900D01*
D39*
X150650000Y-104300000D02*
X150650000Y-105200000D01*
X150650000Y-105200000D02*
X150650000Y-105400000D01*
X150650000Y-104300000D02*
X151800000Y-104300000D01*
X150650000Y-104300000D02*
X150250000Y-104300000D01*
X150250000Y-104300000D02*
X148550000Y-102600000D01*
X150650000Y-104300000D02*
X150700000Y-104250000D01*
X149098000Y-100076000D02*
X150276000Y-100076000D01*
X150276000Y-100076000D02*
X150800000Y-100600000D01*
X148865000Y-99843000D02*
X149098000Y-100076000D01*
D38*
X148865000Y-99843000D02*
X149098000Y-100076000D01*
X150800000Y-100600000D02*
X150749000Y-100584000D01*
X148550000Y-102600000D02*
X148590000Y-102616000D01*
X149098000Y-100076000D02*
X150241000Y-100076000D01*
X150241000Y-100076000D02*
X150749000Y-100584000D01*
X150749000Y-100584000D02*
X150800000Y-100600000D01*
X152164600Y-103942900D02*
X152157100Y-103942900D01*
X152157100Y-103942900D02*
X151800000Y-104300000D01*
D39*
X151800000Y-104300000D02*
X152000000Y-104300000D01*
D38*
X154164600Y-112642900D02*
X154164600Y-111179512D01*
X154164600Y-111179512D02*
X154218156Y-111125956D01*
D39*
X154150000Y-111650000D02*
X154150000Y-111194112D01*
X154150000Y-111194112D02*
X154218156Y-111125956D01*
X158450000Y-113050000D02*
X157800000Y-113050000D01*
X158500000Y-113100000D02*
X158450000Y-113050000D01*
X152550000Y-109600000D02*
X152407100Y-109542900D01*
X152407100Y-109542900D02*
X151942900Y-109542900D01*
X151900000Y-109500000D02*
X151900000Y-109542900D01*
X151942900Y-109542900D02*
X151900000Y-109500000D01*
D38*
X152164600Y-104285400D02*
X152164600Y-104164600D01*
X157664600Y-112642900D02*
X157664600Y-113064600D01*
X150564600Y-109542900D02*
X151900000Y-109542900D01*
X151900000Y-109542900D02*
X152407100Y-109542900D01*
D39*
X146650000Y-97800000D02*
X145961600Y-97800000D01*
X145961600Y-97800000D02*
X145000000Y-96838400D01*
X148865000Y-97905000D02*
X148865000Y-99843000D01*
X146650000Y-97800000D02*
X148760000Y-97800000D01*
X148760000Y-97800000D02*
X148865000Y-97905000D01*
D38*
X148844000Y-98425000D02*
X148844000Y-97917000D01*
X148844000Y-97917000D02*
X148865000Y-97905000D01*
X148760000Y-97800000D02*
X148865000Y-97905000D01*
X171650000Y-100150000D02*
X171704000Y-100203000D01*
X171650000Y-100150000D02*
X171704000Y-100203000D01*
D39*
X165862000Y-100088000D02*
X170090400Y-100088000D01*
X170090400Y-100088000D02*
X170180000Y-100177600D01*
X164157660Y-98132900D02*
X164157660Y-98383660D01*
X164157660Y-98383660D02*
X165862000Y-100088000D01*
X170180000Y-96520000D02*
X170180000Y-92964000D01*
X170180000Y-92964000D02*
X170815000Y-92329000D01*
X171147740Y-91996260D02*
X174498000Y-91996260D01*
X170815000Y-92329000D02*
X171147740Y-91996260D01*
X170180000Y-100177600D02*
X170180000Y-96520000D01*
X164157660Y-98132900D02*
X164157660Y-97462340D01*
D38*
X170434000Y-99923600D02*
X170180000Y-100177600D01*
X164157660Y-97892340D02*
X164157660Y-98132900D01*
X164211000Y-97663000D02*
X164211000Y-98171000D01*
X164211000Y-98171000D02*
X164157660Y-98132900D01*
X164157660Y-98132900D02*
X164211000Y-98171000D01*
X170150000Y-100150000D02*
X170050000Y-100150000D01*
X170150000Y-100150000D02*
X170180000Y-100203000D01*
X143002000Y-122326400D02*
X143002000Y-124714000D01*
X143002000Y-124714000D02*
X142494000Y-125222000D01*
X142494000Y-125222000D02*
X145082260Y-125222000D01*
X145082260Y-125222000D02*
X145844260Y-125984000D01*
X145844260Y-125984000D02*
X145734000Y-125984000D01*
X145034000Y-125222000D02*
X145796000Y-125984000D01*
X145796000Y-125984000D02*
X145844260Y-125984000D01*
X143002000Y-122326400D02*
X143002000Y-122301000D01*
X148500000Y-113850000D02*
X148463000Y-113792000D01*
X148463000Y-113792000D02*
X149479000Y-113792000D01*
X149479000Y-113792000D02*
X149606000Y-113665000D01*
X149606000Y-113665000D02*
X152654000Y-113665000D01*
X152654000Y-113665000D02*
X152654000Y-112649000D01*
X152654000Y-112649000D02*
X152664600Y-112642900D01*
X154664600Y-112642900D02*
X154664600Y-116435400D01*
X154664600Y-116435400D02*
X154650000Y-116450000D01*
X159264600Y-110542900D02*
X162107100Y-110542900D01*
X162107100Y-110542900D02*
X162400000Y-110250000D01*
X162450000Y-107600000D02*
X162433000Y-107569000D01*
X162433000Y-107569000D02*
X161290000Y-107569000D01*
X161290000Y-107569000D02*
X160274000Y-108585000D01*
X160274000Y-108585000D02*
X159258000Y-108585000D01*
X159258000Y-108585000D02*
X159264600Y-108542900D01*
X156664600Y-103942900D02*
X156664600Y-103035400D01*
X156850000Y-100400000D02*
X156050000Y-99600000D01*
X156850000Y-102850000D02*
X156850000Y-100400000D01*
X156664600Y-103035400D02*
X156850000Y-102850000D01*
X151130000Y-120632220D02*
X151130000Y-125270260D01*
X151130000Y-125270260D02*
X151843740Y-125984000D01*
X151843740Y-125984000D02*
X153301700Y-125984000D01*
X153301700Y-125984000D02*
X154940000Y-124345700D01*
X151130000Y-120632220D02*
X151130000Y-120904000D01*
X154940000Y-124345700D02*
X154704300Y-124345700D01*
X151843740Y-125984000D02*
X151843740Y-124993740D01*
X154940000Y-124333000D02*
X154940000Y-124345700D01*
X151843740Y-125984000D02*
X151892000Y-125984000D01*
X151892000Y-125984000D02*
X151130000Y-125222000D01*
D39*
X174200000Y-100201780D02*
X177202080Y-100201780D01*
X177202080Y-100201780D02*
X177600000Y-100599700D01*
X174498000Y-97995740D02*
X174498000Y-99903780D01*
X174498000Y-99903780D02*
X174200000Y-100201780D01*
D38*
X174200000Y-100201780D02*
X174448220Y-100201780D01*
X174448220Y-100201780D02*
X174600000Y-100050000D01*
X176250000Y-100050000D02*
X177600000Y-100599700D01*
X174200000Y-100201780D02*
X174244000Y-100203000D01*
X177165000Y-100203000D02*
X177546000Y-100584000D01*
X177546000Y-100584000D02*
X177600000Y-100599700D01*
X177600000Y-100599700D02*
X177546000Y-100584000D01*
X177546000Y-100584000D02*
X177292000Y-100330000D01*
X158900000Y-101650000D02*
X158900000Y-102707500D01*
X158900000Y-102707500D02*
X157664600Y-103942900D01*
X158900000Y-101650000D02*
X158877000Y-101600000D01*
X153664600Y-103942900D02*
X153664600Y-101935400D01*
X153664600Y-101935400D02*
X154200000Y-101400000D01*
X154200000Y-101400000D02*
X154178000Y-101346000D01*
X162560000Y-98132900D02*
X162560000Y-100088000D01*
X163357560Y-98132900D02*
X163357560Y-99107560D01*
X163357560Y-99107560D02*
X164338000Y-100088000D01*
X163357560Y-98132900D02*
X163322000Y-98171000D01*
X164338000Y-100076000D02*
X164338000Y-100088000D01*
X161762440Y-98132900D02*
X161762440Y-97063560D01*
X161762440Y-97063560D02*
X162814000Y-96012000D01*
X162814000Y-96012000D02*
X163576000Y-96012000D01*
D40*
X168402000Y-126746000D02*
X169904000Y-126746000D01*
D38*
X169164000Y-125984000D02*
X168402000Y-126746000D01*
X161544000Y-118606000D02*
X166044000Y-118606000D01*
X166520000Y-118130000D02*
X173026000Y-118130000D01*
X166044000Y-118606000D02*
X166520000Y-118130000D01*
D40*
X176700000Y-126200000D02*
X170850000Y-126200000D01*
X170850000Y-126200000D02*
X170750000Y-126300000D01*
X173026000Y-115570000D02*
X173026000Y-118130000D01*
X173026000Y-118130000D02*
X173026000Y-124766000D01*
X173026000Y-124766000D02*
X174244000Y-125984000D01*
D38*
X174244000Y-125984000D02*
X172974000Y-124714000D01*
X172974000Y-124714000D02*
X172974000Y-115570000D01*
X172974000Y-115570000D02*
X173026000Y-115570000D01*
X161544000Y-118618000D02*
X161544000Y-118606000D01*
X153164600Y-112642900D02*
X153164600Y-111664600D01*
X153164600Y-111664600D02*
X152000000Y-110500000D01*
X153162000Y-112649000D02*
X153164600Y-112642900D01*
X155321000Y-110400000D02*
X155321000Y-110021000D01*
X154774000Y-109474000D02*
X154686000Y-109474000D01*
X155321000Y-110021000D02*
X154774000Y-109474000D01*
X155164600Y-112642900D02*
X155194000Y-112649000D01*
X155194000Y-112649000D02*
X155194000Y-111633000D01*
X155194000Y-111633000D02*
X155321000Y-111506000D01*
X155321000Y-111506000D02*
X155321000Y-110400000D01*
X154686000Y-109474000D02*
X154178000Y-109474000D01*
X154178000Y-109474000D02*
X153162000Y-110490000D01*
X159264600Y-110042900D02*
X158429900Y-110042900D01*
X158429900Y-110042900D02*
X155194000Y-106807000D01*
X159264600Y-108042900D02*
X158057100Y-108042900D01*
X158057100Y-108042900D02*
X158050000Y-108050000D01*
X156164600Y-103942900D02*
X156164600Y-102614600D01*
X156164600Y-102614600D02*
X156000000Y-102450000D01*
X173482000Y-105156000D02*
X173482000Y-104018000D01*
X173482000Y-104018000D02*
X173775000Y-103725000D01*
X173775000Y-103725000D02*
X173736000Y-103759000D01*
X173736000Y-103759000D02*
X173228000Y-103251000D01*
X173228000Y-103251000D02*
X173228000Y-102235000D01*
X173228000Y-102235000D02*
X173250000Y-102200760D01*
X173775000Y-103725000D02*
X173736000Y-103759000D01*
X153350000Y-116000000D02*
X152974000Y-116000000D01*
X152974000Y-116000000D02*
X151880000Y-117094000D01*
X151892000Y-116840000D02*
X151892000Y-117094000D01*
X151892000Y-117094000D02*
X151880000Y-117094000D01*
X151880000Y-117094000D02*
X151892000Y-117094000D01*
X151892000Y-117094000D02*
X152019000Y-117221000D01*
X152019000Y-117221000D02*
X152019000Y-118618000D01*
X152019000Y-118618000D02*
X152080000Y-118633240D01*
X169600760Y-109550000D02*
X169545000Y-109601000D01*
X169545000Y-109601000D02*
X170561000Y-109601000D01*
X170561000Y-109601000D02*
X170942000Y-109220000D01*
X170942000Y-109220000D02*
X170942000Y-109208000D01*
X169418000Y-111010000D02*
X169418000Y-110998000D01*
X169418000Y-110998000D02*
X169545000Y-110871000D01*
X169545000Y-110871000D02*
X169545000Y-109601000D01*
X169545000Y-109601000D02*
X169600760Y-109550000D01*
X167640000Y-111010000D02*
X167640000Y-110940000D01*
X167640000Y-110940000D02*
X167450000Y-110750000D01*
X167450000Y-110750000D02*
X167450000Y-109000000D01*
X167450000Y-109000000D02*
X167601780Y-108600000D01*
X166826000Y-115570000D02*
X166826000Y-114076000D01*
X166826000Y-114076000D02*
X166750000Y-114000000D01*
X166750000Y-114000000D02*
X166750000Y-111900000D01*
X166750000Y-111900000D02*
X167640000Y-111010000D01*
X166826000Y-115570000D02*
X166878000Y-115570000D01*
X166878000Y-115570000D02*
X166878000Y-111887000D01*
X166878000Y-111887000D02*
X167640000Y-111125000D01*
X167640000Y-111125000D02*
X167640000Y-111010000D01*
X167640000Y-111010000D02*
X167640000Y-108585000D01*
X167640000Y-108585000D02*
X167601780Y-108600000D01*
D39*
X164400000Y-124014000D02*
X164400000Y-121260000D01*
X164400000Y-121260000D02*
X163430000Y-120290000D01*
X160600000Y-123548220D02*
X163934220Y-123548220D01*
X163934220Y-123548220D02*
X164400000Y-124014000D01*
D38*
X163930000Y-123544000D02*
X164400000Y-124014000D01*
X163934220Y-123548220D02*
X164400000Y-124014000D01*
X148750000Y-96000000D02*
X150135000Y-97035000D01*
X150135000Y-97035000D02*
X150135000Y-97905000D01*
X153350000Y-114500000D02*
X153350000Y-114400000D01*
X153350000Y-114400000D02*
X153664600Y-114085400D01*
X153664600Y-114085400D02*
X153664600Y-112642900D01*
X155164600Y-105634600D02*
X155164600Y-103942900D01*
X155194000Y-105664000D02*
X155164600Y-105634600D01*
X155194000Y-103886000D02*
X155164600Y-103942900D01*
X169418000Y-112510000D02*
X169418000Y-112776000D01*
X169418000Y-112776000D02*
X168910000Y-113284000D01*
X156164600Y-113835400D02*
X155800000Y-114200000D01*
X155800000Y-114200000D02*
X155800000Y-115200000D01*
X155800000Y-115200000D02*
X156200000Y-115600000D01*
X156164600Y-112642900D02*
X156164600Y-113835400D01*
X163800000Y-114400000D02*
X163600000Y-114200000D01*
X163600000Y-114200000D02*
X158200000Y-114200000D01*
X158200000Y-114200000D02*
X156800000Y-115600000D01*
X156800000Y-115600000D02*
X156200000Y-115600000D01*
X164200000Y-114800000D02*
X163800000Y-114400000D01*
X169418000Y-112510000D02*
X169418000Y-112522000D01*
X159264600Y-107542900D02*
X160457100Y-107542900D01*
X163800000Y-102126000D02*
X164338000Y-101588000D01*
X163800000Y-104200000D02*
X163800000Y-102126000D01*
X160457100Y-107542900D02*
X163800000Y-104200000D01*
X159264600Y-107042900D02*
X160357100Y-107042900D01*
X162560000Y-104840000D02*
X162560000Y-101588000D01*
X160357100Y-107042900D02*
X162560000Y-104840000D01*
X162560000Y-101588000D02*
X162560000Y-101600000D01*
X159258000Y-107061000D02*
X159264600Y-107042900D01*
X159264600Y-107042900D02*
X158007100Y-107042900D01*
X158007100Y-107042900D02*
X158000000Y-107050000D01*
X159950000Y-115200000D02*
X161350000Y-115200000D01*
X161350000Y-115200000D02*
X161400000Y-115250000D01*
X155664600Y-113535400D02*
X155664600Y-112642900D01*
X155200000Y-114000000D02*
X155664600Y-113535400D01*
X155200000Y-115600000D02*
X155200000Y-114000000D01*
X155800000Y-116200000D02*
X155200000Y-115600000D01*
X157600000Y-116200000D02*
X155800000Y-116200000D01*
X158600000Y-115200000D02*
X157600000Y-116200000D01*
X159950000Y-115200000D02*
X158600000Y-115200000D01*
X155702000Y-112649000D02*
X155664600Y-112642900D01*
X167640000Y-112510000D02*
X167640000Y-112522000D01*
X167640000Y-112522000D02*
X168021000Y-112522000D01*
X168021000Y-112522000D02*
X168656000Y-111887000D01*
X168656000Y-111887000D02*
X170180000Y-111887000D01*
X170180000Y-111887000D02*
X170180000Y-113157000D01*
X170180000Y-113157000D02*
X169291000Y-114046000D01*
X169291000Y-114046000D02*
X169291000Y-114554000D01*
X148200000Y-111400000D02*
X148500000Y-111400000D01*
X149457100Y-110042900D02*
X150564600Y-110042900D01*
X149100000Y-110400000D02*
X149457100Y-110042900D01*
X149100000Y-110800000D02*
X149100000Y-110400000D01*
X148500000Y-111400000D02*
X149100000Y-110800000D01*
X165862000Y-101588000D02*
X167374000Y-101588000D01*
X167374000Y-101588000D02*
X167386000Y-101600000D01*
X165862000Y-102882000D02*
X165862000Y-101588000D01*
X157164600Y-103942900D02*
X157164600Y-104840600D01*
X170434000Y-113919000D02*
X170434000Y-114554000D01*
X170688000Y-113665000D02*
X170434000Y-113919000D01*
X170688000Y-110998000D02*
X170688000Y-113665000D01*
X171069000Y-110617000D02*
X170688000Y-110998000D01*
X164592000Y-105664000D02*
X165100000Y-106172000D01*
X165100000Y-106172000D02*
X167386000Y-106172000D01*
X164592000Y-103378000D02*
X164592000Y-105664000D01*
X158242000Y-104902000D02*
X159258000Y-103886000D01*
X157226000Y-104902000D02*
X158242000Y-104902000D01*
X157164600Y-104840600D02*
X157226000Y-104902000D01*
X156664600Y-112642900D02*
X156664600Y-114635400D01*
X156664600Y-114635400D02*
X156650000Y-114650000D01*
X161544000Y-117106000D02*
X160394000Y-117106000D01*
X160394000Y-117106000D02*
X160400000Y-117100000D01*
X159264600Y-109542900D02*
X163992900Y-109542900D01*
X163992900Y-109542900D02*
X164050000Y-109600000D01*
X163750000Y-109900000D02*
X163750000Y-109842900D01*
X163750000Y-109842900D02*
X163992900Y-109842900D01*
X163992900Y-109842900D02*
X164050000Y-109900000D01*
X161550000Y-112400000D02*
X161550000Y-111700000D01*
X161550000Y-111700000D02*
X160892900Y-111042900D01*
X160892900Y-111042900D02*
X159264600Y-111042900D01*
X159264600Y-106542900D02*
X160257100Y-106542900D01*
X161000000Y-105800000D02*
X161000000Y-103000000D01*
X160257100Y-106542900D02*
X161000000Y-105800000D01*
X154164600Y-103942900D02*
X154164600Y-102883400D01*
X156210000Y-94500000D02*
X154432000Y-92722000D01*
X156210000Y-98298000D02*
X156210000Y-94500000D01*
X154940000Y-99568000D02*
X156210000Y-98298000D01*
X154940000Y-102108000D02*
X154940000Y-99568000D01*
X154164600Y-102883400D02*
X154940000Y-102108000D01*
X154432000Y-91440000D02*
X154432000Y-92722000D01*
X142500000Y-105550000D02*
X142500000Y-101100000D01*
X142500000Y-101100000D02*
X143200000Y-100400000D01*
X143750000Y-112800000D02*
X143700000Y-112800000D01*
X143700000Y-112800000D02*
X142800000Y-111900000D01*
X142800000Y-111900000D02*
X142800000Y-108700000D01*
X142800000Y-108700000D02*
X143100000Y-108400000D01*
X150564600Y-111042900D02*
X150357100Y-111042900D01*
X150357100Y-111042900D02*
X149200000Y-112200000D01*
X145200000Y-108400000D02*
X143100000Y-108400000D01*
X143100000Y-108400000D02*
X142600000Y-108400000D01*
X142600000Y-108400000D02*
X142500000Y-108300000D01*
X142500000Y-108300000D02*
X142500000Y-107050000D01*
X148300000Y-108350000D02*
X148750000Y-108350000D01*
X148750000Y-108350000D02*
X148942900Y-108542900D01*
X148942900Y-108542900D02*
X150564600Y-108542900D01*
X162150000Y-120000000D02*
X161300000Y-120000000D01*
X161300000Y-120000000D02*
X161300000Y-121299240D01*
X161300000Y-121299240D02*
X161550000Y-121549240D01*
D41*
G36*
X174603000Y-124301877D02*
X174603000Y-127890000D01*
X173707000Y-127890000D01*
X173707000Y-123600660D01*
X174603000Y-124301877D01*
X174603000Y-124301877D01*
G37*
X174603000Y-124301877D02*
X174603000Y-127890000D01*
X173707000Y-127890000D01*
X173707000Y-123600660D01*
X174603000Y-124301877D01*
G36*
X165584056Y-128033826D02*
X165601208Y-129217284D01*
X161148699Y-129367898D01*
X161697385Y-125783150D01*
X165584056Y-128033826D01*
X165584056Y-128033826D01*
G37*
X165584056Y-128033826D02*
X165601208Y-129217284D01*
X161148699Y-129367898D01*
X161697385Y-125783150D01*
X165584056Y-128033826D01*
M02*
