G04 #@! TF.FileFunction,Soldermask,Top*
%FSLAX45Y45*%
G04 Gerber Fmt 4.5, Leading zero omitted, Abs format (unit mm)*
G04 Created by KiCad (PCBNEW (2015-12-04 BZR 6347, Git 4c88040)-product) date 15.04.2016 21:14:43*
%MOMM*%
G01*
G04 APERTURE LIST*
%ADD10C,0.100000*%
%ADD11C,0.150000*%
%ADD12R,1.500000X2.200000*%
%ADD13R,1.000100X1.000100*%
%ADD14R,1.500000X0.450000*%
%ADD15R,0.450000X1.500000*%
%ADD16R,3.700000X1.800000*%
%ADD17R,0.708000X1.343000*%
%ADD18R,0.700000X1.100000*%
%ADD19R,1.100000X0.700000*%
%ADD20R,1.851000X3.248000*%
%ADD21R,6.296000X6.296000*%
%ADD22R,0.900000X1.500000*%
%ADD23R,1.500000X0.900000*%
%ADD24C,2.200000*%
%ADD25R,4.264000X4.264000*%
%ADD26R,2.200000X2.200000*%
%ADD27R,2.900020X2.000860*%
%ADD28R,3.199740X2.198980*%
%ADD29R,2.198980X3.199740*%
%ADD30R,1.800000X3.700000*%
%ADD31R,1.100000X2.700000*%
%ADD32R,1.200000X3.400000*%
%ADD33R,2.397100X2.397100*%
%ADD34R,0.697840X2.397100*%
%ADD35C,1.099160*%
G04 APERTURE END LIST*
D10*
D11*
X17920000Y-9040000D02*
X14080000Y-9040000D01*
X17920000Y-13020000D02*
X17920000Y-9040000D01*
X14080000Y-13020000D02*
X17920000Y-13020000D01*
X14080000Y-9040000D02*
X14080000Y-13020000D01*
D12*
X14430000Y-10650000D03*
X14430000Y-11050000D03*
X14670000Y-11050000D03*
X14670000Y-10650000D03*
D13*
X17325000Y-10220076D03*
X17515000Y-10220076D03*
X17420000Y-10020178D03*
D14*
X15056460Y-10554290D03*
X15056460Y-10604290D03*
X15056460Y-10654290D03*
X15056460Y-10704290D03*
X15056460Y-10754290D03*
X15056460Y-10804290D03*
X15056460Y-10854290D03*
X15056460Y-10904290D03*
X15056460Y-10954290D03*
X15056460Y-11004290D03*
X15056460Y-11054290D03*
X15056460Y-11104290D03*
D15*
X15216460Y-11264290D03*
X15266460Y-11264290D03*
X15316460Y-11264290D03*
X15366460Y-11264290D03*
X15416460Y-11264290D03*
X15466460Y-11264290D03*
X15516460Y-11264290D03*
X15566460Y-11264290D03*
X15616460Y-11264290D03*
X15666460Y-11264290D03*
X15716460Y-11264290D03*
X15766460Y-11264290D03*
D14*
X15926460Y-11104290D03*
X15926460Y-11054290D03*
X15926460Y-11004290D03*
X15926460Y-10954290D03*
X15926460Y-10904290D03*
X15926460Y-10854290D03*
X15926460Y-10804290D03*
X15926460Y-10754290D03*
X15926460Y-10704290D03*
X15926460Y-10654290D03*
X15926460Y-10604290D03*
X15926460Y-10554290D03*
D15*
X15766460Y-10394290D03*
X15716460Y-10394290D03*
X15666460Y-10394290D03*
X15616460Y-10394290D03*
X15566460Y-10394290D03*
X15516460Y-10394290D03*
X15466460Y-10394290D03*
X15416460Y-10394290D03*
X15366460Y-10394290D03*
X15316460Y-10394290D03*
X15266460Y-10394290D03*
X15216460Y-10394290D03*
D16*
X14300200Y-11744960D03*
X14300200Y-12232640D03*
D17*
X14886500Y-9155500D03*
X15013500Y-9155500D03*
X15140500Y-9155500D03*
X15267500Y-9155500D03*
X15267500Y-9790500D03*
X15140500Y-9790500D03*
X15013500Y-9790500D03*
X14886500Y-9790500D03*
D18*
X16555000Y-10960000D03*
X16405000Y-10960000D03*
D19*
X16154400Y-11710600D03*
X16154400Y-11860600D03*
X16764000Y-11101000D03*
X16764000Y-11251000D03*
X16586200Y-10288200D03*
X16586200Y-10438200D03*
X16586200Y-10008800D03*
X16586200Y-10158800D03*
X17094200Y-10920800D03*
X17094200Y-10770800D03*
D18*
X15188000Y-11709400D03*
X15038000Y-11709400D03*
X17377500Y-10372500D03*
X17527500Y-10372500D03*
D19*
X16256000Y-10008800D03*
X16256000Y-10158800D03*
D20*
X16383000Y-12039600D03*
D21*
X16154400Y-12674600D03*
D20*
X15925800Y-12039600D03*
X17068800Y-12039600D03*
D21*
X16840200Y-12674600D03*
D20*
X16611600Y-12039600D03*
D13*
X16960076Y-10955000D03*
X16960076Y-10765000D03*
X16760178Y-10860000D03*
X15208000Y-11863324D03*
X15018000Y-11863324D03*
X15113000Y-12063222D03*
D22*
X16435000Y-10760000D03*
X16245000Y-10760000D03*
D23*
X14850000Y-11575000D03*
X14850000Y-11385000D03*
D22*
X14665000Y-10260000D03*
X14855000Y-10260000D03*
D23*
X14670000Y-11425000D03*
X14670000Y-11235000D03*
X14460000Y-10445000D03*
X14460000Y-10255000D03*
D19*
X15335000Y-11600000D03*
X15335000Y-11450000D03*
X16941800Y-11101000D03*
X16941800Y-11251000D03*
X16433800Y-10008800D03*
X16433800Y-10158800D03*
D24*
X15443200Y-9804400D03*
X15080000Y-10060000D03*
X15890000Y-10165000D03*
X15341600Y-10134600D03*
D25*
X17703800Y-11430000D03*
X15544800Y-12065000D03*
D26*
X14249400Y-12522200D03*
D25*
X17400000Y-12600000D03*
D26*
X14210000Y-11500000D03*
D25*
X17678400Y-11887200D03*
D27*
X15494000Y-12914630D03*
X15494000Y-12434570D03*
X17760000Y-10540030D03*
X17760000Y-10059970D03*
D28*
X17449800Y-9199626D03*
X17449800Y-9799574D03*
D29*
X15184374Y-12598400D03*
X14584426Y-12598400D03*
D16*
X17018000Y-10017760D03*
X17018000Y-10505440D03*
D30*
X17820640Y-10922000D03*
X17332960Y-10922000D03*
D31*
X16155000Y-11240000D03*
X16445000Y-11240000D03*
D32*
X17302600Y-11557000D03*
X16682600Y-11557000D03*
D16*
X14500000Y-9683840D03*
X14500000Y-9196160D03*
D24*
X16100000Y-10300000D03*
D19*
X15443200Y-9422200D03*
X15443200Y-9272200D03*
D33*
X15813024Y-9785350D03*
D34*
X16415766Y-9813290D03*
X16335756Y-9813290D03*
X16256000Y-9813290D03*
X16176244Y-9813290D03*
X16096234Y-9813290D03*
D35*
X16475710Y-9560560D03*
X16036036Y-9560560D03*
D33*
X16698976Y-9785350D03*
X16698976Y-9235440D03*
X15813024Y-9235440D03*
D24*
X14320000Y-10040000D03*
D19*
X14250000Y-10555000D03*
X14250000Y-10705000D03*
D18*
X14375000Y-11280000D03*
X14525000Y-11280000D03*
D19*
X14830000Y-10985000D03*
X14830000Y-10835000D03*
M02*
