M48
;DRILL file {KiCad (2015-12-04 BZR 6347, Git 4c88040)-product} date 15.04.2016 21:14:14
;FORMAT={-:-/ absolute / metric / decimal}
FMAT,2
METRIC,TZ
T1C0.400
%
G90
G05
M71
T1
X0.8Y37.
X4.4Y21.8
X5.85Y32.4
X6.139Y29.362
X6.901Y12.979
X7.Y38.5
X7.4Y18.8
X7.95Y34.2
X8.298Y30.124
X8.4Y18.
X9.85Y25.9
X10.65Y35.9
X11.2Y19.7
X11.346Y14.757
X11.75Y20.6
X11.9Y36.8
X12.1Y24.45
X12.362Y19.71
X12.489Y12.979
X13.418Y19.074
X13.632Y38.76
X13.85Y13.75
X14.267Y32.029
X14.394Y24.536
X14.394Y23.393
X15.2Y27.75
X15.25Y30.6
X15.4Y19.1
X15.85Y15.55
X16.5Y10.85
X17.2Y23.15
X17.25Y22.15
X17.7Y17.1
X17.95Y18.1
X18.458Y26.314
X19.6Y32.15
X19.6Y13.1
X20.Y15.
X20.49Y33.934
X20.75Y10.
X20.75Y5.5
X21.6Y19.95
X22.776Y34.188
X22.95Y20.3
X23.05Y16.75
X23.35Y12.35
X23.4Y15.4
X23.792Y26.822
X24.427Y15.392
X25.7Y20.
X26.586Y28.6
X26.586Y24.028
X26.92Y10.9
X28.11Y16.916
X28.491Y15.646
X29.634Y15.646
X30.015Y37.871
X30.269Y19.583
X30.65Y16.916
X32.682Y25.044
X32.936Y17.551
T0
M30
